<?xml version="1.0" encoding="UTF-8" standalone="no"?>
<!-- Created with Inkscape (http://www.inkscape.org/) -->

<svg
   width="279.56613"
   height="63.129707"
   viewBox="0 0 73.968541 16.703069"
   version="1.1"
   id="svg5"
   inkscape:version="1.1 (c68e22c387, 2021-05-23)"
   sodipodi:docname="XCWalker &amp; Walker Logo Merge.svg"
   inkscape:export-filename="D:\My Drive\XC Walker [Website]\Logo\XCWalker &amp; Walker Logo Merge\XCWalker &amp; Walker Logo Merge.png"
   inkscape:export-xdpi="304.13574"
   inkscape:export-ydpi="304.13574"
   xmlns:inkscape="http://www.inkscape.org/namespaces/inkscape"
   xmlns:sodipodi="http://sodipodi.sourceforge.net/DTD/sodipodi-0.dtd"
   xmlns="http://www.w3.org/2000/svg"
   xmlns:svg="http://www.w3.org/2000/svg">
  <sodipodi:namedview
     id="namedview7"
     pagecolor="#505050"
     bordercolor="#ffffff"
     borderopacity="1"
     inkscape:pageshadow="0"
     inkscape:pageopacity="0"
     inkscape:pagecheckerboard="1"
     inkscape:document-units="px"
     showgrid="false"
     inkscape:zoom="5.6568543"
     inkscape:cx="131.07992"
     inkscape:cy="31.55464"
     inkscape:window-width="1920"
     inkscape:window-height="1137"
     inkscape:window-x="-8"
     inkscape:window-y="-8"
     inkscape:window-maximized="1"
     inkscape:current-layer="layer1" />
  <defs
     id="defs2" />
  <g
     inkscape:label="Layer 1"
     inkscape:groupmode="layer"
     id="layer1"
     transform="translate(152.85741,-16.644216)">
    <path
       id="path15279"
       style="fill:#fec224;fill-opacity:1;stroke:none;stroke-width:0.999999px;stroke-linecap:butt;stroke-linejoin:miter;stroke-opacity:1"
       d="m 598.57812,-133.41406 c -23.63526,0 -60.16579,1.49406 -97.85937,7.73828 h 3.68164 v 5.16016 c 2.07476,-0.49488 4.14264,-0.97991 6.17969,-1.4375 v -2.2168 -0.004 -1.5 -0.002 h 10.00195 v 1.59375 c 44.90585,-9.10496 77.9961,-9.33203 77.99609,-9.33203 z m -104.18359,8.83008 c -11.96726,2.1492 -23.97828,4.79425 -35.67578,8.03906 l -3.58203,10.80859 c 1.58541,-0.58154 3.16971,-1.16532 4.75,-1.72265 l -1.14063,-2.11914 0.89063,-0.68555 0.12109,-0.0918 c 10e-4,-0.001 0.002,-0.003 0.004,-0.004 0.40577,-0.31141 0.83333,-0.59814 1.27148,-0.87109 0.0392,-0.0244 0.0739,-0.054 0.11328,-0.0781 0.18122,-0.11076 0.3779,-0.20232 0.56446,-0.30664 0.31197,-0.17461 0.61862,-0.3549 0.94531,-0.51172 0.5182,-0.24839 1.05519,-0.47575 1.60937,-0.67969 0.002,-7e-4 0.004,-0.001 0.006,-0.002 0.024,-0.009 0.0502,-0.0147 0.0742,-0.0234 0.53184,-0.19345 1.0772,-0.37052 1.64063,-0.52344 0.002,0 0.003,-0.002 0.004,-0.002 2.37026,-0.67 4.82157,-1.00391 7.33789,-1.00391 1.06074,0 2.06843,0.0714 3.03516,0.19727 0.50185,0.0632 0.96124,0.18256 1.4375,0.27929 0.36934,0.0763 0.76301,0.12083 1.11719,0.2168 5.22829,-1.57018 10.39631,-3.01926 15.47656,-4.34961 v -6.15625 z m -46.93359,11.39648 c -3.34391,1.06442 -6.6587,2.17063 -9.91797,3.3457 l 3.20508,9.71094 c 0.907,-0.3745 1.81403,-0.7707 2.7207,-1.13672 z m -18.8418,6.77344 c -0.12921,0.0524 -0.25758,0.1055 -0.38672,0.1582 l -4.66797,13.742188 c 2.79978,-1.330734 5.60389,-2.617775 8.41211,-3.863281 z m -11.93945,5.25195 c -0.8524,0.40803 -1.68999,0.82989 -2.53125,1.248048 l 1.0332,3.164062 z m -11.56836,6.048829 c -3.18368,1.946047 -6.26744,3.684327 -9.30078,5.304687 l 1.14843,1.09375 -0.93164,1.078125 c -1.9782,2.301196 -4.41946,4.0731 -7.26953,5.277344 -2.85297,1.205495 -6.01534,1.794922 -9.43554,1.794922 -1.22411,0 -2.41231,-0.102115 -3.58008,-0.257813 -17.61909,6.371781 -33.81404,8.353344 -52.06836,10.509766 32.11053,0 55.95481,1.346794 84.82226,-14.591797 z"
       transform="matrix(0.26458334,0,0,0.26458334,-237.26267,51.943354)" />
    <g
       id="g13854"
       style="fill:#fec224;fill-opacity:1">
      <path
         id="path13969"
         style="font-weight:600;font-size:14.8163px;line-height:1.25;font-family:Montserrat;-inkscape-font-specification:'Montserrat Semi-Bold';text-align:end;text-anchor:end;fill:#fec224;fill-opacity:1;stroke-width:2.33328"
         d="m 495.89844,-124.17383 v 41.552736 h 7 v -41.552736 z m 16.18359,0 v 41.552736 h 7 v -7.880859 l 5.20703,-4.925781 10.36133,12.80664 h 8.51172 l -13.6543,-17.373047 12.47852,-12.531249 h -8.40039 l -14.50391,13.412109 v -25.060549 z m -132.70312,1.79297 c -3.02393,0 -5.80515,0.50374 -8.34375,1.51172 -2.53859,0.97064 -4.76009,2.36993 -6.66407,4.19922 -1.90395,1.79196 -3.37853,3.92083 -4.42382,6.38476 -1.04532,2.46394 -1.56836,5.15253 -1.56836,8.06446 0,2.911924 0.52304,5.598557 1.56836,8.062497 1.04529,2.463939 2.50055,4.610167 4.36718,6.439453 1.90395,1.791957 4.12546,3.193197 6.66407,4.201172 2.57592,0.970643 5.35714,1.455078 8.34375,1.455078 3.24789,0 6.19704,-0.559715 8.84765,-1.679688 2.65061,-1.119972 4.89141,-2.743146 6.7207,-4.871093 l -4.70312,-4.480469 c -1.41863,1.56796 -3.00513,2.743361 -4.75977,3.527344 -1.7546,0.746648 -3.65959,1.121093 -5.71289,1.121094 -2.05329,-10e-7 -3.93895,-0.335828 -5.65625,-1.007813 -1.67995,-0.671982 -3.15453,-1.625452 -4.42382,-2.857422 -1.23198,-1.23197 -2.2028,-2.687228 -2.91211,-4.367187 -0.67198,-1.679957 -1.00782,-3.527016 -1.00782,-5.542966 0,-2.01596 0.33584,-3.86497 1.00782,-5.54492 0.70931,-1.67996 1.68013,-3.13522 2.91211,-4.36719 1.26929,-1.23197 2.74387,-2.18349 4.42382,-2.85547 1.7173,-0.67198 3.60296,-1.00977 5.65625,-1.00977 2.0533,0 3.95829,0.39376 5.71289,1.17774 1.75464,0.74665 3.34114,1.88539 4.75977,3.41601 l 4.70312,-4.42578 c -1.82929,-2.16528 -4.07009,-3.78845 -6.7207,-4.87109 -2.65061,-1.11997 -5.58043,-1.67969 -8.79101,-1.67969 z m -59.58203,0.56055 13.7539,19.1875 -14.53878,20.011716 h 8.28878 l 10.50977,-14.919922 10.6582,14.919922 h 8.39844 l -14.72266,-20.275386 13.71485,-18.92383 h -7.89454 l -9.90234,13.91992 -10.0332,-13.91992 z m 78.04882,0 12.99219,39.199216 h 7.7832 l 9.84766,-28.986326 9.69531,28.986326 h 7.72852 l 12.99219,-39.199216 h -6.94336 l -10.03907,29.972654 -9.89648,-29.972654 h -6.7207 l -10.12696,29.818357 -9.75195,-29.818357 z m 75.48633,8.95898 c -2.38926,0 -4.70341,0.31652 -6.94336,0.95117 -2.20261,0.59732 -4.1076,1.51217 -5.71289,2.74414 l 2.74414,5.09571 c 1.11998,-0.93331 2.4826,-1.66094 4.08789,-2.1836 1.64264,-0.52265 3.30443,-0.7832 4.98438,-0.7832 2.50126,0 4.36763,0.57902 5.59961,1.73633 1.23197,1.11997 1.84765,2.70648 1.84765,4.75976 v 0.44727 h -7.72656 c -3.02392,0 -5.45196,0.391801 -7.28125,1.175781 -1.82929,0.783983 -3.15329,1.847442 -3.97461,3.191407 -0.78397,1.343967 -1.17578,2.857149 -1.17578,4.537109 0,1.717291 0.44778,3.267139 1.34375,4.648437 0.93332,1.343968 2.23997,2.407427 3.91992,3.191407 1.67998,0.746648 3.63898,1.11914 5.87891,1.11914 2.65061,0 4.83544,-0.484435 6.55273,-1.455078 1.20859,-0.668574 2.16054,-1.523928 2.85547,-2.564453 v 3.628906 h 6.60742 v -17.529296 c 0,-4.33056 -1.19469,-7.52094 -3.58398,-9.57422 -2.35193,-2.09061 -5.69286,-3.13672 -10.02344,-3.13672 z m 86.10352,0 c -2.9866,0 -5.65587,0.65431 -8.00782,1.96094 -2.31461,1.30663 -4.14431,3.11703 -5.48828,5.43164 -1.30663,2.27728 -1.95898,4.90794 -1.95898,7.894531 0,2.949259 0.67166,5.581874 2.01562,7.896485 1.38131,2.31461 3.30364,4.144316 5.76758,5.488281 2.50128,1.306635 5.41375,1.958984 8.73633,1.958984 2.61327,0 4.92741,-0.409155 6.94336,-1.230469 2.05328,-0.858645 3.75174,-2.072665 5.0957,-3.640624 l -3.75195,-4.3125 c -1.04531,1.119972 -2.24002,1.94219 -3.58399,2.464843 -1.34396,0.522653 -2.85519,0.783203 -4.53515,0.783203 -1.94128,0 -3.65905,-0.372492 -5.15235,-1.11914 -1.49329,-0.746648 -2.64938,-1.812061 -3.4707,-3.19336 -0.51753,-0.870386 -0.87108,-1.822029 -1.0625,-2.855468 h 23.46094 c 0.0373,-0.335993 0.0566,-0.691129 0.0566,-1.064454 0.0373,-0.373324 0.0547,-0.709151 0.0547,-1.007812 0,-3.13592 -0.65235,-5.86117 -1.95899,-8.17578 -1.30663,-2.31461 -3.09772,-4.1057 -5.375,-5.375 -2.27727,-1.2693 -4.87323,-1.9043 -7.78515,-1.9043 z m 39.14257,0 c -2.87459,0 -5.28137,0.52305 -7.22265,1.56836 -1.41863,0.77886 -2.55698,1.8268 -3.41602,3.14453 v -4.37695 h -6.66406 v 29.904296 h 7 V -97.125 c 0,-3.06126 0.7836,-5.35804 2.35156,-6.88867 1.56797,-1.56796 3.67753,-2.35156 6.32813,-2.35156 0.26132,0 0.52187,0.0193 0.7832,0.0566 0.26133,0 0.54119,0.0367 0.83984,0.11132 z m -39.14257,5.59961 c 1.67995,0 3.15452,0.37445 4.42383,1.1211 1.30663,0.74664 2.33342,1.77344 3.08007,3.08007 0.52789,0.92379 0.86009,1.94907 0.9961,3.078128 h -17.01758 c 0.15323,-1.121398 0.47359,-2.129298 0.95898,-3.023438 0.74665,-1.34396 1.75414,-2.38812 3.02344,-3.13476 1.30664,-0.74665 2.81787,-1.1211 4.53516,-1.1211 z m -86.71875,11.816408 h 7.22265 v 3.470703 c -0.59731,1.530628 -1.58548,2.688676 -2.96679,3.472656 -1.34395,0.783982 -2.87451,1.175781 -4.5918,1.175781 -1.79195,0 -3.1932,-0.372492 -4.20117,-1.11914 -1.00798,-0.746649 -1.51172,-1.754134 -1.51172,-3.023438 0,-1.119972 0.41113,-2.054133 1.23242,-2.800781 0.82132,-0.78398 2.42712,-1.175781 4.81641,-1.175781 z"
         transform="matrix(0.26458334,0,0,0.26458334,-237.26267,51.943354)"
         sodipodi:nodetypes="ccccccccccccccccccsccsssccsscccscccscccsccccscccccccccccccccccccccccccccsccccscscsscsccsccccscssccsccscccsssscccsssscccccccscscccscsccccsscccssscs" />
    </g>
  </g>
</svg>
