<?xml version="1.0" encoding="UTF-8" standalone="no"?>
<!-- Created with Inkscape (http://www.inkscape.org/) -->

<svg
   width="512"
   height="512"
   viewBox="0 0 135.46667 135.46667"
   version="1.1"
   id="svg5"
   inkscape:version="1.1.2 (0a00cf5339, 2022-02-04, custom)"
   sodipodi:docname="Shuttle Seal - V.1.svg"
   xmlns:inkscape="http://www.inkscape.org/namespaces/inkscape"
   xmlns:sodipodi="http://sodipodi.sourceforge.net/DTD/sodipodi-0.dtd"
   xmlns="http://www.w3.org/2000/svg"
   xmlns:svg="http://www.w3.org/2000/svg">
  <sodipodi:namedview
     id="namedview7"
     pagecolor="#505050"
     bordercolor="#ffffff"
     borderopacity="1"
     inkscape:pageshadow="0"
     inkscape:pageopacity="0"
     inkscape:pagecheckerboard="1"
     inkscape:document-units="px"
     showgrid="false"
     inkscape:zoom="3.0429687"
     inkscape:cx="325.01156"
     inkscape:cy="262.24391"
     inkscape:window-width="1920"
     inkscape:window-height="1009"
     inkscape:window-x="-8"
     inkscape:window-y="-8"
     inkscape:window-maximized="1"
     inkscape:current-layer="layer1" />
  <defs
     id="defs2">
    <clipPath
       id="clipPath854"
       clipPathUnits="userSpaceOnUse">
      <path
         id="path856"
         d="m220.41 353.78c0.127 8.395-2.341 8.539-2.341 8.539h-2.786s-2.313-0.227-2.187-8.622l7.314 0.083" />
    </clipPath>
    <clipPath
       id="clipPath830"
       clipPathUnits="userSpaceOnUse">
      <path
         id="path832"
         clip-rule="evenodd"
         d="m72.5 499.91h227.51v-336.13h-227.51v336.13z" />
    </clipPath>
    <clipPath
       id="clipPath836"
       clipPathUnits="userSpaceOnUse">
      <path
         id="path838"
         d="m0 792h612v-792h-612v792z" />
    </clipPath>
    <clipPath
       id="clipPath842"
       clipPathUnits="userSpaceOnUse">
      <path
         id="path844"
         d="m0.06 792h612v-792h-612v792z" />
    </clipPath>
    <clipPath
       id="clipPath820"
       clipPathUnits="userSpaceOnUse">
      <path
         id="path822"
         d="m211.29 353.78c0.127 8.395-2.341 8.539-2.341 8.539h-2.786s-2.313-0.227-2.187-8.622l7.314 0.083" />
    </clipPath>
    <clipPath
       id="clipPath796"
       clipPathUnits="userSpaceOnUse">
      <path
         id="path798"
         clip-rule="evenodd"
         d="m72.5 499.91h227.51v-336.13h-227.51v336.13z" />
    </clipPath>
    <clipPath
       id="clipPath802"
       clipPathUnits="userSpaceOnUse">
      <path
         id="path804"
         d="m0 792h612v-792h-612v792z" />
    </clipPath>
    <clipPath
       id="clipPath808"
       clipPathUnits="userSpaceOnUse">
      <path
         id="path810"
         d="m0.06 792h612v-792h-612v792z" />
    </clipPath>
    <clipPath
       id="clipPath786"
       clipPathUnits="userSpaceOnUse">
      <path
         id="path788"
         d="m212.4 349.75s1.186 6.305 1.334 13.756-1.104 12.421-1.104 12.421h-1.037s-1.186-4.97-1.038-12.421 1.845-13.756 1.845-13.756" />
    </clipPath>
    <clipPath
       id="clipPath760"
       clipPathUnits="userSpaceOnUse">
      <path
         id="path762"
         clip-rule="evenodd"
         d="m72.5 499.91h227.51v-336.13h-227.51v336.13z" />
    </clipPath>
    <clipPath
       id="clipPath766"
       clipPathUnits="userSpaceOnUse">
      <path
         id="path768"
         d="m0 792h612v-792h-612v792z" />
    </clipPath>
    <clipPath
       id="clipPath772"
       clipPathUnits="userSpaceOnUse">
      <path
         id="path774"
         d="m0.06 792h612v-792h-612v792z" />
    </clipPath>
    <clipPath
       id="clipPath750"
       clipPathUnits="userSpaceOnUse">
      <path
         id="path752"
         d="m204.1 360.99 15.426-0.067-0.162 48.24s0.485 8.94-1.132 23.557c-0.855 7.722-4.009 13.491-6.498 13.7-2.49-0.209-5.482-5.978-6.337-13.7-1.617-14.617-1.132-23.557-1.132-23.557l-0.17-48.17" />
    </clipPath>
    <clipPath
       id="clipPath722"
       clipPathUnits="userSpaceOnUse">
      <path
         id="path724"
         clip-rule="evenodd"
         d="m72.5 499.91h227.51v-336.13h-227.51v336.13z" />
    </clipPath>
    <clipPath
       id="clipPath728"
       clipPathUnits="userSpaceOnUse">
      <path
         id="path730"
         d="m0 792h612v-792h-612v792z" />
    </clipPath>
    <clipPath
       id="clipPath734"
       clipPathUnits="userSpaceOnUse">
      <path
         id="path736"
         d="m0.06 792h612v-792h-612v792z" />
    </clipPath>
    <clipPath
       id="clipPath708"
       clipPathUnits="userSpaceOnUse">
      <path
         id="path710"
         d="m204.69 425.61s-2.668-21.73-9.714-32.63-14.484-12.325-15.87-21.872c-0.297-2.043-0.445-4.157-0.445-4.157l25.584-6.117 1.818 63.886-1.373 0.89" />
    </clipPath>
    <clipPath
       id="clipPath684"
       clipPathUnits="userSpaceOnUse">
      <path
         id="path686"
         clip-rule="evenodd"
         d="m72.5 499.91h227.51v-336.13h-227.51v336.13z" />
    </clipPath>
    <clipPath
       id="clipPath690"
       clipPathUnits="userSpaceOnUse">
      <path
         id="path692"
         d="m0 792h612v-792h-612v792z" />
    </clipPath>
    <clipPath
       id="clipPath696"
       clipPathUnits="userSpaceOnUse">
      <path
         id="path698"
         d="m0.06 792h612v-792h-612v792z" />
    </clipPath>
    <clipPath
       id="clipPath672"
       clipPathUnits="userSpaceOnUse">
      <path
         id="path674"
         d="m186.9 347.49h13.459l-1.45 5.415s-0.016 91.334-0.016 92.532 0 2.935-0.31 3.962-2.967 9.407-3.367 10.605c-0.399 1.198-0.712 1.565-1.739 1.565s-1.337-0.367-1.736-1.565c-0.4-1.198-3.367-10.605-3.367-10.605-0.31-1.027-0.31-2.764-0.31-3.962v-92.532l-1.164-5.415" />
    </clipPath>
    <clipPath
       id="clipPath648"
       clipPathUnits="userSpaceOnUse">
      <path
         id="path650"
         clip-rule="evenodd"
         d="m72.5 499.91h227.51v-336.13h-227.51v336.13z" />
    </clipPath>
    <clipPath
       id="clipPath654"
       clipPathUnits="userSpaceOnUse">
      <path
         id="path656"
         d="m0 792h612v-792h-612v792z" />
    </clipPath>
    <clipPath
       id="clipPath660"
       clipPathUnits="userSpaceOnUse">
      <path
         id="path662"
         d="m0.06 792h612v-792h-612v792z" />
    </clipPath>
    <clipPath
       id="clipPath638"
       clipPathUnits="userSpaceOnUse">
      <path
         id="path640"
         d="m199.47 342.41c-0.748 9.305-3.562 9.457-3.562 9.457h-4.5s-2.612-0.295-3.322-9.457h11.384" />
    </clipPath>
    <clipPath
       id="clipPath606"
       clipPathUnits="userSpaceOnUse">
      <path
         id="path608"
         clip-rule="evenodd"
         d="m72.5 499.91h227.51v-336.13h-227.51v336.13z" />
    </clipPath>
    <clipPath
       id="clipPath612"
       clipPathUnits="userSpaceOnUse">
      <path
         id="path614"
         d="m0 792h612v-792h-612v792z" />
    </clipPath>
    <clipPath
       id="clipPath618"
       clipPathUnits="userSpaceOnUse">
      <path
         id="path620"
         d="m0.06 792h612v-792h-612v792z" />
    </clipPath>
    <clipPath
       id="clipPath592"
       clipPathUnits="userSpaceOnUse">
      <path
         id="path594"
         d="m218.78 425.61s2.669-21.73 9.714-32.63c7.046-10.9 14.485-12.325 15.87-21.872 0.297-2.043 0.445-4.157 0.445-4.157l-25.584-6.117-1.818 63.886 1.373 0.89" />
    </clipPath>
    <clipPath
       id="clipPath568"
       clipPathUnits="userSpaceOnUse">
      <path
         id="path570"
         clip-rule="evenodd"
         d="m72.5 499.91h227.51v-336.13h-227.51v336.13z" />
    </clipPath>
    <clipPath
       id="clipPath574"
       clipPathUnits="userSpaceOnUse">
      <path
         id="path576"
         d="m0 792h612v-792h-612v792z" />
    </clipPath>
    <clipPath
       id="clipPath580"
       clipPathUnits="userSpaceOnUse">
      <path
         id="path582"
         d="m0.06 792h612v-792h-612v792z" />
    </clipPath>
    <clipPath
       id="clipPath556"
       clipPathUnits="userSpaceOnUse">
      <path
         id="path558"
         d="m236.03 347.49h-13.459l1.449 5.415s0.017 91.334 0.017 92.532 0 2.935 0.31 3.962 2.967 9.407 3.366 10.605c0.4 1.198 0.712 1.565 1.739 1.565s1.338-0.367 1.737-1.565 3.366-10.605 3.366-10.605c0.31-1.027 0.31-2.764 0.31-3.962v-92.532l1.165-5.415" />
    </clipPath>
    <clipPath
       id="clipPath532"
       clipPathUnits="userSpaceOnUse">
      <path
         id="path534"
         clip-rule="evenodd"
         d="m72.5 499.91h227.51v-336.13h-227.51v336.13z" />
    </clipPath>
    <clipPath
       id="clipPath538"
       clipPathUnits="userSpaceOnUse">
      <path
         id="path540"
         d="m0 792h612v-792h-612v792z" />
    </clipPath>
    <clipPath
       id="clipPath544"
       clipPathUnits="userSpaceOnUse">
      <path
         id="path546"
         d="m0.06 792h612v-792h-612v792z" />
    </clipPath>
    <clipPath
       id="clipPath522"
       clipPathUnits="userSpaceOnUse">
      <path
         id="path524"
         d="m223.46 342.41c0.748 9.305 3.562 9.457 3.562 9.457h4.5s2.612-0.295 3.322-9.457h-11.384" />
    </clipPath>
  </defs>
  <g
     inkscape:label="Background"
     inkscape:groupmode="layer"
     id="layer1">
    <circle
       style="fill:#ae1f25;fill-opacity:1;stroke:none;stroke-width:1.32292;stroke-linecap:square;stroke-miterlimit:5;stroke-dashoffset:9.44882"
       id="path846"
       cx="67.733337"
       cy="67.733337"
       r="67.733337" />
    <circle
       style="fill:#000d2d;fill-opacity:1;stroke:none;stroke-width:1.26518;stroke-linecap:square;stroke-miterlimit:5;stroke-dashoffset:9.44882"
       id="path846-8"
       cx="67.733337"
       cy="67.733337"
       r="64.777069" />
    <path
       style="color:#000000;fill:#000d2d;stroke-width:2.64583;stroke-linecap:square;stroke-miterlimit:5;stroke-dashoffset:9.44882;-inkscape-stroke:none;fill-opacity:1"
       d="M 117.05581,67.733337 A 49.322472,49.322472 0 0 1 67.733337,117.05581 49.322472,49.322472 0 0 1 18.410866,67.733337 49.322472,49.322472 0 0 1 67.733337,18.410866 49.322472,49.322472 0 0 1 117.05581,67.733337 Z"
       id="path4273" />
    <path
       id="path1195"
       style="color:#000000;fill:#ae1f25;stroke-width:18;stroke-linecap:square;stroke-miterlimit:5;stroke-dashoffset:9.44882;-inkscape-stroke:none"
       d="M 220.13477 307.66992 C 220.13477 329.53359 215.66372 350.94412 206.67773 367.66211 C 197.69175 384.38008 184.6533 396.38425 166.16602 401.33789 L 140.47656 408.21875 L 165.06641 418.35352 C 165.06641 418.35352 196.02304 431.10783 217.11523 440.04883 L 224.44727 443.15039 L 228.42578 436.26172 C 237.50154 420.54206 239.25999 400.03695 239.51367 377.5918 C 239.76735 355.14666 238.13281 330.63235 238.13281 307.66992 L 220.13477 307.66992 z "
       transform="scale(0.26458334)" />
    <path
       id="path4637"
       style="fill:#ffffff;fill-opacity:1;stroke:none;stroke-width:0.264583;stroke-linecap:square;stroke-miterlimit:4;stroke-dasharray:none;stroke-dashoffset:9.44882;stroke-opacity:1"
       d="M 27.176216,39.683886 A 49.322473,49.322473 0 0 0 18.410866,67.733337 49.322473,49.322473 0 0 0 27.176735,95.78279 29.38879,29.38879 0 0 0 47.799765,67.733337 29.38879,29.38879 0 0 0 27.176216,39.683886 Z" />
    <path
       id="path1204"
       style="color:#000000;fill:#ae1f25;stroke-width:18;stroke-linecap:square;stroke-miterlimit:5;stroke-dashoffset:9.44882;-inkscape-stroke:none"
       d="M 273.05664 307.66992 C 273.05664 330.63235 271.4221 355.14666 271.67578 377.5918 C 271.92946 400.03695 273.69572 420.54206 282.77148 436.26172 L 286.75 443.15039 L 294.07227 440.04883 C 315.16446 431.10783 346.12891 418.35352 346.12891 418.35352 L 370.71875 408.21875 L 345.0293 401.33789 C 326.54201 396.38425 313.50357 384.38008 304.51758 367.66211 C 295.53159 350.94412 291.06055 329.53359 291.06055 307.66992 L 273.05664 307.66992 z "
       transform="scale(0.26458334)" />
    <path
       id="path4637-0"
       style="fill:#ffffff;fill-opacity:1;stroke:none;stroke-width:0.264583;stroke-linecap:square;stroke-miterlimit:4;stroke-dasharray:none;stroke-dashoffset:9.44882;stroke-opacity:1"
       d="M 108.29045,39.683886 A 49.322473,49.322473 0 0 1 117.05581,67.733337 49.322473,49.322473 0 0 1 108.28993,95.78279 29.38879,29.38879 0 0 1 87.666904,67.733337 29.38879,29.38879 0 0 1 108.29045,39.683886 Z" />
    <path
       style="color:#000000;fill:#ae1f25;stroke-linecap:square;stroke-miterlimit:5;stroke-dashoffset:9.44882;-inkscape-stroke:none;fill-opacity:1"
       d="m 67.732422,17.087891 c -27.954978,0 -50.644531,22.689553 -50.644531,50.644531 0,27.954978 22.689553,50.646488 50.644531,50.646488 27.954978,0 50.646488,-22.69151 50.646488,-50.646488 0,-27.954978 -22.69151,-50.644531 -50.646488,-50.644531 z m 0,2.646484 c 26.525065,0 47.999998,21.472982 47.999998,47.998047 0,26.525065 -21.474933,47.999998 -47.999998,47.999998 -26.525065,0 -47.998047,-21.474933 -47.998047,-47.999998 0,-26.525065 21.472982,-47.998047 47.998047,-47.998047 z"
       id="path4275" />
    <g
       id="layer1-2"
       transform="matrix(0.1496665,0,0,0.1496665,7.2325472,-62.800041)"
       style="stroke:#1e1e1e;stroke-opacity:1;stroke-width:1.76781938;stroke-miterlimit:4;stroke-dasharray:none">
      <path
         id="path514"
         d="m 369.02,871.35 0.71917,-166.17 c 0,0 -2.1602,-30.795 5.0395,-81.148 3.8021,-26.602 17.837,-46.471 28.915,-47.193 11.078,0.72182 24.394,20.592 28.196,47.193 7.1997,50.353 5.0395,81.148 5.0395,81.148 l 0.71918,166.17 h -68.628 z"
         stroke="#231f20"
         stroke-miterlimit="3.864"
         stroke-width="1.3855"
         fill="#bdbcbc"
         style="stroke:#1e1e1e;stroke-opacity:1;stroke-width:1.76781938;stroke-miterlimit:4;stroke-dasharray:none" />
      <path
         id="path516"
         d="m 435.24,963.27 c 1.9777,-24.603 9.418,-25.005 9.418,-25.005 h 11.898 c 0,0 6.9062,0.77999 8.7834,25.005 h -30.1"
         fill="#7b7979"
         style="stroke:#1e1e1e;stroke-opacity:1;stroke-width:1.76781938;stroke-miterlimit:4;stroke-dasharray:none" />
      <g
         id="g518"
         transform="matrix(2.644,0,0,-2.644,-155.59,1868.6)"
         style="stroke:#1e1e1e;stroke-opacity:1;stroke-width:0.6686155;stroke-miterlimit:4;stroke-dasharray:none">
        <g
           id="g520"
           clip-path="url(#clipPath522)"
           style="stroke:#1e1e1e;stroke-opacity:1;stroke-width:0.6686155;stroke-miterlimit:4;stroke-dasharray:none">
          <path
             id="path526"
             d="m 229.43,348.27 v -7.194 m -2.52,7.49 -0.632,-7.194 m 5.573,7.046 0.632,-7.194"
             stroke="#231f20"
             stroke-miterlimit="3.864"
             stroke-width="0.524"
             fill="none"
             style="stroke:#1e1e1e;stroke-opacity:1;stroke-width:0.6686155;stroke-miterlimit:4;stroke-dasharray:none" />
        </g>
      </g>
      <g
         id="g528"
         transform="matrix(2.644,0,0,-2.644,-155.59,1868.6)"
         style="stroke:#1e1e1e;stroke-opacity:1;stroke-width:0.6686155;stroke-miterlimit:4;stroke-dasharray:none">
        <g
           id="g530"
           clip-path="url(#clipPath532)"
           style="stroke:#1e1e1e;stroke-opacity:1;stroke-width:0.6686155;stroke-miterlimit:4;stroke-dasharray:none">
          <g
             id="g536"
             clip-path="url(#clipPath538)"
             style="stroke:#1e1e1e;stroke-opacity:1;stroke-width:0.6686155;stroke-miterlimit:4;stroke-dasharray:none">
            <g
               id="g542"
               clip-path="url(#clipPath544)"
               style="stroke:#1e1e1e;stroke-opacity:1;stroke-width:0.6686155;stroke-miterlimit:4;stroke-dasharray:none">
              <path
                 id="path548"
                 d="m 223.46,342.41 c 0.748,9.305 3.562,9.457 3.562,9.457 h 4.5 c 0,0 2.612,-0.295 3.322,-9.457 z"
                 stroke="#231f20"
                 stroke-miterlimit="3.864"
                 stroke-width="0.612"
                 fill="none"
                 style="stroke:#1e1e1e;stroke-opacity:1;stroke-width:0.6686155;stroke-miterlimit:4;stroke-dasharray:none" />
              <path
                 id="path550"
                 d="m 236.03,347.49 h -13.459 l 1.449,5.415 c 0,0 0.017,91.334 0.017,92.532 0,1.198 0,2.935 0.31,3.962 0.31,1.027 2.967,9.407 3.366,10.605 0.4,1.198 0.712,1.565 1.739,1.565 1.027,0 1.338,-0.367 1.737,-1.565 0.399,-1.198 3.366,-10.605 3.366,-10.605 0.31,-1.027 0.31,-2.764 0.31,-3.962 v -92.532 l 1.165,-5.415"
                 fill="#e2e2e2"
                 style="stroke:#1e1e1e;stroke-opacity:1;stroke-width:0.6686155;stroke-miterlimit:4;stroke-dasharray:none" />
            </g>
          </g>
        </g>
      </g>
      <g
         id="g552"
         transform="matrix(2.644,0,0,-2.644,-155.59,1868.6)"
         style="stroke:#1e1e1e;stroke-opacity:1;stroke-width:0.6686155;stroke-miterlimit:4;stroke-dasharray:none">
        <g
           id="g554"
           stroke-width="0.524"
           stroke-miterlimit="3.864"
           clip-path="url(#clipPath556)"
           style="stroke:#1e1e1e;stroke-opacity:1;stroke-width:0.6686155;stroke-miterlimit:4;stroke-dasharray:none">
          <path
             id="path560"
             d="m 227.93,352.01 0.016,93.957 c 0,0 -0.139,-0.334 0,2.076 0.127,2.178 0.507,6.876 0.965,11.046 -0.825,-2.571 -2.569,-9.803 -2.569,-9.803 -0.077,-0.267 -0.142,-0.74 -0.178,-1.4 -0.037,-0.673 -0.036,-1.366 -0.036,-1.931 V 352.01 l -0.889,-4.97 c 0,0 2.691,1.521 2.691,4.97 z"
             stroke="#d3d2d2"
             fill="#d3d2d2"
             style="stroke:#1e1e1e;stroke-opacity:1;stroke-width:0.6686155;stroke-miterlimit:4;stroke-dasharray:none" />
          <path
             id="path562"
             d="m 235.58,360.69 h -12.718 m 12.866,-3.262 H 223.01 m 12.718,-5.563 H 223.01"
             stroke="#7b7979"
             fill="none"
             style="stroke:#1e1e1e;stroke-opacity:1;stroke-width:0.6686155;stroke-miterlimit:4;stroke-dasharray:none" />
        </g>
      </g>
      <g
         id="g564"
         transform="matrix(2.644,0,0,-2.644,-155.59,1868.6)"
         style="stroke:#1e1e1e;stroke-opacity:1;stroke-width:0.6686155;stroke-miterlimit:4;stroke-dasharray:none">
        <g
           id="g566"
           clip-path="url(#clipPath568)"
           style="stroke:#1e1e1e;stroke-opacity:1;stroke-width:0.6686155;stroke-miterlimit:4;stroke-dasharray:none">
          <g
             id="g572"
             clip-path="url(#clipPath574)"
             style="stroke:#1e1e1e;stroke-opacity:1;stroke-width:0.6686155;stroke-miterlimit:4;stroke-dasharray:none">
            <g
               id="g578"
               clip-path="url(#clipPath580)"
               style="stroke:#1e1e1e;stroke-opacity:1;stroke-width:0.6686155;stroke-miterlimit:4;stroke-dasharray:none">
              <path
                 id="path584"
                 d="m 236.03,347.49 h -13.459 l 1.449,5.415 c 0,0 0.017,91.334 0.017,92.532 0,1.198 0,2.935 0.31,3.962 0.31,1.027 2.967,9.407 3.366,10.605 0.4,1.198 0.712,1.565 1.739,1.565 1.027,0 1.338,-0.367 1.737,-1.565 0.399,-1.198 3.366,-10.605 3.366,-10.605 0.31,-1.027 0.31,-2.764 0.31,-3.962 v -92.532 z"
                 stroke="#231f20"
                 stroke-miterlimit="3.864"
                 stroke-width="0.524"
                 fill="none"
                 style="stroke:#1e1e1e;stroke-opacity:1;stroke-width:0.6686155;stroke-miterlimit:4;stroke-dasharray:none" />
              <path
                 id="path586"
                 d="m 218.78,425.61 c 0,0 2.669,-21.73 9.714,-32.63 7.046,-10.9 14.485,-12.325 15.87,-21.872 0.297,-2.043 0.445,-4.157 0.445,-4.157 l -25.584,-6.117 -1.818,63.886 1.373,0.89"
                 fill="#ffffff"
                 style="stroke:#1e1e1e;stroke-opacity:1;stroke-width:0.6686155;stroke-miterlimit:4;stroke-dasharray:none" />
            </g>
          </g>
        </g>
      </g>
      <g
         id="g588"
         transform="matrix(2.644,0,0,-2.644,-155.59,1868.6)"
         style="stroke:#1e1e1e;stroke-opacity:1;stroke-width:0.6686155;stroke-miterlimit:4;stroke-dasharray:none">
        <g
           id="g590"
           clip-path="url(#clipPath592)"
           style="stroke:#1e1e1e;stroke-opacity:1;stroke-width:0.6686155;stroke-miterlimit:4;stroke-dasharray:none">
          <path
             id="path596"
             d="m 220.56,359.02 25.14,4.19 v 13.162 l -15.722,19.251 h -4.347 c 1.867,-3.637 4.205,-7.064 7.168,-10.21 5.984,-6.354 9.706,-7.58 10.613,-17.446 l -22.923,-5.481 0.071,-3.466"
             fill="#231f20"
             style="stroke:#1e1e1e;stroke-opacity:1;stroke-width:0.6686155;stroke-miterlimit:4;stroke-dasharray:none" />
          <path
             id="path598"
             d="m 219.52,372.33 h 26.029 v -2.224 l -25.881,-2.263 -0.148,4.487"
             fill="#231f20"
             style="stroke:#1e1e1e;stroke-opacity:1;stroke-width:0.6686155;stroke-miterlimit:4;stroke-dasharray:none" />
          <path
             id="path600"
             d="M 228.64,395.69 H 217.405"
             stroke="#231f20"
             stroke-miterlimit="3.864"
             stroke-width="0.262"
             fill="none"
             style="stroke:#1e1e1e;stroke-opacity:1;stroke-width:0.6686155;stroke-miterlimit:4;stroke-dasharray:none" />
        </g>
      </g>
      <g
         id="g602"
         transform="matrix(2.644,0,0,-2.644,-155.59,1868.6)"
         style="stroke:#1e1e1e;stroke-opacity:1;stroke-width:0.6686155;stroke-miterlimit:4;stroke-dasharray:none">
        <g
           id="g604"
           clip-path="url(#clipPath606)"
           style="stroke:#1e1e1e;stroke-opacity:1;stroke-width:0.6686155;stroke-miterlimit:4;stroke-dasharray:none">
          <g
             id="g610"
             clip-path="url(#clipPath612)"
             style="stroke:#1e1e1e;stroke-opacity:1;stroke-width:0.6686155;stroke-miterlimit:4;stroke-dasharray:none">
            <g
               id="g616"
               clip-path="url(#clipPath618)"
               style="stroke:#1e1e1e;stroke-opacity:1;stroke-width:0.6686155;stroke-miterlimit:4;stroke-dasharray:none">
              <path
                 id="path622"
                 d="m 218.78,425.61 c 0,0 2.669,-21.73 9.714,-32.63 7.046,-10.9 14.485,-12.325 15.87,-21.872 0.297,-2.043 0.445,-4.157 0.445,-4.157 l -25.584,-6.117 -1.818,63.886 z"
                 stroke="#231f20"
                 stroke-miterlimit="3.864"
                 stroke-width="0.524"
                 fill="none"
                 style="stroke:#1e1e1e;stroke-opacity:1;stroke-width:0.6686155;stroke-miterlimit:4;stroke-dasharray:none" />
              <path
                 id="path624"
                 d="m 231.39,456.28 h -3.893 m 6.117,-8.38 h -8.38 m 8.38,-7.452 h -8.38 m 8.38,-11.532 h -8.38 m 8.38,-20.801 h -8.38"
                 stroke="#231f20"
                 stroke-miterlimit="3.864"
                 stroke-width="0.524"
                 fill="none"
                 style="stroke:#1e1e1e;stroke-opacity:1;stroke-width:0.6686155;stroke-miterlimit:4;stroke-dasharray:none" />
              <path
                 id="path626"
                 d="m 232.28,394.5 h 1.334 v -4.486 h -1.334 z"
                 fill="#231f20"
                 style="stroke:#1e1e1e;stroke-opacity:1;stroke-width:0.6686155;stroke-miterlimit:4;stroke-dasharray:none" />
              <path
                 id="path628"
                 d="m 232.43,364.4 v 6.717"
                 stroke="#231f20"
                 stroke-miterlimit="3.864"
                 stroke-width="0.524"
                 fill="none"
                 style="stroke:#1e1e1e;stroke-opacity:1;stroke-width:0.6686155;stroke-miterlimit:4;stroke-dasharray:none" />
              <path
                 id="path630"
                 d="m 232.43,370.26 v 2.428"
                 stroke="#ffffff"
                 stroke-miterlimit="3.864"
                 stroke-width="0.524"
                 fill="none"
                 style="stroke:#1e1e1e;stroke-opacity:1;stroke-width:0.6686155;stroke-miterlimit:4;stroke-dasharray:none" />
              <path
                 id="path632"
                 d="m 199.47,342.41 c -0.748,9.305 -3.562,9.457 -3.562,9.457 h -4.5 c 0,0 -2.612,-0.295 -3.322,-9.457 h 11.384"
                 fill="#7b7979"
                 style="stroke:#1e1e1e;stroke-opacity:1;stroke-width:0.6686155;stroke-miterlimit:4;stroke-dasharray:none" />
            </g>
          </g>
        </g>
      </g>
      <g
         id="g634"
         transform="matrix(2.644,0,0,-2.644,-155.59,1868.6)"
         style="stroke:#1e1e1e;stroke-opacity:1;stroke-width:0.6686155;stroke-miterlimit:4;stroke-dasharray:none">
        <g
           id="g636"
           clip-path="url(#clipPath638)"
           style="stroke:#1e1e1e;stroke-opacity:1;stroke-width:0.6686155;stroke-miterlimit:4;stroke-dasharray:none">
          <path
             id="path642"
             d="m 193.5,348.27 v -7.194 m 2.52,7.49 0.632,-7.194 m -5.573,7.046 -0.632,-7.194"
             stroke="#231f20"
             stroke-miterlimit="3.864"
             stroke-width="0.524"
             fill="none"
             style="stroke:#1e1e1e;stroke-opacity:1;stroke-width:0.6686155;stroke-miterlimit:4;stroke-dasharray:none" />
        </g>
      </g>
      <g
         id="g644"
         transform="matrix(2.644,0,0,-2.644,-155.59,1868.6)"
         style="stroke:#1e1e1e;stroke-opacity:1;stroke-width:0.6686155;stroke-miterlimit:4;stroke-dasharray:none">
        <g
           id="g646"
           clip-path="url(#clipPath648)"
           style="stroke:#1e1e1e;stroke-opacity:1;stroke-width:0.6686155;stroke-miterlimit:4;stroke-dasharray:none">
          <g
             id="g652"
             clip-path="url(#clipPath654)"
             style="stroke:#1e1e1e;stroke-opacity:1;stroke-width:0.6686155;stroke-miterlimit:4;stroke-dasharray:none">
            <g
               id="g658"
               clip-path="url(#clipPath660)"
               style="stroke:#1e1e1e;stroke-opacity:1;stroke-width:0.6686155;stroke-miterlimit:4;stroke-dasharray:none">
              <path
                 id="path664"
                 d="m 199.47,342.41 c -0.748,9.305 -3.562,9.457 -3.562,9.457 h -4.5 c 0,0 -2.612,-0.295 -3.322,-9.457 z"
                 stroke="#231f20"
                 stroke-miterlimit="3.864"
                 stroke-width="0.612"
                 fill="none"
                 style="stroke:#1e1e1e;stroke-opacity:1;stroke-width:0.6686155;stroke-miterlimit:4;stroke-dasharray:none" />
              <path
                 id="path666"
                 d="m 186.9,347.49 h 13.459 l -1.45,5.415 c 0,0 -0.016,91.334 -0.016,92.532 0,1.198 0,2.935 -0.31,3.962 -0.31,1.027 -2.967,9.407 -3.367,10.605 -0.399,1.198 -0.712,1.565 -1.739,1.565 -1.027,0 -1.337,-0.367 -1.736,-1.565 -0.4,-1.198 -3.367,-10.605 -3.367,-10.605 -0.31,-1.027 -0.31,-2.764 -0.31,-3.962 V 352.905 L 186.9,347.49"
                 fill="#e2e2e2"
                 style="stroke:#1e1e1e;stroke-opacity:1;stroke-width:0.6686155;stroke-miterlimit:4;stroke-dasharray:none" />
            </g>
          </g>
        </g>
      </g>
      <g
         id="g668"
         transform="matrix(2.644,0,0,-2.644,-155.59,1868.6)"
         style="stroke:#1e1e1e;stroke-opacity:1;stroke-width:0.6686155;stroke-miterlimit:4;stroke-dasharray:none">
        <g
           id="g670"
           stroke-width="0.524"
           stroke-miterlimit="3.864"
           clip-path="url(#clipPath672)"
           style="stroke:#1e1e1e;stroke-opacity:1;stroke-width:0.6686155;stroke-miterlimit:4;stroke-dasharray:none">
          <path
             id="path676"
             d="m 195,352.01 -0.017,93.957 c 0,0 0.14,-0.334 0,2.076 -0.126,2.178 -0.506,6.876 -0.964,11.046 0.825,-2.571 2.569,-9.803 2.569,-9.803 0.076,-0.267 0.142,-0.74 0.177,-1.4 0.037,-0.673 0.036,-1.366 0.036,-1.931 V 352.01 l 0.89,-4.97 c 0,0 -2.691,1.521 -2.691,4.97 z"
             stroke="#d3d2d2"
             fill="#d3d2d2"
             style="stroke:#1e1e1e;stroke-opacity:1;stroke-width:0.6686155;stroke-miterlimit:4;stroke-dasharray:none" />
          <path
             id="path678"
             d="m 187.34,360.69 h 12.719 m -12.867,-3.262 h 12.718 m -12.718,-5.563 h 12.718"
             stroke="#7b7979"
             fill="none"
             style="stroke:#1e1e1e;stroke-opacity:1;stroke-width:0.6686155;stroke-miterlimit:4;stroke-dasharray:none" />
        </g>
      </g>
      <g
         id="g680"
         transform="matrix(2.644,0,0,-2.644,-155.59,1868.6)"
         style="stroke:#1e1e1e;stroke-opacity:1;stroke-width:0.6686155;stroke-miterlimit:4;stroke-dasharray:none">
        <g
           id="g682"
           clip-path="url(#clipPath684)"
           style="stroke:#1e1e1e;stroke-opacity:1;stroke-width:0.6686155;stroke-miterlimit:4;stroke-dasharray:none">
          <g
             id="g688"
             clip-path="url(#clipPath690)"
             style="stroke:#1e1e1e;stroke-opacity:1;stroke-width:0.6686155;stroke-miterlimit:4;stroke-dasharray:none">
            <g
               id="g694"
               clip-path="url(#clipPath696)"
               style="stroke:#1e1e1e;stroke-opacity:1;stroke-width:0.6686155;stroke-miterlimit:4;stroke-dasharray:none">
              <path
                 id="path700"
                 d="m 186.9,347.49 h 13.459 l -1.45,5.415 c 0,0 -0.016,91.334 -0.016,92.532 0,1.198 0,2.935 -0.31,3.962 -0.31,1.027 -2.967,9.407 -3.367,10.605 -0.399,1.198 -0.712,1.565 -1.739,1.565 -1.027,0 -1.337,-0.367 -1.736,-1.565 -0.4,-1.198 -3.367,-10.605 -3.367,-10.605 -0.31,-1.027 -0.31,-2.764 -0.31,-3.962 v -92.532 z"
                 stroke="#231f20"
                 stroke-miterlimit="3.864"
                 stroke-width="0.524"
                 fill="none"
                 style="stroke:#1e1e1e;stroke-opacity:1;stroke-width:0.6686155;stroke-miterlimit:4;stroke-dasharray:none" />
              <path
                 id="path702"
                 d="m 204.69,425.61 c 0,0 -2.668,-21.73 -9.714,-32.63 -7.046,-10.9 -14.484,-12.325 -15.87,-21.872 -0.297,-2.043 -0.445,-4.157 -0.445,-4.157 l 25.584,-6.117 1.818,63.886 -1.373,0.89"
                 fill="#ffffff"
                 style="stroke:#1e1e1e;stroke-opacity:1;stroke-width:0.6686155;stroke-miterlimit:4;stroke-dasharray:none" />
            </g>
          </g>
        </g>
      </g>
      <g
         id="g704"
         transform="matrix(2.644,0,0,-2.644,-155.59,1868.6)"
         style="stroke:#1e1e1e;stroke-opacity:1;stroke-width:0.6686155;stroke-miterlimit:4;stroke-dasharray:none">
        <g
           id="g706"
           clip-path="url(#clipPath708)"
           style="stroke:#1e1e1e;stroke-opacity:1;stroke-width:0.6686155;stroke-miterlimit:4;stroke-dasharray:none">
          <path
             id="path712"
             d="m 202.91,359.02 -25.139,4.19 v 13.162 l 15.722,19.251 h 4.346 c -1.866,-3.637 -4.205,-7.064 -7.168,-10.21 -5.983,-6.354 -9.705,-7.58 -10.613,-17.446 l 22.923,-5.481 -0.071,-3.466"
             fill="#231f20"
             style="stroke:#1e1e1e;stroke-opacity:1;stroke-width:0.6686155;stroke-miterlimit:4;stroke-dasharray:none" />
          <path
             id="path714"
             d="m 203.95,372.33 h -26.029 v -2.224 l 25.881,-2.263 0.148,4.487"
             fill="#231f20"
             style="stroke:#1e1e1e;stroke-opacity:1;stroke-width:0.6686155;stroke-miterlimit:4;stroke-dasharray:none" />
          <path
             id="path716"
             d="m 194.83,395.69 h 11.235"
             stroke="#231f20"
             stroke-miterlimit="3.864"
             stroke-width="0.262"
             fill="none"
             style="stroke:#1e1e1e;stroke-opacity:1;stroke-width:0.6686155;stroke-miterlimit:4;stroke-dasharray:none" />
        </g>
      </g>
      <g
         id="g718"
         transform="matrix(2.644,0,0,-2.644,-155.59,1868.6)"
         style="stroke:#1e1e1e;stroke-opacity:1;stroke-width:0.6686155;stroke-miterlimit:4;stroke-dasharray:none">
        <g
           id="g720"
           clip-path="url(#clipPath722)"
           style="stroke:#1e1e1e;stroke-opacity:1;stroke-width:0.6686155;stroke-miterlimit:4;stroke-dasharray:none">
          <g
             id="g726"
             clip-path="url(#clipPath728)"
             style="stroke:#1e1e1e;stroke-opacity:1;stroke-width:0.6686155;stroke-miterlimit:4;stroke-dasharray:none">
            <g
               id="g732"
               clip-path="url(#clipPath734)"
               style="stroke:#1e1e1e;stroke-opacity:1;stroke-width:0.6686155;stroke-miterlimit:4;stroke-dasharray:none">
              <path
                 id="path738"
                 d="m 204.69,425.61 c 0,0 -2.668,-21.73 -9.714,-32.63 -7.046,-10.9 -14.484,-12.325 -15.87,-21.872 -0.297,-2.043 -0.445,-4.157 -0.445,-4.157 l 25.584,-6.117 1.818,63.886 z"
                 stroke="#231f20"
                 stroke-miterlimit="3.864"
                 stroke-width="0.524"
                 fill="none"
                 style="stroke:#1e1e1e;stroke-opacity:1;stroke-width:0.6686155;stroke-miterlimit:4;stroke-dasharray:none" />
              <path
                 id="path740"
                 d="m 191.53,456.28 h 3.894 m -6.117,-8.38 h 8.38 m -8.38,-7.452 h 8.38 m -8.38,-11.532 h 8.38 m -8.38,-20.801 h 8.38"
                 stroke="#231f20"
                 stroke-miterlimit="3.864"
                 stroke-width="0.524"
                 fill="none"
                 style="stroke:#1e1e1e;stroke-opacity:1;stroke-width:0.6686155;stroke-miterlimit:4;stroke-dasharray:none" />
              <path
                 id="path742"
                 d="m 189.31,394.5 h 1.334 v -4.486 h -1.334 z"
                 fill="#231f20"
                 style="stroke:#1e1e1e;stroke-opacity:1;stroke-width:0.6686155;stroke-miterlimit:4;stroke-dasharray:none" />
              <path
                 id="path744"
                 d="m 204.1,360.99 15.426,-0.067 -0.162,48.24 c 0,0 0.485,8.94 -1.132,23.557 -0.855,7.722 -4.009,13.491 -6.498,13.7 -2.49,-0.209 -5.482,-5.978 -6.337,-13.7 -1.617,-14.617 -1.132,-23.557 -1.132,-23.557 l -0.17,-48.17"
                 fill="#ffffff"
                 style="stroke:#1e1e1e;stroke-opacity:1;stroke-width:0.6686155;stroke-miterlimit:4;stroke-dasharray:none" />
            </g>
          </g>
        </g>
      </g>
      <g
         id="g746"
         transform="matrix(2.644,0,0,-2.644,-155.59,1868.6)"
         style="stroke:#1e1e1e;stroke-opacity:1;stroke-width:0.6686155;stroke-miterlimit:4;stroke-dasharray:none">
        <g
           id="g748"
           clip-path="url(#clipPath750)"
           style="stroke:#1e1e1e;stroke-opacity:1;stroke-width:0.6686155;stroke-miterlimit:4;stroke-dasharray:none">
          <path
             id="path754"
             d="m 205.62,445.08 c 0,1.905 2.681,3.449 5.988,3.449 3.308,0 5.989,-1.544 5.989,-3.449 0,-1.905 -2.681,-3.449 -5.989,-3.449 -3.307,0 -5.988,1.544 -5.988,3.449 z"
             stroke="#231f20"
             stroke-miterlimit="3.864"
             stroke-width="0.262"
             fill="#231f20"
             style="stroke:#1e1e1e;stroke-opacity:1;stroke-width:0.6686155;stroke-miterlimit:4;stroke-dasharray:none" />
        </g>
      </g>
      <g
         id="g756"
         transform="matrix(2.644,0,0,-2.644,-155.59,1868.6)"
         style="stroke:#1e1e1e;stroke-opacity:1;stroke-width:0.6686155;stroke-miterlimit:4;stroke-dasharray:none">
        <g
           id="g758"
           clip-path="url(#clipPath760)"
           style="stroke:#1e1e1e;stroke-opacity:1;stroke-width:0.6686155;stroke-miterlimit:4;stroke-dasharray:none">
          <g
             id="g764"
             clip-path="url(#clipPath766)"
             style="stroke:#1e1e1e;stroke-opacity:1;stroke-width:0.6686155;stroke-miterlimit:4;stroke-dasharray:none">
            <g
               id="g770"
               clip-path="url(#clipPath772)"
               style="stroke:#1e1e1e;stroke-opacity:1;stroke-width:0.6686155;stroke-miterlimit:4;stroke-dasharray:none">
              <path
                 id="path776"
                 d="m 204.1,360.99 15.426,-0.067 -0.162,48.24 c 0,0 0.485,8.94 -1.132,23.557 -0.855,7.722 -4.009,13.491 -6.498,13.7 -2.49,-0.209 -5.482,-5.978 -6.337,-13.7 -1.617,-14.617 -1.132,-23.557 -1.132,-23.557 l -0.17,-48.17 z"
                 stroke="#231f20"
                 stroke-miterlimit="3.864"
                 stroke-width="0.524"
                 fill="none"
                 style="stroke:#1e1e1e;stroke-opacity:1;stroke-width:0.6686155;stroke-miterlimit:4;stroke-dasharray:none" />
              <path
                 id="path778"
                 d="m 215.01,428.9 c -0.403,1.876 -1.939,2.388 -3.418,2.07 -1.492,0.308 -3.161,-0.148 -3.574,-2.07 l -1.536,0.331 c 0.558,2.594 2.74,3.685 5.104,3.339 2.345,0.355 4.415,-0.802 4.961,-3.339 z"
                 stroke="#231f20"
                 stroke-miterlimit="3.864"
                 stroke-width="0.262"
                 fill="#918f90"
                 style="stroke:#1e1e1e;stroke-opacity:1;stroke-width:0.6686155;stroke-miterlimit:4;stroke-dasharray:none" />
              <path
                 id="path780"
                 d="m 212.4,349.75 c 0,0 1.186,6.305 1.334,13.756 0.148,7.451 -1.104,12.421 -1.104,12.421 h -1.037 c 0,0 -1.186,-4.97 -1.038,-12.421 0.148,-7.451 1.845,-13.756 1.845,-13.756"
                 fill="#ffffff"
                 style="stroke:#1e1e1e;stroke-opacity:1;stroke-width:0.6686155;stroke-miterlimit:4;stroke-dasharray:none" />
            </g>
          </g>
        </g>
      </g>
      <g
         id="g782"
         transform="matrix(2.644,0,0,-2.644,-155.59,1868.6)"
         style="stroke:#1e1e1e;stroke-opacity:1;stroke-width:0.6686155;stroke-miterlimit:4;stroke-dasharray:none">
        <g
           id="g784"
           clip-path="url(#clipPath786)"
           style="stroke:#1e1e1e;stroke-opacity:1;stroke-width:0.6686155;stroke-miterlimit:4;stroke-dasharray:none">
          <path
             id="path790"
             d="m 212.18,348.12 v 29.774 h 2.114 v -29.923 z"
             stroke="#231f20"
             stroke-miterlimit="3.864"
             stroke-width="0.262"
             fill="#d3d2d2"
             style="stroke:#1e1e1e;stroke-opacity:1;stroke-width:0.6686155;stroke-miterlimit:4;stroke-dasharray:none" />
        </g>
      </g>
      <g
         id="g792"
         transform="matrix(2.644,0,0,-2.644,-155.59,1868.6)"
         style="stroke:#1e1e1e;stroke-opacity:1;stroke-width:0.6686155;stroke-miterlimit:4;stroke-dasharray:none">
        <g
           id="g794"
           clip-path="url(#clipPath796)"
           style="stroke:#1e1e1e;stroke-opacity:1;stroke-width:0.6686155;stroke-miterlimit:4;stroke-dasharray:none">
          <g
             id="g800"
             clip-path="url(#clipPath802)"
             style="stroke:#1e1e1e;stroke-opacity:1;stroke-width:0.6686155;stroke-miterlimit:4;stroke-dasharray:none">
            <g
               id="g806"
               clip-path="url(#clipPath808)"
               style="stroke:#1e1e1e;stroke-opacity:1;stroke-width:0.6686155;stroke-miterlimit:4;stroke-dasharray:none">
              <path
                 id="path812"
                 d="m 212.4,349.75 c 0,0 1.186,6.305 1.334,13.756 0.148,7.451 -1.104,12.421 -1.104,12.421 h -1.037 c 0,0 -1.186,-4.97 -1.038,-12.421 0.148,-7.451 1.845,-13.756 1.845,-13.756 z"
                 stroke="#231f20"
                 stroke-miterlimit="3.864"
                 stroke-width="0.262"
                 fill="none"
                 style="stroke:#1e1e1e;stroke-opacity:1;stroke-width:0.6686155;stroke-miterlimit:4;stroke-dasharray:none" />
              <path
                 id="path814"
                 d="m 211.29,353.78 c 0.127,8.395 -2.341,8.539 -2.341,8.539 h -2.786 c 0,0 -2.313,-0.227 -2.187,-8.622 l 7.314,0.083"
                 fill="#231f20"
                 style="stroke:#1e1e1e;stroke-opacity:1;stroke-width:0.6686155;stroke-miterlimit:4;stroke-dasharray:none" />
            </g>
          </g>
        </g>
      </g>
      <g
         id="g816"
         transform="matrix(2.644,0,0,-2.644,-155.59,1868.6)"
         style="stroke:#1e1e1e;stroke-opacity:1;stroke-width:0.6686155;stroke-miterlimit:4;stroke-dasharray:none">
        <g
           id="g818"
           clip-path="url(#clipPath820)"
           style="stroke:#1e1e1e;stroke-opacity:1;stroke-width:0.6686155;stroke-miterlimit:4;stroke-dasharray:none">
          <path
             id="path824"
             d="m 202.62,354.84 h 9.121 m -9.121,1.571 h 9.121 m -9.121,1.572 h 9.121 m -9.121,1.571 h 9.121"
             stroke="#7b7979"
             stroke-miterlimit="3.864"
             stroke-width="0.524"
             fill="none"
             style="stroke:#1e1e1e;stroke-opacity:1;stroke-width:0.6686155;stroke-miterlimit:4;stroke-dasharray:none" />
        </g>
      </g>
      <g
         id="g826"
         transform="matrix(2.644,0,0,-2.644,-155.59,1868.6)"
         style="stroke:#1e1e1e;stroke-opacity:1;stroke-width:0.6686155;stroke-miterlimit:4;stroke-dasharray:none">
        <g
           id="g828"
           clip-path="url(#clipPath830)"
           style="stroke:#1e1e1e;stroke-opacity:1;stroke-width:0.6686155;stroke-miterlimit:4;stroke-dasharray:none">
          <g
             id="g834"
             clip-path="url(#clipPath836)"
             style="stroke:#1e1e1e;stroke-opacity:1;stroke-width:0.6686155;stroke-miterlimit:4;stroke-dasharray:none">
            <g
               id="g840"
               clip-path="url(#clipPath842)"
               style="stroke:#1e1e1e;stroke-opacity:1;stroke-width:0.6686155;stroke-miterlimit:4;stroke-dasharray:none">
              <path
                 id="path846-5"
                 d="m 211.29,353.78 c 0.127,8.395 -2.341,8.539 -2.341,8.539 h -2.786 c 0,0 -2.313,-0.227 -2.187,-8.622 z"
                 stroke="#231f20"
                 stroke-miterlimit="3.864"
                 stroke-width="0.524"
                 fill="none"
                 style="stroke:#1e1e1e;stroke-opacity:1;stroke-width:0.6686155;stroke-miterlimit:4;stroke-dasharray:none" />
              <path
                 id="path848"
                 d="m 220.41,353.78 c 0.127,8.395 -2.341,8.539 -2.341,8.539 h -2.786 c 0,0 -2.313,-0.227 -2.187,-8.622 l 7.314,0.083"
                 fill="#231f20"
                 style="stroke:#1e1e1e;stroke-opacity:1;stroke-width:0.6686155;stroke-miterlimit:4;stroke-dasharray:none" />
            </g>
          </g>
        </g>
      </g>
      <g
         id="g850"
         transform="matrix(2.644,0,0,-2.644,-155.59,1868.6)"
         style="stroke:#1e1e1e;stroke-opacity:1;stroke-width:0.6686155;stroke-miterlimit:4;stroke-dasharray:none">
        <g
           id="g852"
           clip-path="url(#clipPath854)"
           style="stroke:#1e1e1e;stroke-opacity:1;stroke-width:0.6686155;stroke-miterlimit:4;stroke-dasharray:none">
          <path
             id="path858"
             d="m 211.74,354.84 h 9.122 m -9.122,1.571 h 9.122 m -9.122,1.572 h 9.122 m -9.122,1.571 h 9.122"
             stroke="#7b7979"
             stroke-miterlimit="3.864"
             stroke-width="0.524"
             fill="none"
             style="stroke:#1e1e1e;stroke-opacity:1;stroke-width:0.6686155;stroke-miterlimit:4;stroke-dasharray:none" />
        </g>
      </g>
      <path
         id="path880"
         d="m 427.18,933.2 c 0.33579,-22.197 -6.1897,-22.577 -6.1897,-22.577 h -7.3662 c 0,0 -6.1156,0.6002 -5.7825,22.797 l 19.338,-0.21945 z"
         stroke="#231f20"
         stroke-miterlimit="3.864"
         stroke-width="1.3855"
         fill="none"
         style="stroke:#1e1e1e;stroke-opacity:1;stroke-width:1.76781938;stroke-miterlimit:4;stroke-dasharray:none" />
      <path
         id="path882"
         d="m 401.99,914.54 c 0.39132,-39.61 -7.2473,-40.292 -7.2473,-40.292 h -8.6222 c 0,0 -7.16,1.0735 -6.7687,40.684 l 22.638,-0.39132 z"
         stroke="#231f20"
         stroke-miterlimit="3.864"
         stroke-width="1.3855"
         fill="#ffffff"
         style="stroke:#1e1e1e;stroke-opacity:1;stroke-width:1.76781938;stroke-miterlimit:4;stroke-dasharray:none" />
      <path
         id="path884"
         d="m 431.69,914.54 c 0.39396,-39.61 -7.2473,-40.292 -7.2473,-40.292 h -8.6222 c 0,0 -7.1574,1.0735 -6.766,40.684 l 22.635,-0.39132 z"
         stroke="#231f20"
         stroke-miterlimit="3.864"
         stroke-width="1.3855"
         fill="#ffffff"
         style="stroke:#1e1e1e;stroke-opacity:1;stroke-width:1.76781938;stroke-miterlimit:4;stroke-dasharray:none" />
      <path
         id="path886"
         d="M 348.08,905.13 V 887.37"
         stroke="#231f20"
         stroke-miterlimit="3.864"
         stroke-width="1.3855"
         fill="none"
         style="stroke:#1e1e1e;stroke-opacity:1;stroke-width:1.76781938;stroke-miterlimit:4;stroke-dasharray:none" />
      <path
         id="path888"
         d="m 348.08,889.64 v -6.4197"
         stroke="#ffffff"
         stroke-miterlimit="3.864"
         stroke-width="1.3855"
         fill="none"
         style="stroke:#1e1e1e;stroke-opacity:1;stroke-width:1.76781938;stroke-miterlimit:4;stroke-dasharray:none" />
    </g>
    <g
       aria-label="WALKER DEFENSE"
       id="text10400"
       style="font-weight:800;font-size:12.7px;line-height:1.25;font-family:Montserrat;-inkscape-font-specification:'Montserrat Ultra-Bold';text-align:center;text-anchor:middle;fill:#ffffff;stroke-width:0.264583">
      <path
         d="m 19.473618,44.663795 -9.137638,-1.961325 1.298588,-2.241855 7.875463,1.758577 -0.655659,1.131917 -5.380138,-6.066455 1.158544,-2.000087 7.869097,1.769567 -0.630197,1.087959 -5.4056,-6.022498 1.203103,-2.077013 6.247643,6.950552 -1.349512,2.329771 -6.690817,-1.498001 0.362841,-0.626401 4.583794,5.135521 z"
         id="path15571" />
      <path
         d="m 25.336616,34.995755 -3.790684,-8.94779 1.695983,-1.804631 9.174342,3.219242 -1.791654,1.906431 -7.685233,-3.004907 0.678393,-0.721852 3.475717,7.484094 z m 0.211237,-2.746853 -0.907595,-1.741793 2.974493,-3.165046 1.794724,0.797832 z"
         id="path15573" />
      <path
         d="m 33.078252,27.108156 -5.387543,-7.071527 2.000232,-1.523905 4.179194,5.485484 3.374128,-2.570627 1.208349,1.586043 z"
         id="path15575" />
      <path
         d="m 40.354117,19.668159 -1.447578,-2.423438 1.448079,-5.416948 2.444206,-1.300386 -1.424937,5.433407 -0.547331,1.945533 z m -1.059929,2.793671 -4.175552,-7.848367 2.197543,-1.169155 4.175552,7.848367 z m 5.269618,-2.803585 -4.280232,-1.880217 0.623162,-2.316745 6.235819,2.824995 z"
         id="path15577" />
      <path
         d="m 48.311438,12.247593 3.920045,-1.292094 0.588399,1.785128 -3.920044,1.292094 z m 1.26615,3.273363 4.414573,-1.455097 0.608278,1.845436 -6.778661,2.234329 -2.782972,-8.4431723 6.621859,-2.1826452 0.608278,1.8454363 -4.257771,1.4034132 z"
         id="path15579" />
      <path
         d="m 55.974634,15.580845 -1.322427,-8.7910909 4.018785,-0.604538 q 1.205635,-0.1813615 2.13075,0.077605 0.937674,0.257077 1.526366,0.9262515 0.586803,0.6566158 0.737938,1.6613119 0.149245,0.9921375 -0.218413,1.7923307 -0.369547,0.787635 -1.190092,1.309198 -0.809875,0.507114 -2.01551,0.688476 l -2.637327,0.396728 0.948363,-1.20862 0.50819,3.37829 z m 5.437918,-0.818015 -2.666955,-2.873752 2.649886,-0.398617 2.679514,2.871862 z m -3.419812,-2.670601 -1.277081,-0.976594 2.486623,-0.374057 q 0.778639,-0.11713 1.104393,-0.51289 Q 60.644986,9.8310383 60.554306,9.2282206 60.461736,8.6128443 60.021408,8.3323239 59.593639,8.0499144 58.815,8.1670437 l -2.486623,0.3740579 0.93325,-1.3090898 z"
         id="path15581" />
      <path
         d="m 69.010318,14.256876 0.926334,-8.8416061 4.180817,0.438024 q 1.465181,0.1535068 2.519793,0.8130876 1.054613,0.6595807 1.570306,1.7096317 0.528323,1.0513743 0.385402,2.4155078 -0.141596,1.351503 -0.877683,2.283174 -0.722133,0.920365 -1.890552,1.347038 -1.16842,0.426674 -2.633601,0.273167 z m 2.709998,-1.733656 1.578859,0.165417 q 0.757851,0.0794 1.342723,-0.140253 0.598826,-0.230959 0.971501,-0.741003 0.373998,-0.522675 0.453398,-1.280527 Q 76.147521,9.7563712 75.888652,9.1801606 75.629784,8.6039499 75.090509,8.2665208 74.565187,7.9177841 73.807335,7.838384 L 72.228477,7.6729671 Z"
         id="path15583" />
      <path
         d="m 83.163719,11.009074 3.962923,1.153903 -0.525469,1.804655 -3.962924,-1.153903 z M 82.3545,14.424218 86.817361,15.72369 86.274139,17.589312 79.42133,15.593948 81.906659,7.0584201 88.600952,9.0076282 88.05773,10.873251 83.753385,9.6199348 Z"
         id="path15585" />
      <path
         d="m 91.819741,14.614676 3.709832,1.750534 -0.829201,1.757289 -3.709832,-1.750534 z m -1.96911,4.589695 -2.274138,-1.073083 3.793727,-8.039884 6.305566,2.975367 -0.8292,1.757289 -4.031428,-1.902284 z"
         id="path15587" />
      <path
         d="m 99.879134,18.524405 3.412186,2.322341 -1.05756,1.553855 -3.412185,-2.322341 z m -1.825217,2.997769 3.842643,2.615314 -1.09329,1.60635 -5.900448,-4.015864 5.001965,-7.349315 5.763963,3.92297 -1.09329,1.60635 -3.70615,-2.52242 z"
         id="path15589" />
      <path
         d="m 101.92493,26.608496 6.2067,-6.364663 1.48206,1.445275 -0.62223,7.659601 -0.70012,-0.682738 4.1319,-4.237046 1.76392,1.720143 -6.20671,6.364663 -1.48205,-1.445276 0.62223,-7.6596 0.70011,0.682737 -4.13189,4.237047 z"
         id="path15591" />
      <path
         d="m 110.77302,36.564906 q -0.63973,-0.885239 -1.01866,-1.864929 -0.36121,-0.976836 -0.38316,-1.744426 l 1.98636,-0.416976 q 0.0408,0.706954 0.28871,1.48363 0.26562,0.779531 0.71938,1.407433 0.30499,0.422032 0.56301,0.627298 0.26832,0.197827 0.47367,0.221791 0.22307,0.02682 0.39806,-0.09964 0.24705,-0.178529 0.2275,-0.509127 -0.0195,-0.330598 -0.18725,-0.757818 -0.16772,-0.42722 -0.39494,-0.936788 -0.21978,-0.499274 -0.39554,-1.046036 -0.16832,-0.536467 -0.20222,-1.06039 -0.0236,-0.531362 0.18331,-1.025612 0.21721,-0.501689 0.79364,-0.918257 0.64849,-0.468639 1.42638,-0.498035 0.78532,-0.0191 1.61769,0.460547 0.83237,0.479649 1.59855,1.539877 0.51327,0.71025 0.83953,1.508638 0.34399,0.801244 0.422,1.559665 l -1.9669,0.465589 q -0.094,-0.715519 -0.32469,-1.316602 -0.22039,-0.608522 -0.56257,-1.082022 -0.30499,-0.422032 -0.5836,-0.612421 -0.26831,-0.197827 -0.49425,-0.206913 -0.22593,-0.0091 -0.41121,0.124811 -0.23675,0.17109 -0.22465,0.491395 0.0298,0.323159 0.19755,0.750379 0.18545,0.430075 0.40523,0.929349 0.22722,0.509568 0.39554,1.046036 0.18605,0.539322 0.20966,1.070684 0.0339,0.523923 -0.19075,1.015319 -0.20691,0.49425 -0.77306,0.903379 -0.6279,0.453761 -1.42351,0.480303 -0.77789,0.0294 -1.61025,-0.450254 -0.82493,-0.469356 -1.59856,-1.539877 z"
         id="path15593" />
      <path
         d="m 119.70631,40.269985 1.86432,3.682464 -1.67693,0.848986 -1.86433,-3.682465 z m -3.04696,1.741872 2.09952,4.147021 -1.73359,0.877668 -3.22385,-6.367831 7.93146,-4.015471 3.14928,6.220532 -1.73359,0.877667 -2.02495,-3.999723 z"
         id="path15595" />
    </g>
    <g
       aria-label="DEEP SPACE CORPS"
       transform="rotate(-27.413457,-0.80945018,-264.94598)"
       id="text16855"
       style="font-weight:800;font-size:12.7px;line-height:1.25;font-family:Montserrat;-inkscape-font-specification:'Montserrat Ultra-Bold';fill:#ffffff;stroke-width:0.264583">
      <path
         d="m -155.48623,62.238328 8.85403,-0.798834 0.37774,4.186694 q 0.13238,1.46724 -0.31109,2.62939 -0.44347,1.16215 -1.37414,1.870946 -0.92953,0.721444 -2.29558,0.844693 -1.35341,0.122107 -2.40971,-0.42017 -1.04251,-0.530769 -1.68682,-1.594777 -0.64432,-1.064007 -0.7767,-2.531248 z m 2.22444,2.324119 0.14264,1.581078 q 0.0685,0.758917 0.39696,1.290351 0.34227,0.54294 0.91469,0.810085 0.58507,0.266003 1.34399,0.197531 0.77156,-0.06961 1.28692,-0.434899 0.51537,-0.365287 0.74228,-0.959581 0.24071,-0.582787 0.17224,-1.341705 l -0.14265,-1.581078 z"
         id="path17597" />
      <path
         d="m -148.47282,73.596723 0.99519,4.005729 -1.82415,0.453191 -0.99518,-4.00573 z m -3.35892,1.017694 1.12073,4.511067 -1.88577,0.468501 -1.7209,-6.92683 8.62772,-2.14347 1.6811,6.766602 -1.88578,0.468501 -1.08092,-4.350838 z"
         id="path17599" />
      <path
         d="m -146.22588,81.086001 1.50802,3.842152 -1.74965,0.686729 -1.50802,-3.842152 z m -3.19791,1.446165 1.69826,4.326854 -1.80876,0.70993 -2.60772,-6.643967 8.27541,-3.248044 2.54739,6.490281 -1.80877,0.70993 -1.63794,-4.173168 z"
         id="path17601" />
      <path
         d="m -148.93535,88.842615 7.76178,-4.334382 1.98143,3.548243 q 0.59443,1.064472 0.67794,2.021513 0.0897,0.968129 -0.32921,1.75481 -0.40782,0.780488 -1.29488,1.275846 -0.87598,0.489166 -1.75439,0.426946 -0.87841,-0.06222 -1.66668,-0.640254 -0.77098,-0.573138 -1.36541,-1.637611 l -1.30031,-2.328534 1.49848,0.443257 -2.98274,1.665641 z m 3.9759,0.659865 0.46413,-1.539236 1.22602,2.195475 q 0.3839,0.687472 0.86904,0.852936 0.49133,0.176553 1.02357,-0.120662 0.54333,-0.303406 0.65076,-0.814326 0.11362,-0.499831 -0.27028,-1.187303 l -1.22601,-2.195475 1.55392,0.412297 z"
         id="path17603" />
      <path
         d="m -140.19411,102.4465 q -0.70579,-0.83352 -1.15881,-1.78124 -0.43512,-0.946228 -0.51593,-1.709868 l 1.9485,-0.568214 q 0.095,0.701736 0.40174,1.457093 0.32467,0.756839 0.82529,1.348059 0.33648,0.39738 0.6095,0.58224 0.28271,0.17664 0.48929,0.18477 0.22448,0.01 0.38924,-0.1299 0.23262,-0.19696 0.18775,-0.52508 -0.0449,-0.32813 -0.24487,-0.74121 -0.20001,-0.41309 -0.46568,-0.903713 -0.25746,-0.480931 -0.47466,-1.012588 -0.209,-0.521966 -0.28301,-1.041741 -0.0643,-0.527983 0.10404,-1.036657 0.17806,-0.516881 0.72082,-0.976465 0.6106,-0.517033 1.38393,-0.606051 0.78154,-0.07933 1.64827,0.335018 0.86673,0.414344 1.71204,1.412633 0.56627,0.668756 0.95285,1.439747 0.40448,0.772475 0.54047,1.522672 l -1.92536,0.615185 q -0.14865,-0.706187 -0.42479,-1.287791 -0.26645,-0.58981 -0.64396,-1.035648 -0.33649,-0.397377 -0.62889,-0.565818 -0.28271,-0.176648 -0.50867,-0.168366 -0.22597,0.0083 -0.40042,0.156007 -0.22292,0.188758 -0.18627,0.507188 0.0545,0.319917 0.25457,0.733003 0.21791,0.414571 0.47536,0.895502 0.26567,0.490623 0.47467,1.012593 0.2269,0.52345 0.29122,1.05143 0.074,0.51977 -0.11225,1.02696 -0.16837,0.50868 -0.70143,0.96006 -0.59122,0.50061 -1.38245,0.58815 -0.77334,0.089 -1.64007,-0.32533 -0.85852,-0.40465 -1.71203,-1.41263 z"
         id="path17605" />
      <path
         d="m -136.68855,106.16005 5.93319,-6.620374 3.02646,2.712314 q 0.90793,0.81369 1.29776,1.69172 0.39928,0.88651 0.25859,1.7666 -0.13222,0.87063 -0.81029,1.62725 -0.66961,0.74716 -1.5206,0.97361 -0.851,0.22646 -1.78427,-0.0642 -0.91534,-0.29165 -1.82328,-1.10535 l -1.98611,-1.77995 1.56121,-0.0675 -2.28004,2.54412 z m 3.97467,-0.66726 -0.061,-1.60653 1.87263,1.67824 q 0.58637,0.52551 1.09895,0.52443 0.52204,0.007 0.92889,-0.44657 0.41532,-0.46342 0.35099,-0.98154 -0.0549,-0.50963 -0.64126,-1.03514 l -1.87262,-1.67825 1.60359,-0.11476 z"
         id="path17607" />
      <path
         d="m -130.96852,111.38407 8.12662,-5.32825 2.07859,1.34629 -1.52842,9.60188 -2.19585,-1.42224 1.58357,-8.09843 0.83144,0.53851 -6.74274,4.75686 z m 2.7404,-0.2829 1.55162,-1.20417 3.64553,2.3612 -0.46436,1.90838 z"
         id="path17609" />
      <path
         d="m -117.71326,119.12202 q -0.96616,-0.42149 -1.66061,-1.08469 -0.67772,-0.66977 -1.0342,-1.50422 -0.34484,-0.82937 -0.34725,-1.74491 0.003,-0.92719 0.40891,-1.85843 0.40626,-0.93124 1.07899,-1.55225 0.67782,-0.63265 1.52032,-0.94405 0.85414,-0.30632 1.80101,-0.2535 0.96358,0.0463 1.92975,0.46774 1.12913,0.49259 1.84115,1.27431 0.72367,0.7868 0.99233,1.79078 l -2.04562,0.68717 q -0.19265,-0.63828 -0.56327,-1.09094 -0.35898,-0.44758 -0.94101,-0.70149 -0.50054,-0.21836 -0.99069,-0.23821 -0.49016,-0.0198 -0.92992,0.16242 -0.42305,0.1757 -0.78555,0.53023 -0.35086,0.3596 -0.57938,0.88343 -0.22852,0.52382 -0.25344,1.02561 -0.0133,0.50688 0.14062,0.94813 0.17062,0.43468 0.51858,0.78046 0.34797,0.34579 0.84851,0.56415 0.58203,0.25391 1.15429,0.21258 0.5839,-0.0362 1.18281,-0.32921 l 0.88779,1.96688 q -0.91359,0.47436 -1.98765,0.49076 -1.05733,0.01 -2.18647,-0.48275 z"
         id="path17611" />
      <path
         d="m -109.4001,116.11453 3.98701,1.06774 -0.48623,1.81562 -3.98701,-1.06774 z m -0.735,3.43188 4.48997,1.20244 -0.50265,1.87696 -6.89445,-1.84637 2.29974,-8.58739 6.73497,1.80366 -0.50266,1.87695 -4.3305,-1.15972 z"
         id="path17613" />
      <path
         d="m -96.691118,123.89447 q -1.051819,-0.0693 -1.929856,-0.45809 -0.86453,-0.40061 -1.482586,-1.06498 -0.60538,-0.66355 -0.91777,-1.52415 -0.31155,-0.87327 -0.24475,-1.88707 0.0668,-1.01381 0.48942,-1.82598 0.42346,-0.82484 1.110671,-1.4032 0.699889,-0.57753 1.608677,-0.84856 0.922295,-0.28287 1.974114,-0.21356 1.229234,0.081 2.163953,0.57533 0.947392,0.49516 1.540247,1.34879 l -1.691933,1.33945 q -0.397464,-0.53529 -0.899501,-0.83565 -0.489364,-0.29953 -1.12299,-0.34128 -0.544918,-0.0359 -1.01282,0.11144 -0.467901,0.14736 -0.819933,0.4678 -0.338524,0.30861 -0.559509,0.76497 -0.208312,0.45719 -0.24589,1.02746 -0.03758,0.57026 0.108941,1.05083 0.159191,0.48141 0.453457,0.84445 0.307774,0.35119 0.752294,0.55867 0.44452,0.20748 0.989438,0.24339 0.633626,0.0418 1.158062,-0.19097 0.53711,-0.23189 1.001378,-0.7104 l 1.50154,1.54989 q -0.698906,0.75578 -1.703917,1.13502 -0.991503,0.3674 -2.220737,0.2864 z"
         id="path17615" />
      <path
         d="m -87.439532,123.73605 q -1.062167,0.0993 -1.991873,-0.15816 -0.929705,-0.25747 -1.657814,-0.81441 -0.716645,-0.57076 -1.161375,-1.37104 -0.44473,-0.80027 -0.538129,-1.79921 -0.0934,-0.99895 0.195272,-1.86779 0.288671,-0.86885 0.888272,-1.54992 0.611064,-0.69491 1.476927,-1.12026 0.865863,-0.42535 1.928031,-0.52466 1.074812,-0.10049 1.991873,0.15816 0.929705,0.25747 1.646351,0.82823 0.715463,0.55812 1.160193,1.3584 0.457375,0.79909 0.550774,1.79803 0.0934,0.99895 -0.206735,1.88162 -0.288671,0.86884 -0.888272,1.54992 -0.599601,0.68108 -1.465464,1.10643 -0.853219,0.42417 -1.928031,0.52466 z m -0.193891,-2.07376 q 0.505794,-0.0473 0.919167,-0.26451 0.426018,-0.21841 0.7114,-0.57673 0.296845,-0.37215 0.430129,-0.85656 0.145929,-0.4856 0.09273,-1.05461 -0.05438,-0.58167 -0.286618,-1.01915 -0.220772,-0.45131 -0.580277,-0.74933 -0.348043,-0.31186 -0.807164,-0.44751 -0.446477,-0.13683 -0.952271,-0.0895 -0.505794,0.0473 -0.931812,0.2657 -0.413373,0.21723 -0.710218,0.58938 -0.285382,0.35832 -0.431311,0.84391 -0.134467,0.47177 -0.08008,1.05343 0.0532,0.56902 0.273973,1.02033 0.233417,0.45012 0.581459,0.76198 0.359505,0.29803 0.805982,0.43486 0.459121,0.13564 0.964916,0.0884 z"
         id="path17617" />
      <path
         d="m -81.237744,122.75928 -2.251975,-8.60004 3.931448,-1.02947 q 1.179434,-0.30884 2.126882,-0.14996 0.959735,0.15566 1.616404,0.75827 0.653451,0.59032 0.91082,1.57318 0.254151,0.97058 -0.02612,1.8054 -0.283484,0.82254 -1.043758,1.4286 -0.751205,0.59055 -1.930639,0.8994 l -2.580013,0.67559 0.814128,-1.30283 0.865402,3.30488 z m 5.31974,-1.393 -2.958087,-2.5731 2.592298,-0.67881 2.970373,2.56988 z m -3.684999,-2.29085 -1.373905,-0.8349 2.432583,-0.63699 q 0.761718,-0.19946 1.043429,-0.62769 0.293997,-0.43145 0.139576,-1.02116 -0.157638,-0.60201 -0.625359,-0.83399 -0.455435,-0.23521 -1.217153,-0.0357 l -2.432583,0.63699 0.788391,-1.40111 z"
         id="path17619" />
      <path
         d="m -72.17402,120.2468 -3.458492,-8.18968 3.743856,-1.58103 q 1.123156,-0.4743 2.083587,-0.45253 0.97213,0.0168 1.708215,0.51937 0.731143,0.49082 1.1264,1.42679 0.390315,0.92426 0.232293,1.79058 -0.158022,0.86632 -0.818888,1.58656 -0.654107,0.70359 -1.777264,1.1779 l -2.456905,1.03755 0.60466,-1.44095 1.329049,3.14718 z m 1.091216,-3.87975 -1.479164,-0.62987 2.316511,-0.97826 q 0.725372,-0.30632 0.942959,-0.77043 0.229287,-0.46905 -0.0079,-1.03063 -0.242095,-0.57328 -0.73818,-0.73601 -0.484385,-0.16766 -1.209757,0.13866 l -2.316511,0.97826 0.579956,-1.49944 z"
         id="path17621" />
      <path
         d="m -60.827803,115.02782 q -0.940945,0.55455 -1.951655,0.84064 -1.006218,0.26871 -1.772518,0.21912 l -0.230263,-2.01656 q 0.707684,0.0252 1.504063,-0.14935 0.800873,-0.1919 1.468287,-0.58525 0.44859,-0.26437 0.676983,-0.50217 0.221945,-0.24873 0.264919,-0.45096 0.04747,-0.21961 -0.06215,-0.40561 -0.154758,-0.26259 -0.48574,-0.27391 -0.330982,-0.0113 -0.771959,0.1159 -0.440976,0.12722 -0.969483,0.30602 -0.517565,0.17236 -1.078313,0.29645 -0.549807,0.11765 -1.07461,0.10263 -0.531252,-0.026 -1.004096,-0.27798 -0.479291,-0.26296 -0.840392,-0.87567 -0.406239,-0.6893 -0.363097,-1.46654 0.05408,-0.78369 0.609132,-1.5678 0.555049,-0.7841 1.681995,-1.44827 0.754944,-0.44493 1.580236,-0.69545 0.829786,-0.26791 1.592176,-0.27499 l 0.280476,2.00171 q -0.721164,0.027 -1.34111,0.20072 -0.626396,0.16279 -1.129692,0.45941 -0.44859,0.26437 -0.664086,0.52405 -0.221945,0.24874 -0.252023,0.47284 -0.03008,0.22411 0.08599,0.42105 0.148309,0.25165 0.46835,0.26942 0.324534,3.7e-4 0.765511,-0.12685 0.44547,-0.1446 0.963035,-0.31696 0.528507,-0.1788 1.078313,-0.29645 0.5543,-0.13504 1.085552,-0.10908 0.524803,0.015 0.993154,0.28443 0.472843,0.25203 0.827495,0.85379 0.393343,0.66742 0.345708,1.46205 -0.04314,0.77724 -0.598191,1.56135 -0.544108,0.77765 -1.681995,1.44827 z"
         id="path17623" />
    </g>
  </g>
  <g
     inkscape:groupmode="layer"
     id="layer3"
     inkscape:label="Space Shuttle" />
</svg>
