<?xml version="1.0" encoding="UTF-8" standalone="no"?>
<!-- Created with Inkscape (http://www.inkscape.org/) -->

<svg
   width="249.34071"
   height="51.308113"
   viewBox="0 0 65.971397 13.575272"
   version="1.1"
   id="svg5"
   inkscape:version="1.1 (c68e22c387, 2021-05-23)"
   sodipodi:docname="Walker Corporate - WC Expanded Logo - V.3 (White (OBJ)).svg"
   xmlns:inkscape="http://www.inkscape.org/namespaces/inkscape"
   xmlns:sodipodi="http://sodipodi.sourceforge.net/DTD/sodipodi-0.dtd"
   xmlns="http://www.w3.org/2000/svg"
   xmlns:svg="http://www.w3.org/2000/svg">
  <sodipodi:namedview
     id="namedview7"
     pagecolor="#505050"
     bordercolor="#ffffff"
     borderopacity="1"
     inkscape:pageshadow="0"
     inkscape:pageopacity="0"
     inkscape:pagecheckerboard="1"
     inkscape:document-units="px"
     showgrid="false"
     inkscape:zoom="5.0071999"
     inkscape:cx="120.32673"
     inkscape:cy="37.246366"
     inkscape:window-width="1920"
     inkscape:window-height="1137"
     inkscape:window-x="-8"
     inkscape:window-y="-8"
     inkscape:window-maximized="1"
     inkscape:current-layer="layer1" />
  <defs
     id="defs2" />
  <g
     inkscape:label="Layer 1"
     inkscape:groupmode="layer"
     id="layer1"
     transform="translate(-305.68097,-66.663067)">
    <g
       aria-label="WALKER"
       id="text1574"
       style="font-size:13.2292px;line-height:1.25;font-family:Montserrat;-inkscape-font-specification:'Montserrat, @wght=700';font-variation-settings:'wght' 700;letter-spacing:1.05833px;fill:#ffffff;stroke-width:0.264583">
      <path
         d="m 308.71045,75.923508 -3.02948,-9.260441 h 2.2225 l 2.63261,8.202105 h -1.11125 l 2.75167,-8.202105 h 1.98438 l 2.64584,8.202105 h -1.07156 l 2.69875,-8.202105 h 2.05053 l -3.02949,9.260441 h -2.30188 l -2.34157,-7.196685 h 0.60855 l -2.40772,7.196685 z"
         id="path825" />
      <path
         d="m 321.20949,75.923508 4.12751,-9.260441 h 2.11667 l 4.14074,9.260441 h -2.24896 l -3.38668,-8.175646 h 0.84667 l -3.3999,8.175646 z m 2.06376,-1.98438 0.56885,-1.627192 h 4.76251 l 0.58209,1.627192 z"
         id="path827" />
      <path
         d="m 333.61846,75.923508 v -9.260441 h 2.14313 v 7.514186 h 4.64345 v 1.746255 z"
         id="path829" />
      <path
         d="m 344.58544,73.806836 -0.11907,-2.473861 4.43179,-4.669908 h 2.38125 l -3.99522,4.299491 -1.19062,1.270003 z m -1.91824,2.116672 v -9.260441 h 2.1299 v 9.260441 z m 6.33679,0 -3.29407,-4.034906 1.40229,-1.521358 4.3921,5.556264 z"
         id="path831" />
      <path
         d="m 355.48629,70.393702 h 4.45824 v 1.666879 h -4.45824 z m 0.15875,3.81001 h 5.04032 v 1.719796 h -7.17022 v -9.260441 h 6.99824 v 1.719796 h -4.86834 z"
         id="path833" />
      <path
         d="m 363.45026,75.923508 v -9.260441 h 4.00845 q 1.24354,0 2.14313,0.410106 0.89958,0.396876 1.38906,1.15094 0.48948,0.754064 0.48948,1.799171 0,1.031878 -0.48948,1.785942 -0.48948,0.740836 -1.38906,1.137712 -0.89959,0.396876 -2.14313,0.396876 h -2.81782 l 0.9525,-0.939274 v 3.518968 z m 5.88699,0 -2.31511,-3.360217 h 2.28865 l 2.34157,3.360217 z m -3.74386,-3.280842 -0.9525,-1.005419 h 2.69875 q 0.99219,0 1.48167,-0.423335 0.48948,-0.436563 0.48948,-1.190628 0,-0.767293 -0.48948,-1.190628 -0.48948,-0.423334 -1.48167,-0.423334 h -2.69875 l 0.9525,-1.018649 z"
         id="path835" />
    </g>
    <g
       aria-label="CORPORATE"
       id="text3030"
       style="font-size:4.49792px;line-height:1.25;font-family:Montserrat;-inkscape-font-specification:'Montserrat, @wght=700';font-variation-settings:'wght' 700;letter-spacing:4.23333px;fill:#ffffff;stroke-width:0.264583">
      <path
         d="m 308.72315,80.238339 q -0.36433,0 -0.67919,-0.116946 -0.31035,-0.121443 -0.53975,-0.341841 -0.22939,-0.220399 -0.35983,-0.517261 -0.12594,-0.296863 -0.12594,-0.652199 0,-0.355335 0.12594,-0.652198 0.13044,-0.296863 0.35983,-0.517261 0.23389,-0.220398 0.54425,-0.337344 0.31036,-0.121444 0.67919,-0.121444 0.40931,0 0.73765,0.143934 0.33285,0.139435 0.55775,0.413808 l -0.46779,0.431801 q -0.16192,-0.184415 -0.35983,-0.274373 -0.19791,-0.09446 -0.4318,-0.09446 -0.2204,0 -0.40481,0.07197 -0.18442,0.07197 -0.31936,0.206904 -0.13493,0.134938 -0.2114,0.319353 -0.072,0.184414 -0.072,0.40931 0,0.224896 0.072,0.409311 0.0765,0.184415 0.2114,0.319352 0.13494,0.134938 0.31936,0.206905 0.18441,0.07197 0.40481,0.07197 0.23389,0 0.4318,-0.08996 0.19791,-0.09446 0.35983,-0.283369 l 0.46779,0.4318 q -0.2249,0.274373 -0.55775,0.418307 -0.32834,0.143933 -0.74215,0.143933 z"
         id="path838" />
      <path
         d="m 316.20847,80.238339 q -0.37333,0 -0.69268,-0.121443 -0.31486,-0.121444 -0.54875,-0.341842 -0.22939,-0.220398 -0.35983,-0.517261 -0.12594,-0.296863 -0.12594,-0.647701 0,-0.350837 0.12594,-0.6477 0.13044,-0.296863 0.36433,-0.517261 0.23389,-0.220398 0.54875,-0.341842 0.31485,-0.121444 0.68368,-0.121444 0.37333,0 0.68368,0.121444 0.31486,0.121444 0.54425,0.341842 0.23389,0.220398 0.36433,0.517261 0.13044,0.292365 0.13044,0.6477 0,0.350838 -0.13044,0.652199 -0.13044,0.296862 -0.36433,0.517261 -0.22939,0.2159 -0.54425,0.337344 -0.31035,0.121443 -0.67918,0.121443 z m -0.004,-0.620713 q 0.2114,0 0.38682,-0.07197 0.17992,-0.07197 0.31485,-0.206905 0.13494,-0.134937 0.20691,-0.319352 0.0765,-0.184415 0.0765,-0.409311 0,-0.224896 -0.0765,-0.40931 -0.072,-0.184415 -0.20691,-0.319353 -0.13043,-0.134937 -0.31035,-0.206904 -0.17992,-0.07197 -0.39132,-0.07197 -0.2114,0 -0.39132,0.07197 -0.17542,0.07197 -0.31036,0.206904 -0.13493,0.134938 -0.2114,0.319353 -0.072,0.184414 -0.072,0.40931 0,0.220398 0.072,0.409311 0.0765,0.184415 0.20691,0.319352 0.13493,0.134938 0.31485,0.206905 0.17992,0.07197 0.39132,0.07197 z"
         id="path840" />
      <path
         d="M 322.70875,80.184364 V 77.03582 h 1.36287 q 0.4228,0 0.72866,0.139436 0.30586,0.134937 0.47228,0.391319 0.16643,0.256381 0.16643,0.611717 0,0.350838 -0.16643,0.607219 -0.16642,0.251884 -0.47228,0.386821 -0.30586,0.134938 -0.72866,0.134938 h -0.95806 l 0.32385,-0.319352 v 1.196446 z m 2.00157,0 -0.78713,-1.142471 h 0.77814 l 0.79613,1.142471 z m -1.27291,-1.115484 -0.32385,-0.341842 h 0.91758 q 0.33734,0 0.50376,-0.143933 0.16643,-0.148432 0.16643,-0.404813 0,-0.260879 -0.16643,-0.404813 -0.16642,-0.143933 -0.50376,-0.143933 h -0.91758 l 0.32385,-0.34634 z"
         id="path842" />
      <path
         d="M 330.24804,80.184364 V 77.03582 h 1.36287 q 0.42281,0 0.72867,0.139436 0.30585,0.134937 0.47228,0.391319 0.16642,0.256381 0.16642,0.611717 0,0.350838 -0.16642,0.607219 -0.16643,0.256382 -0.47228,0.395817 -0.30586,0.134938 -0.72867,0.134938 h -0.95805 l 0.32385,-0.328348 v 1.196446 z m 0.72867,-1.115484 -0.32385,-0.34634 h 0.91757 q 0.33735,0 0.50377,-0.143933 0.16642,-0.143934 0.16642,-0.400315 0,-0.260879 -0.16642,-0.404813 -0.16642,-0.143933 -0.50377,-0.143933 h -0.91757 l 0.32385,-0.34634 z"
         id="path844" />
      <path
         d="m 339.30314,80.238339 q -0.37333,0 -0.69268,-0.121443 -0.31486,-0.121444 -0.54875,-0.341842 -0.22939,-0.220398 -0.35983,-0.517261 -0.12594,-0.296863 -0.12594,-0.647701 0,-0.350837 0.12594,-0.6477 0.13044,-0.296863 0.36433,-0.517261 0.23389,-0.220398 0.54874,-0.341842 0.31486,-0.121444 0.68369,-0.121444 0.37333,0 0.68368,0.121444 0.31486,0.121444 0.54425,0.341842 0.23389,0.220398 0.36433,0.517261 0.13044,0.292365 0.13044,0.6477 0,0.350838 -0.13044,0.652199 -0.13044,0.296862 -0.36433,0.517261 -0.22939,0.2159 -0.54425,0.337344 -0.31035,0.121443 -0.67918,0.121443 z m -0.005,-0.620713 q 0.2114,0 0.38682,-0.07197 0.17992,-0.07197 0.31485,-0.206905 0.13494,-0.134937 0.20691,-0.319352 0.0765,-0.184415 0.0765,-0.409311 0,-0.224896 -0.0765,-0.40931 -0.072,-0.184415 -0.20691,-0.319353 -0.13044,-0.134937 -0.31035,-0.206904 -0.17992,-0.07197 -0.39132,-0.07197 -0.2114,0 -0.39132,0.07197 -0.17542,0.07197 -0.31036,0.206904 -0.13493,0.134938 -0.2114,0.319353 -0.072,0.184414 -0.072,0.40931 0,0.220398 0.072,0.409311 0.0765,0.184415 0.20691,0.319352 0.13493,0.134938 0.31485,0.206905 0.17992,0.07197 0.39132,0.07197 z"
         id="path846" />
      <path
         d="M 345.80342,80.184364 V 77.03582 h 1.36287 q 0.4228,0 0.72866,0.139436 0.30586,0.134937 0.47228,0.391319 0.16643,0.256381 0.16643,0.611717 0,0.350838 -0.16643,0.607219 -0.16642,0.251884 -0.47228,0.386821 -0.30586,0.134938 -0.72866,0.134938 h -0.95806 l 0.32385,-0.319352 v 1.196446 z m 2.00157,0 -0.78713,-1.142471 h 0.77814 l 0.79613,1.142471 z m -1.27291,-1.115484 -0.32385,-0.341842 h 0.91758 q 0.33734,0 0.50376,-0.143933 0.16643,-0.148432 0.16643,-0.404813 0,-0.260879 -0.16643,-0.404813 -0.16642,-0.143933 -0.50376,-0.143933 h -0.91758 l 0.32385,-0.34634 z"
         id="path848" />
      <path
         d="m 352.9289,80.184364 1.40335,-3.148544 h 0.71967 l 1.40785,3.148544 h -0.76465 l -1.15146,-2.779714 h 0.28786 l -1.15596,2.779714 z m 0.70168,-0.674688 0.19341,-0.553244 h 1.61925 l 0.19791,0.553244 z"
         id="path850" />
      <path
         d="m 361.51621,80.184364 v -2.554818 h -1.00754 V 77.03582 h 2.74373 v 0.593726 h -1.00753 v 2.554818 z"
         id="path852" />
      <path
         d="m 368.54723,78.304234 h 1.5158 v 0.566738 h -1.5158 z m 0.054,1.295401 h 1.71371 v 0.584729 h -2.43788 V 77.03582 h 2.3794 v 0.58473 h -1.65523 z"
         id="path854" />
    </g>
  </g>
</svg>
