<?xml version="1.0" encoding="UTF-8" standalone="no"?>
<!-- Created with Inkscape (http://www.inkscape.org/) -->

<svg
   width="1057.6783"
   height="143.2661"
   viewBox="0 0 279.84406 37.905822"
   version="1.1"
   id="svg5"
   inkscape:version="1.1 (c68e22c387, 2021-05-23)"
   sodipodi:docname="DSS Phoenix - Logo.svg"
   xmlns:inkscape="http://www.inkscape.org/namespaces/inkscape"
   xmlns:sodipodi="http://sodipodi.sourceforge.net/DTD/sodipodi-0.dtd"
   xmlns="http://www.w3.org/2000/svg"
   xmlns:svg="http://www.w3.org/2000/svg">
  <sodipodi:namedview
     id="namedview7"
     pagecolor="#505050"
     bordercolor="#ffffff"
     borderopacity="1"
     inkscape:pageshadow="0"
     inkscape:pageopacity="0"
     inkscape:pagecheckerboard="1"
     inkscape:document-units="px"
     showgrid="false"
     inkscape:zoom="1.2518"
     inkscape:cx="446.95638"
     inkscape:cy="58.71545"
     inkscape:window-width="1920"
     inkscape:window-height="1137"
     inkscape:window-x="-8"
     inkscape:window-y="-8"
     inkscape:window-maximized="1"
     inkscape:current-layer="layer1" />
  <defs
     id="defs2" />
  <g
     inkscape:label="Layer 1"
     inkscape:groupmode="layer"
     id="layer1"
     transform="translate(-168.03531,-170.75218)">
    <path
       id="path8160"
       style="font-weight:800;font-size:10.5833px;line-height:1.25;font-family:Montserrat;-inkscape-font-specification:'Montserrat Ultra-Bold';stroke-width:0.999999"
       d="M 357.63477 114.14648 C 354.88811 114.14648 352.59586 114.56006 350.75586 115.38672 C 348.91588 116.2134 347.52904 117.30604 346.5957 118.66602 C 345.68904 120.02602 345.23633 121.54656 345.23633 123.22656 C 345.23633 124.71988 345.52858 125.95863 346.11523 126.94531 C 346.70189 127.90531 347.46314 128.69332 348.39648 129.30664 C 349.32983 129.8933 350.35463 130.37275 351.47461 130.74609 C 352.62129 131.11956 353.75503 131.42614 354.875 131.66602 C 356.02168 131.90614 357.06278 132.14684 357.99609 132.38672 C 358.92944 132.62672 359.68873 132.93332 360.27539 133.30664 C 360.86205 133.67998 361.15625 134.18617 361.15625 134.82617 C 361.15625 135.27949 360.99578 135.67871 360.67578 136.02539 C 360.38246 136.34529 359.90301 136.61275 359.23633 136.82617 C 358.56967 137.01288 357.68902 137.10547 356.5957 137.10547 C 354.96902 137.10547 353.3291 136.85236 351.67578 136.3457 C 350.04912 135.81239 348.60881 135.1457 347.35547 134.3457 L 344.75586 140.18555 C 346.08918 141.09221 347.80933 141.83912 349.91602 142.42578 C 352.04933 142.98578 354.26137 143.26562 356.55469 143.26562 C 359.32803 143.26562 361.62223 142.85205 363.43555 142.02539 C 365.27555 141.19873 366.64803 140.10609 367.55469 138.74609 C 368.48803 137.35944 368.95508 135.85322 368.95508 134.22656 C 368.95508 132.7599 368.66286 131.54594 368.07617 130.58594 C 367.51617 129.59925 366.76925 128.81322 365.83594 128.22656 C 364.9026 127.61325 363.8615 127.13184 362.71484 126.78516 C 361.59484 126.41171 360.46306 126.10511 359.31641 125.86523 C 358.19641 125.62531 357.15531 125.39896 356.19531 125.18555 C 355.262 124.94555 354.50267 124.6533 353.91602 124.30664 C 353.35602 123.9333 353.07617 123.43949 353.07617 122.82617 C 353.07617 122.34617 353.22231 121.91826 353.51562 121.54492 C 353.80897 121.17168 354.28842 120.87943 354.95508 120.66602 C 355.62174 120.42614 356.50236 120.30664 357.5957 120.30664 C 358.82236 120.30664 360.08983 120.49189 361.39648 120.86523 C 362.70314 121.21189 364.02213 121.7468 365.35547 122.4668 L 367.79492 116.58594 C 366.40826 115.78594 364.82181 115.18516 363.03516 114.78516 C 361.27516 114.3585 359.47477 114.14648 357.63477 114.14648 z M 411.11523 114.14648 L 411.11523 143.26562 L 418.07617 143.26562 L 418.07617 114.14648 L 411.11523 114.14648 z M 574.1543 114.14648 C 571.40764 114.14648 569.11539 114.56006 567.27539 115.38672 C 565.43539 116.2134 564.04855 117.30604 563.11523 118.66602 C 562.20855 120.02602 561.75391 121.54656 561.75391 123.22656 C 561.75391 124.71988 562.04808 125.95863 562.63477 126.94531 C 563.22142 127.90531 563.98075 128.69332 564.91406 129.30664 C 565.8474 129.8933 566.87414 130.37275 567.99414 130.74609 C 569.1408 131.11956 570.27453 131.42614 571.39453 131.66602 C 572.54119 131.90614 573.58033 132.14684 574.51367 132.38672 C 575.44699 132.62672 576.20826 132.93332 576.79492 133.30664 C 577.38161 133.67998 577.67383 134.18617 577.67383 134.82617 C 577.67383 135.27949 577.51531 135.67871 577.19531 136.02539 C 576.90197 136.34529 576.42056 136.61275 575.75391 136.82617 C 575.08725 137.01288 574.20858 137.10547 573.11523 137.10547 C 571.48858 137.10547 569.84863 136.85236 568.19531 136.3457 C 566.56863 135.81239 565.12832 135.1457 563.875 134.3457 L 561.27539 140.18555 C 562.60873 141.09221 564.32694 141.83912 566.43359 142.42578 C 568.56691 142.98578 570.78088 143.26562 573.07422 143.26562 C 575.84754 143.26562 578.14174 142.85205 579.95508 142.02539 C 581.79505 141.19873 583.16754 140.10609 584.07422 138.74609 C 585.00754 137.35944 585.47461 135.85322 585.47461 134.22656 C 585.47461 132.7599 585.18041 131.54594 584.59375 130.58594 C 584.03375 129.59925 583.28686 128.81322 582.35352 128.22656 C 581.4202 127.61325 580.38103 127.13184 579.23438 126.78516 C 578.11437 126.41171 576.98064 126.10511 575.83398 125.86523 C 574.71398 125.62531 573.67484 125.39896 572.71484 125.18555 C 571.7815 124.94555 571.02025 124.6533 570.43359 124.30664 C 569.87359 123.9333 569.59375 123.43949 569.59375 122.82617 C 569.59375 122.34617 569.74181 121.91826 570.03516 121.54492 C 570.32847 121.17168 570.80793 120.87943 571.47461 120.66602 C 572.14127 120.42614 573.02192 120.30664 574.11523 120.30664 C 575.34192 120.30664 576.6074 120.49189 577.91406 120.86523 C 579.22072 121.21189 580.54168 121.7468 581.875 122.4668 L 584.31445 116.58594 C 582.92779 115.78594 581.34135 115.18516 579.55469 114.78516 C 577.79469 114.3585 575.99427 114.14648 574.1543 114.14648 z M 661.79492 114.14648 C 659.58161 114.14648 657.52811 114.50656 655.63477 115.22656 C 653.76811 115.9199 652.14056 116.9199 650.75391 118.22656 C 649.39391 119.53322 648.32803 121.07858 647.55469 122.86523 C 646.78137 124.62523 646.39453 126.57371 646.39453 128.70703 C 646.39453 130.84037 646.78137 132.79928 647.55469 134.58594 C 648.32803 136.34591 649.39391 137.87886 650.75391 139.18555 C 652.14056 140.49221 653.76811 141.50656 655.63477 142.22656 C 657.52811 142.91988 659.58161 143.26562 661.79492 143.26562 C 664.38158 143.26562 666.68819 142.81291 668.71484 141.90625 C 670.76816 140.97293 672.47398 139.66633 673.83398 137.98633 L 668.79492 133.42578 C 667.88824 134.49244 666.88824 135.30523 665.79492 135.86523 C 664.72826 136.42523 663.5267 136.70703 662.19336 136.70703 C 661.0467 136.70703 659.9932 136.5198 659.0332 136.14648 C 658.0732 135.77314 657.248 135.24022 656.55469 134.54688 C 655.888 133.82687 655.3531 132.97299 654.95312 131.98633 C 654.57978 130.99967 654.39453 129.90703 654.39453 128.70703 C 654.39453 127.50703 654.57978 126.41244 654.95312 125.42578 C 655.3531 124.43912 655.888 123.59959 656.55469 122.90625 C 657.248 122.18625 658.0732 121.63894 659.0332 121.26562 C 659.9932 120.89228 661.0467 120.70703 662.19336 120.70703 C 663.5267 120.70703 664.72826 120.98687 665.79492 121.54688 C 666.88824 122.10688 667.88824 122.91967 668.79492 123.98633 L 673.83398 119.42578 C 672.47398 117.71912 670.76816 116.41254 668.71484 115.50586 C 666.68819 114.5992 664.38158 114.14648 661.79492 114.14648 z M 729.83398 114.14648 C 727.62067 114.14648 725.56717 114.50656 723.67383 115.22656 C 721.80717 115.9199 720.17963 116.9199 718.79297 118.22656 C 717.43297 119.53322 716.36707 121.07858 715.59375 122.86523 C 714.82041 124.62523 714.43359 126.57371 714.43359 128.70703 C 714.43359 130.84037 714.82041 132.79928 715.59375 134.58594 C 716.36707 136.34591 717.43297 137.87886 718.79297 139.18555 C 720.17963 140.49221 721.80717 141.50656 723.67383 142.22656 C 725.56717 142.91988 727.62067 143.26562 729.83398 143.26562 C 732.42064 143.26562 734.72725 142.81291 736.75391 141.90625 C 738.80725 140.97293 740.51307 139.66633 741.87305 137.98633 L 736.83398 133.42578 C 735.92733 134.49244 734.92733 135.30523 733.83398 135.86523 C 732.76733 136.42523 731.56772 136.70703 730.23438 136.70703 C 729.08772 136.70703 728.03422 136.5198 727.07422 136.14648 C 726.11422 135.77314 725.28707 135.24022 724.59375 134.54688 C 723.92709 133.82687 723.39414 132.97299 722.99414 131.98633 C 722.6208 130.99967 722.43359 129.90703 722.43359 128.70703 C 722.43359 127.50703 722.6208 126.41244 722.99414 125.42578 C 723.39414 124.43912 723.92709 123.59959 724.59375 122.90625 C 725.28707 122.18625 726.11422 121.63894 727.07422 121.26562 C 728.03422 120.89228 729.08772 120.70703 730.23438 120.70703 C 731.56772 120.70703 732.76733 120.98687 733.83398 121.54688 C 734.92733 122.10688 735.92733 122.91967 736.83398 123.98633 L 741.87305 119.42578 C 740.51307 117.71912 738.80725 116.41254 736.75391 115.50586 C 734.72725 114.5992 732.42064 114.14648 729.83398 114.14648 z M 758.91406 114.14648 C 756.67406 114.14648 754.60621 114.50656 752.71289 115.22656 C 750.81955 115.94656 749.16722 116.97332 747.75391 118.30664 C 746.36722 119.61332 745.28699 121.14628 744.51367 122.90625 C 743.74033 124.66625 743.35352 126.60037 743.35352 128.70703 C 743.35352 130.81369 743.74033 132.74586 744.51367 134.50586 C 745.28699 136.26586 746.36722 137.81317 747.75391 139.14648 C 749.16722 140.45314 750.81955 141.46555 752.71289 142.18555 C 754.60621 142.90555 756.67406 143.26562 758.91406 143.26562 C 761.18072 143.26563 763.24662 142.90555 765.11328 142.18555 C 767.0066 141.46555 768.64654 140.45314 770.0332 139.14648 C 771.41989 137.83983 772.50012 136.30688 773.27344 134.54688 C 774.07344 132.76022 774.47266 130.81369 774.47266 128.70703 C 774.47266 126.60037 774.07344 124.66625 773.27344 122.90625 C 772.50012 121.14628 771.41989 119.61332 770.0332 118.30664 C 768.64654 116.97332 767.0066 115.94656 765.11328 115.22656 C 763.24662 114.50656 761.18072 114.14648 758.91406 114.14648 z M 848.63281 114.14648 C 845.88615 114.14648 843.59388 114.56006 841.75391 115.38672 C 839.91391 116.2134 838.52709 117.30604 837.59375 118.66602 C 836.68709 120.02602 836.23242 121.54656 836.23242 123.22656 C 836.23242 124.71988 836.52662 125.95863 837.11328 126.94531 C 837.69996 127.90531 838.45926 128.69332 839.39258 129.30664 C 840.32592 129.8933 841.35266 130.37275 842.47266 130.74609 C 843.61931 131.11956 844.75305 131.42614 845.87305 131.66602 C 847.01971 131.90614 848.05887 132.14684 848.99219 132.38672 C 849.92553 132.62672 850.68678 132.93332 851.27344 133.30664 C 851.8601 133.67998 852.15234 134.18617 852.15234 134.82617 C 852.15234 135.27949 851.9938 135.67871 851.67383 136.02539 C 851.38049 136.34529 850.89908 136.61275 850.23242 136.82617 C 849.56574 137.01288 848.68707 137.10547 847.59375 137.10547 C 845.96709 137.10547 844.32717 136.85236 842.67383 136.3457 C 841.04717 135.81239 839.60683 135.1457 838.35352 134.3457 L 835.75391 140.18555 C 837.08725 141.09221 838.8074 141.83912 840.91406 142.42578 C 843.04738 142.98578 845.25939 143.26562 847.55273 143.26562 C 850.32605 143.26562 852.62028 142.85205 854.43359 142.02539 C 856.27359 141.19873 857.64608 140.10609 858.55273 138.74609 C 859.48608 137.35944 859.95312 135.85322 859.95312 134.22656 C 859.95312 132.7599 859.65892 131.54594 859.07227 130.58594 C 858.51227 129.59925 857.76733 128.81322 856.83398 128.22656 C 855.90067 127.61325 854.85957 127.13184 853.71289 126.78516 C 852.59289 126.41171 851.45916 126.10511 850.3125 125.86523 C 849.1925 125.62531 848.15333 125.39896 847.19336 125.18555 C 846.26002 124.94555 845.50072 124.6533 844.91406 124.30664 C 844.35406 123.9333 844.07227 123.43949 844.07227 122.82617 C 844.07227 122.34617 844.22036 121.91826 844.51367 121.54492 C 844.80701 121.17168 845.28647 120.87943 845.95312 120.66602 C 846.61981 120.42614 847.50043 120.30664 848.59375 120.30664 C 849.82041 120.30664 851.08592 120.49189 852.39258 120.86523 C 853.69926 121.21189 855.0202 121.7468 856.35352 122.4668 L 858.79297 116.58594 C 857.40631 115.78594 855.81986 115.18516 854.0332 114.78516 C 852.2732 114.3585 850.47281 114.14648 848.63281 114.14648 z M 0 114.70703 L 9.0800781 142.70703 L 17.560547 142.70703 L 23.15625 125.6543 L 28.519531 142.70703 L 37 142.70703 L 46.080078 114.70703 L 38.519531 114.70703 L 32.65625 132.74609 L 27 114.70703 L 19.720703 114.70703 L 13.792969 132.57617 L 8.1601562 114.70703 L 0 114.70703 z M 56.957031 114.70703 L 44.597656 142.70703 L 52.677734 142.70703 L 54.861328 137.26562 L 66.732422 137.26562 L 68.916016 142.70703 L 77.15625 142.70703 L 64.757812 114.70703 L 56.957031 114.70703 z M 79.396484 114.70703 L 79.396484 142.70703 L 100.67773 142.70703 L 100.67773 136.42578 L 87.316406 136.42578 L 87.316406 114.70703 L 79.396484 114.70703 z M 103.79688 114.70703 L 103.79688 142.70703 L 111.63672 142.70703 L 111.63672 135.69141 L 114.57812 132.54102 L 122.5957 142.70703 L 131.79688 142.70703 L 119.76562 127.0918 L 131.19727 114.70703 L 122.47656 114.70703 L 111.63672 126.33984 L 111.63672 114.70703 L 103.79688 114.70703 z M 133.87695 114.70703 L 133.87695 142.70703 L 156.35742 142.70703 L 156.35742 136.58594 L 141.7168 136.58594 L 141.7168 131.4668 L 154.15625 131.4668 L 154.15625 125.54688 L 141.7168 125.54688 L 141.7168 120.82617 L 155.83594 120.82617 L 155.83594 114.70703 L 133.87695 114.70703 z M 160.75586 114.70703 L 160.75586 142.70703 L 168.67578 142.70703 L 168.67578 135.26562 L 173 135.26562 L 178.07617 142.70703 L 186.55664 142.70703 L 180.51367 133.90039 C 182.20793 133.08526 183.52878 131.96854 184.47656 130.54688 C 185.48988 129.00022 185.99609 127.17306 185.99609 125.06641 C 185.99609 122.93309 185.48988 121.09353 184.47656 119.54688 C 183.46322 117.97353 182.02291 116.77197 180.15625 115.94531 C 178.31625 115.11865 176.11662 114.70703 173.55664 114.70703 L 160.75586 114.70703 z M 201.99609 114.70703 L 201.99609 142.70703 L 215.23633 142.70703 C 218.32964 142.70703 221.04983 142.13301 223.39648 140.98633 C 225.74314 139.83967 227.57029 138.22646 228.87695 136.14648 C 230.21029 134.0398 230.87695 131.56035 230.87695 128.70703 C 230.87695 125.82706 230.21029 123.34563 228.87695 121.26562 C 227.57029 119.18562 225.74314 117.57244 223.39648 116.42578 C 221.04983 115.27912 218.32964 114.70703 215.23633 114.70703 L 201.99609 114.70703 z M 235.03516 114.70703 L 235.03516 142.70703 L 257.51562 142.70703 L 257.51562 136.58594 L 242.87695 136.58594 L 242.87695 131.4668 L 255.31641 131.4668 L 255.31641 125.54688 L 242.87695 125.54688 L 242.87695 120.82617 L 256.99609 120.82617 L 256.99609 114.70703 L 235.03516 114.70703 z M 261.91602 114.70703 L 261.91602 142.70703 L 269.83594 142.70703 L 269.83594 133.10547 L 282.19531 133.10547 L 282.19531 126.98633 L 269.83594 126.98633 L 269.83594 120.82617 L 283.875 120.82617 L 283.875 114.70703 L 261.91602 114.70703 z M 287.5957 114.70703 L 287.5957 142.70703 L 310.07617 142.70703 L 310.07617 136.58594 L 295.43555 136.58594 L 295.43555 131.4668 L 307.875 131.4668 L 307.875 125.54688 L 295.43555 125.54688 L 295.43555 120.82617 L 309.55664 120.82617 L 309.55664 114.70703 L 287.5957 114.70703 z M 314.47656 114.70703 L 314.47656 142.70703 L 322.23633 142.70703 L 322.23633 127.78516 L 334.5957 142.70703 L 341.11523 142.70703 L 341.11523 114.70703 L 333.35547 114.70703 L 333.35547 129.62695 L 320.99609 114.70703 L 314.47656 114.70703 z M 372.5957 114.70703 L 372.5957 142.70703 L 395.07617 142.70703 L 395.07617 136.58594 L 380.43555 136.58594 L 380.43555 131.4668 L 392.875 131.4668 L 392.875 125.54688 L 380.43555 125.54688 L 380.43555 120.82617 L 394.55469 120.82617 L 394.55469 114.70703 L 372.5957 114.70703 z M 435.31445 114.70703 L 435.31445 142.70508 L 448.55469 142.70703 C 451.648 142.70703 454.36817 142.133 456.71484 140.98633 C 459.06151 139.83966 460.88862 138.22647 462.19531 136.14648 C 463.52862 134.03981 464.19531 131.56035 464.19531 128.70703 C 464.19531 125.82707 463.52862 123.34561 462.19531 121.26562 C 460.88862 119.18564 459.06151 117.57245 456.71484 116.42578 C 454.36817 115.27911 451.648 114.70703 448.55469 114.70703 L 435.31445 114.70703 z M 468.35547 114.70703 L 468.35547 142.70703 L 490.83398 142.70703 L 490.83398 136.58594 L 476.19531 136.58594 L 476.19531 131.4668 L 488.63477 131.4668 L 488.63477 125.54688 L 476.19531 125.54688 L 476.19531 120.82617 L 490.31445 120.82617 L 490.31445 114.70703 L 468.35547 114.70703 z M 495.23438 114.70703 L 495.23438 142.70703 L 517.71484 142.70703 L 517.71484 136.58594 L 503.07422 136.58594 L 503.07422 131.4668 L 515.51562 131.4668 L 515.51562 125.54688 L 503.07422 125.54688 L 503.07422 120.82617 L 517.19531 120.82617 L 517.19531 114.70703 L 495.23438 114.70703 z M 522.11523 114.70703 L 522.11523 142.70703 L 530.03516 142.70703 L 530.03516 135.38672 L 534.91406 135.38672 C 537.47406 135.38672 539.67367 134.97314 541.51367 134.14648 C 543.38033 133.29314 544.82067 132.09353 545.83398 130.54688 C 546.84733 129.00022 547.35547 127.17306 547.35547 125.06641 C 547.35547 122.93309 546.84733 121.09353 545.83398 119.54688 C 544.82067 117.97353 543.38033 116.77197 541.51367 115.94531 C 539.67367 115.11865 537.47406 114.70703 534.91406 114.70703 L 522.11523 114.70703 z M 589.11523 114.70703 L 589.11523 142.70703 L 597.03516 142.70703 L 597.03516 135.38672 L 601.91406 135.38672 C 604.47406 135.38672 606.67367 134.97314 608.51367 134.14648 C 610.38033 133.29314 611.82067 132.09353 612.83398 130.54688 C 613.84733 129.00022 614.35352 127.17306 614.35352 125.06641 C 614.35352 122.93309 613.84733 121.09353 612.83398 119.54688 C 611.82067 117.97353 610.38033 116.77197 608.51367 115.94531 C 606.67367 115.11865 604.47406 114.70703 601.91406 114.70703 L 589.11523 114.70703 z M 625.79492 114.70703 L 613.43359 142.70703 L 621.51367 142.70703 L 623.69727 137.26562 L 635.57031 137.26562 L 637.75391 142.70703 L 645.99414 142.70703 L 633.59375 114.70703 L 625.79492 114.70703 z M 677.35352 114.70703 L 677.35352 142.70703 L 699.83398 142.70703 L 699.83398 136.58594 L 685.19336 136.58594 L 685.19336 131.4668 L 697.63477 131.4668 L 697.63477 125.54688 L 685.19336 125.54688 L 685.19336 120.82617 L 699.31445 120.82617 L 699.31445 114.70703 L 677.35352 114.70703 z M 778.63281 114.70703 L 778.63281 142.70703 L 786.55273 142.70703 L 786.55273 135.26562 L 790.87695 135.26562 L 795.95312 142.70703 L 804.43359 142.70703 L 798.39062 133.90039 C 800.08488 133.08526 801.40573 131.96854 802.35352 130.54688 C 803.36683 129.00022 803.87305 127.17306 803.87305 125.06641 C 803.87305 122.93309 803.36683 121.09353 802.35352 119.54688 C 801.34017 117.97353 799.89986 116.77197 798.0332 115.94531 C 796.19323 115.11865 793.99359 114.70703 791.43359 114.70703 L 778.63281 114.70703 z M 808.23242 114.70703 L 808.23242 142.70703 L 816.15234 142.70703 L 816.15234 135.38672 L 821.0332 135.38672 C 823.5932 135.38672 825.79281 134.97314 827.63281 134.14648 C 829.49947 133.29314 830.93981 132.09353 831.95312 130.54688 C 832.96647 129.00022 833.47266 127.17306 833.47266 125.06641 C 833.47266 122.93309 832.96647 121.09353 831.95312 119.54688 C 830.93981 117.97353 829.49947 116.77197 827.63281 115.94531 C 825.79281 115.11865 823.5932 114.70703 821.0332 114.70703 L 808.23242 114.70703 z M 758.91406 120.70703 C 759.98072 120.70703 760.96639 120.89228 761.87305 121.26562 C 762.80639 121.63894 763.60678 122.18625 764.27344 122.90625 C 764.96675 123.59959 765.49971 124.43912 765.87305 125.42578 C 766.27305 126.38578 766.47266 127.48037 766.47266 128.70703 C 766.47266 129.90703 766.27305 130.99967 765.87305 131.98633 C 765.49971 132.97299 764.96675 133.82687 764.27344 134.54688 C 763.60678 135.24022 762.80639 135.77314 761.87305 136.14648 C 760.96639 136.5198 759.98072 136.70703 758.91406 136.70703 C 757.84738 136.70703 756.84738 136.5198 755.91406 136.14648 C 755.0074 135.77314 754.20701 135.24022 753.51367 134.54688 C 752.84701 133.82687 752.31406 132.97299 751.91406 131.98633 C 751.54072 130.99967 751.35352 129.90703 751.35352 128.70703 C 751.35352 127.48037 751.54072 126.38578 751.91406 125.42578 C 752.31406 124.43912 752.84701 123.59959 753.51367 122.90625 C 754.20701 122.18625 755.0074 121.63894 755.91406 121.26562 C 756.84738 120.89228 757.84738 120.70703 758.91406 120.70703 z M 168.67578 120.94531 L 173.07617 120.94531 C 174.72949 120.94531 175.95586 121.30539 176.75586 122.02539 C 177.58252 122.74539 177.99609 123.75975 177.99609 125.06641 C 177.99609 126.34641 177.58252 127.34641 176.75586 128.06641 C 175.95586 128.78641 174.72949 129.14648 173.07617 129.14648 L 168.67578 129.14648 L 168.67578 120.94531 z M 530.03516 120.94531 L 534.43555 120.94531 C 536.08889 120.94531 537.31523 121.30539 538.11523 122.02539 C 538.94189 122.74539 539.35547 123.75975 539.35547 125.06641 C 539.35547 126.34641 538.94189 127.34641 538.11523 128.06641 C 537.31523 128.78641 536.08889 129.14648 534.43555 129.14648 L 530.03516 129.14648 L 530.03516 120.94531 z M 597.03516 120.94531 L 601.43359 120.94531 C 603.08694 120.94531 604.31523 121.30539 605.11523 122.02539 C 605.94189 122.74539 606.35352 123.75975 606.35352 125.06641 C 606.35352 126.34641 605.94189 127.34641 605.11523 128.06641 C 604.31523 128.78641 603.08694 129.14648 601.43359 129.14648 L 597.03516 129.14648 L 597.03516 120.94531 z M 786.55273 120.94531 L 790.95312 120.94531 C 792.60644 120.94531 793.83281 121.30539 794.63281 122.02539 C 795.45947 122.74539 795.87305 123.75975 795.87305 125.06641 C 795.87305 126.34641 795.45947 127.34641 794.63281 128.06641 C 793.83281 128.78641 792.60644 129.14648 790.95312 129.14648 L 786.55273 129.14648 L 786.55273 120.94531 z M 816.15234 120.94531 L 820.55273 120.94531 C 822.20608 120.94531 823.43242 121.30539 824.23242 122.02539 C 825.05908 122.74539 825.47266 123.75975 825.47266 125.06641 C 825.47266 126.34641 825.05908 127.34641 824.23242 128.06641 C 823.43242 128.78641 822.20608 129.14648 820.55273 129.14648 L 816.15234 129.14648 L 816.15234 120.94531 z M 209.91602 121.02539 L 214.91602 121.02539 C 216.51602 121.02539 217.90286 121.332 219.07617 121.94531 C 220.27617 122.532 221.21029 123.40022 221.87695 124.54688 C 222.54364 125.69353 222.87695 127.08037 222.87695 128.70703 C 222.87695 130.30703 222.54364 131.69192 221.87695 132.86523 C 221.21029 134.01192 220.27617 134.89254 219.07617 135.50586 C 217.90286 136.09254 216.51602 136.38672 214.91602 136.38672 L 209.91602 136.38672 L 209.91602 121.02539 z M 443.23438 121.02539 L 448.23438 121.02539 C 449.83436 121.02539 451.22118 121.33201 452.39453 121.94531 C 453.59453 122.53201 454.52864 123.4002 455.19531 124.54688 C 455.86195 125.69355 456.19531 127.08036 456.19531 128.70703 C 456.19531 130.30702 455.86198 131.69192 455.19531 132.86523 C 454.52864 134.01191 453.59453 134.89256 452.39453 135.50586 C 451.22118 136.09259 449.83436 136.38672 448.23438 136.38672 L 443.23438 136.38672 L 443.23438 121.02539 z M 629.63281 122.47266 L 633.22656 131.42578 L 626.04102 131.42578 L 629.63281 122.47266 z M 60.796875 122.47461 L 64.388672 131.42578 L 57.205078 131.42578 L 60.796875 122.47461 z "
       transform="matrix(0.26458333,0,0,0.26458333,168.03531,170.75218)" />
    <path
       id="path888"
       style="font-weight:bold;font-size:38.1px;line-height:1.25;font-family:Montserrat;-inkscape-font-specification:'Montserrat Bold';stroke-width:0.999999"
       d="M 156.38281 0 C 146.87881 0 138.95905 1.4403125 132.62305 4.3203125 C 126.38305 7.1043125 121.67972 10.895312 118.51172 15.695312 C 115.43972 20.399313 113.9043 25.632578 113.9043 31.392578 C 113.9043 36.768578 114.96027 41.184625 117.07227 44.640625 C 119.28027 48.096625 122.11236 50.880187 125.56836 52.992188 C 129.02436 55.104188 132.81536 56.831781 136.94336 58.175781 C 141.16736 59.519781 145.34466 60.672812 149.47266 61.632812 C 153.69666 62.496813 157.53619 63.455719 160.99219 64.511719 C 164.44819 65.471719 167.23175 66.768391 169.34375 68.400391 C 171.45575 69.936391 172.51172 72.048328 172.51172 74.736328 C 172.51172 76.848328 171.84009 78.719562 170.49609 80.351562 C 169.15209 81.983563 167.04016 83.280234 164.16016 84.240234 C 161.37616 85.104234 157.68027 85.535156 153.07227 85.535156 C 147.02427 85.535156 141.02427 84.57625 135.07227 82.65625 C 129.21627 80.64025 124.12859 78.095438 119.80859 75.023438 L 111.88867 92.591797 C 116.40067 96.047797 122.35214 98.879891 129.74414 101.08789 C 137.13614 103.19989 144.86373 104.25586 152.92773 104.25586 C 162.52773 104.25586 170.4475 102.81555 176.6875 99.935547 C 183.0235 97.055547 187.77536 93.264547 190.94336 88.560547 C 194.11136 83.856547 195.69531 78.671813 195.69531 73.007812 C 195.69531 67.727812 194.59081 63.360297 192.38281 59.904297 C 190.27081 56.448297 187.48725 53.664734 184.03125 51.552734 C 180.57525 49.440734 176.73572 47.759719 172.51172 46.511719 C 168.38372 45.263719 164.20838 44.159219 159.98438 43.199219 C 155.85637 42.239219 152.06342 41.280313 148.60742 40.320312 C 145.15142 39.360312 142.36786 38.112172 140.25586 36.576172 C 138.14386 34.944172 137.08789 32.832234 137.08789 30.240234 C 137.08789 28.032234 137.71098 26.112469 138.95898 24.480469 C 140.20698 22.752469 142.27234 21.360688 145.15234 20.304688 C 148.03234 19.248687 151.72823 18.720703 156.24023 18.720703 C 160.75223 18.720703 165.36045 19.392328 170.06445 20.736328 C 174.76845 21.984328 179.47178 23.952625 184.17578 26.640625 L 191.375 8.9277344 C 186.671 5.9517344 181.24752 3.7446875 175.10352 2.3046875 C 168.95952 0.7686875 162.71881 0 156.38281 0 z M 248.25586 0 C 238.75186 0 230.83209 1.4403125 224.49609 4.3203125 C 218.25609 7.1043125 213.55081 10.895312 210.38281 15.695312 C 207.31081 20.399313 205.77539 25.632578 205.77539 31.392578 C 205.77539 36.768578 206.83136 41.184625 208.94336 44.640625 C 211.15136 48.096625 213.98345 50.880187 217.43945 52.992188 C 220.89545 55.104188 224.68841 56.831781 228.81641 58.175781 C 233.04041 59.519781 237.21575 60.672812 241.34375 61.632812 C 245.56775 62.496813 249.40728 63.455719 252.86328 64.511719 C 256.31928 65.471719 259.10284 66.768391 261.21484 68.400391 C 263.32684 69.936391 264.38281 72.048328 264.38281 74.736328 C 264.38281 76.848328 263.71119 78.719562 262.36719 80.351562 C 261.02319 81.983563 258.91125 83.280234 256.03125 84.240234 C 253.24725 85.104234 249.55136 85.535156 244.94336 85.535156 C 238.89536 85.535156 232.89536 84.57625 226.94336 82.65625 C 221.08736 80.64025 215.99969 78.095438 211.67969 75.023438 L 203.75977 92.591797 C 208.27177 96.047797 214.22323 98.879891 221.61523 101.08789 C 229.00723 103.19989 236.73483 104.25586 244.79883 104.25586 C 254.39883 104.25586 262.31859 102.81555 268.55859 99.935547 C 274.89459 97.055547 279.64841 93.264547 282.81641 88.560547 C 285.98441 83.856547 287.56836 78.671813 287.56836 73.007812 C 287.56836 67.727812 286.46386 63.360297 284.25586 59.904297 C 282.14386 56.448297 279.3603 53.664734 275.9043 51.552734 C 272.4483 49.440734 268.60681 47.759719 264.38281 46.511719 C 260.25481 45.263719 256.07947 44.159219 251.85547 43.199219 C 247.72747 42.239219 243.93647 41.280313 240.48047 40.320312 C 237.02447 39.360312 234.23895 38.112172 232.12695 36.576172 C 230.01495 34.944172 228.95898 32.832234 228.95898 30.240234 C 228.95898 28.032234 229.58403 26.112469 230.83203 24.480469 C 232.08003 22.752469 234.14344 21.360688 237.02344 20.304688 C 239.90344 19.248687 243.59933 18.720703 248.11133 18.720703 C 252.62333 18.720703 257.23155 19.392328 261.93555 20.736328 C 266.63955 21.984328 271.34287 23.952625 276.04688 26.640625 L 283.24805 8.9277344 C 278.54405 5.9517344 273.11861 3.7446875 266.97461 2.3046875 C 260.83061 0.7686875 254.59186 0 248.25586 0 z M 613.43945 0 C 605.56745 0 598.27078 1.2966719 591.55078 3.8886719 C 584.83078 6.4806719 578.97442 10.128031 573.98242 14.832031 C 568.99042 19.536031 565.10236 25.056578 562.31836 31.392578 C 559.63036 37.728578 558.28711 44.640906 558.28711 52.128906 C 558.28711 59.616906 559.63036 66.527281 562.31836 72.863281 C 565.10236 79.199281 568.94189 84.719828 573.83789 89.423828 C 578.82989 94.127828 584.68625 97.775187 591.40625 100.36719 C 598.22225 102.95919 605.61403 104.25586 613.58203 104.25586 C 621.45403 104.25586 628.70217 102.95919 635.32617 100.36719 C 642.04617 97.775187 647.854 94.176359 652.75 89.568359 C 657.742 84.864359 661.63006 79.343813 664.41406 73.007812 C 667.19806 66.575812 668.58984 59.616906 668.58984 52.128906 C 668.58984 44.544906 667.19806 37.632578 664.41406 31.392578 C 661.63006 25.056578 657.742 19.536031 652.75 14.832031 C 647.854 10.128031 642.04617 6.4806719 635.32617 3.8886719 C 628.70217 1.2966719 621.40745 0 613.43945 0 z M 0.86328125 1.7285156 L 0.86328125 102.52734 L 46.65625 102.52734 C 57.60025 102.52734 67.247609 100.46394 75.599609 96.335938 C 83.951609 92.111937 90.479594 86.255578 95.183594 78.767578 C 99.887594 71.183578 102.24023 62.304906 102.24023 52.128906 C 102.24023 41.856906 99.887594 32.976281 95.183594 25.488281 C 90.479594 18.000281 83.951609 12.192453 75.599609 8.0644531 C 67.247609 3.8404531 57.60025 1.7285156 46.65625 1.7285156 L 0.86328125 1.7285156 z M 344.30273 1.7285156 L 344.30273 102.52734 L 367.63086 102.52734 L 367.63086 74.736328 L 387.93555 74.736328 C 396.95955 74.736328 404.73567 73.296016 411.26367 70.416016 C 417.79167 67.440016 422.83081 63.216141 426.38281 57.744141 C 429.93481 52.272141 431.71094 45.792688 431.71094 38.304688 C 431.71094 30.720687 429.93481 24.192703 426.38281 18.720703 C 422.83081 13.248703 417.79167 9.0714063 411.26367 6.1914062 C 404.73567 3.2154062 396.95955 1.7285156 387.93555 1.7285156 L 344.30273 1.7285156 z M 448.27148 1.7285156 L 448.27148 102.52734 L 471.59961 102.52734 L 471.59961 61.199219 L 517.39062 61.199219 L 517.39062 102.52734 L 540.71875 102.52734 L 540.71875 1.7285156 L 517.39062 1.7285156 L 517.39062 41.472656 L 471.59961 41.472656 L 471.59961 1.7285156 L 448.27148 1.7285156 z M 686.1582 1.7285156 L 686.1582 102.52734 L 764.20703 102.52734 L 764.20703 83.808594 L 709.3418 83.808594 L 709.3418 60.480469 L 756.14258 60.480469 L 756.14258 42.335938 L 709.3418 42.335938 L 709.3418 20.447266 L 762.33398 20.447266 L 762.33398 1.7285156 L 686.1582 1.7285156 z M 782.7832 1.7285156 L 782.7832 102.52734 L 805.82227 102.52734 L 805.82227 41.345703 L 856.07812 102.52734 L 875.23047 102.52734 L 875.23047 1.7285156 L 852.19141 1.7285156 L 852.19141 62.882812 L 802.07812 1.7285156 L 782.7832 1.7285156 z M 899.13477 1.7285156 L 899.13477 102.52734 L 922.46289 102.52734 L 922.46289 1.7285156 L 899.13477 1.7285156 z M 936.71875 1.7285156 L 972.07227 51.201172 L 934.8457 102.52734 L 961.63086 102.52734 L 985.57422 67.496094 L 1009.8711 102.52734 L 1036.7988 102.52734 L 999.19531 50.404297 L 1034.3496 1.7285156 L 1009.0059 1.7285156 L 986.32617 34.361328 L 963.21484 1.7285156 L 936.71875 1.7285156 z M 613.43945 19.871094 C 617.95145 19.871094 622.1268 20.639781 625.9668 22.175781 C 629.8068 23.711781 633.11834 25.920781 635.90234 28.800781 C 638.78234 31.680781 640.99134 35.087437 642.52734 39.023438 C 644.15934 42.959438 644.97461 47.328906 644.97461 52.128906 C 644.97461 56.928906 644.15934 61.296422 642.52734 65.232422 C 640.99134 69.168422 638.78234 72.575078 635.90234 75.455078 C 633.02234 78.335078 629.66227 80.544078 625.82227 82.080078 C 622.07827 83.616078 617.95145 84.384766 613.43945 84.384766 C 608.92745 84.384766 604.75016 83.616078 600.91016 82.080078 C 597.07016 80.544078 593.71008 78.335078 590.83008 75.455078 C 588.04608 72.575078 585.83903 69.168422 584.20703 65.232422 C 582.67103 61.200422 581.90234 56.832906 581.90234 52.128906 C 581.90234 47.328906 582.67103 42.959438 584.20703 39.023438 C 585.83903 35.087437 588.09461 31.680781 590.97461 28.800781 C 593.85461 25.920781 597.16616 23.711781 600.91016 22.175781 C 604.75016 20.639781 608.92745 19.871094 613.43945 19.871094 z M 367.63086 20.736328 L 386.63867 20.736328 C 393.83867 20.736328 399.21558 22.27175 402.76758 25.34375 C 406.31958 28.41575 408.0957 32.736687 408.0957 38.304688 C 408.0957 43.776688 406.31958 48.047141 402.76758 51.119141 C 399.21558 54.191141 393.83867 55.728516 386.63867 55.728516 L 367.63086 55.728516 L 367.63086 20.736328 z M 24.191406 20.880859 L 45.503906 20.880859 C 52.223906 20.880859 58.031734 22.175578 62.927734 24.767578 C 67.919734 27.263578 71.759266 30.864359 74.447266 35.568359 C 77.231266 40.176359 78.623047 45.696906 78.623047 52.128906 C 78.623047 58.464906 77.231266 63.9835 74.447266 68.6875 C 71.759266 73.3915 67.919734 77.040812 62.927734 79.632812 C 58.031734 82.128813 52.223906 83.376953 45.503906 83.376953 L 24.191406 83.376953 L 24.191406 20.880859 z "
       transform="matrix(0.26458333,0,0,0.26458333,168.03531,170.75218)" />
  </g>
</svg>
