<?xml version="1.0" encoding="UTF-8" standalone="no"?>
<!-- Created with Inkscape (http://www.inkscape.org/) -->

<svg
   width="256mm"
   height="256.00131mm"
   viewBox="0 0 256 256.00131"
   version="1.1"
   id="svg51757"
   inkscape:version="1.1.2 (0a00cf5339, 2022-02-04, custom)"
   sodipodi:docname="DSS Vendetta - Seal.svg"
   xmlns:inkscape="http://www.inkscape.org/namespaces/inkscape"
   xmlns:sodipodi="http://sodipodi.sourceforge.net/DTD/sodipodi-0.dtd"
   xmlns="http://www.w3.org/2000/svg"
   xmlns:svg="http://www.w3.org/2000/svg">
  <sodipodi:namedview
     id="namedview51759"
     pagecolor="#505050"
     bordercolor="#ffffff"
     borderopacity="1"
     inkscape:pageshadow="0"
     inkscape:pageopacity="0"
     inkscape:pagecheckerboard="1"
     inkscape:document-units="mm"
     showgrid="false"
     inkscape:zoom="0.733172"
     inkscape:cx="489.65318"
     inkscape:cy="501.92861"
     inkscape:window-width="1920"
     inkscape:window-height="1009"
     inkscape:window-x="-8"
     inkscape:window-y="-8"
     inkscape:window-maximized="1"
     inkscape:current-layer="layer1" />
  <defs
     id="defs51754">
    <inkscape:path-effect
       effect="fillet_chamfer"
       id="path-effect1676"
       is_visible="true"
       lpeversion="1"
       satellites_param="F,0,0,1,0,2.1166667,0,1 @ F,0,0,1,0,2.1166667,0,1 @ F,0,0,1,0,2.1166667,0,1 @ F,0,0,1,0,2.1166667,0,1 @ F,0,0,1,0,2.1166667,0,1 @ F,0,0,1,0,2.1166667,0,1 @ F,0,0,1,0,2.1166667,0,1 @ F,0,0,1,0,2.1166667,0,1 @ F,0,0,1,0,2.1166667,0,1 @ F,0,0,1,0,2.1166667,0,1 @ F,0,0,1,0,2.1166667,0,1 @ F,0,0,1,0,2.1166667,0,1 @ F,0,0,1,0,2.1166667,0,1 @ F,0,0,1,0,2.1166667,0,1 @ F,0,0,1,0,2.1166667,0,1 @ F,0,0,1,0,2.1166667,0,1 | F,0,0,1,0,0,0,1 @ F,0,0,1,0,2.1166667,0,1 @ F,0,0,1,0,2.1166667,0,1 @ F,0,0,1,0,2.1166667,0,1 @ F,0,0,1,0,2.1166667,0,1 @ F,0,0,1,0,2.1166667,0,1 @ F,0,0,1,0,2.1166667,0,1 @ F,0,0,1,0,2.1166667,0,1 @ F,0,0,1,0,2.1166667,0,1 @ F,0,0,1,0,2.1166667,0,1 @ F,0,0,1,0,2.1166667,0,1 @ F,0,0,1,0,2.1166667,0,1 @ F,0,0,1,0,2.1166667,0,1 @ F,0,0,1,0,2.1166667,0,1 @ F,0,0,1,0,2.1166667,0,1 @ F,0,0,1,0,2.1166667,0,1 @ F,0,0,1,0,2.1166667,0,1"
       unit="px"
       method="auto"
       mode="F"
       radius="8"
       chamfer_steps="1"
       flexible="false"
       use_knot_distance="true"
       apply_no_radius="true"
       apply_with_radius="true"
       only_selected="false"
       hide_knots="false" />
    <inkscape:path-effect
       effect="fillet_chamfer"
       id="path-effect1328"
       is_visible="true"
       lpeversion="1"
       satellites_param="F,0,0,1,0,2.38125,0,1 @ F,0,0,1,0,2.38125,0,1 @ F,0,0,1,0,2.38125,0,1 @ F,0,0,1,0,2.38125,0,1 @ F,0,0,1,0,2.38125,0,1 @ F,0,0,1,0,2.38125,0,1 @ F,0,0,1,0,2.38125,0,1 @ F,0,0,1,0,2.38125,0,1 @ F,0,0,1,0,2.38125,0,1 @ F,0,0,1,0,2.38125,0,1 @ F,0,0,1,0,2.38125,0,1 @ F,0,0,1,0,2.38125,0,1 @ F,0,0,1,0,2.38125,0,1 @ F,0,0,1,0,2.38125,0,1 @ F,0,0,1,0,2.38125,0,1 @ F,0,0,1,0,2.38125,0,1 @ F,0,0,1,0,2.38125,0,1 | F,0,0,1,0,0,0,1 @ F,0,0,1,0,2.38125,0,1 @ F,0,0,1,0,2.38125,0,1 @ F,0,0,1,0,2.38125,0,1 @ F,0,0,1,0,2.38125,0,1 @ F,0,0,1,0,2.38125,0,1 @ F,0,0,1,0,2.38125,0,1 @ F,0,0,1,0,2.38125,0,1 @ F,0,0,1,0,2.38125,0,1 @ F,0,0,1,0,2.38125,0,1 @ F,0,0,1,0,2.38125,0,1 @ F,0,0,1,0,2.38125,0,1 @ F,0,0,1,0,2.38125,0,1 @ F,0,0,1,0,2.38125,0,1 @ F,0,0,1,0,2.38125,0,1 @ F,0,0,1,0,2.38125,0,1 @ F,0,0,1,0,2.38125,0,1 @ F,0,0,1,0,2.38125,0,1 @ F,0,0,1,0,2.38125,0,1"
       unit="px"
       method="auto"
       mode="F"
       radius="9"
       chamfer_steps="1"
       flexible="false"
       use_knot_distance="true"
       apply_no_radius="true"
       apply_with_radius="true"
       only_selected="false"
       hide_knots="false" />
  </defs>
  <g
     inkscape:label="Layer 1"
     inkscape:groupmode="layer"
     id="layer1"
     transform="translate(-78.114547,-42.02701)">
    <circle
       style="fill:#2b303a;fill-opacity:1;stroke-width:8.76177"
       id="path19849"
       cx="206.11453"
       cy="170.02768"
       r="123.73333" />
    <path
       id="path294"
       style="fill:#ebf5ee;fill-opacity:1;fill-rule:nonzero;stroke:none;stroke-width:0.264975"
       d="m 192.92489,58.108688 c -52.07562,6.057336 -92.67546,46.657192 -98.73279,98.732802 -0.06872,0.58825 0.355805,1.12186 0.944046,1.18808 0.04242,0.006 0.08615,0.007 0.128564,0.007 0.537867,0 1.002475,-0.40196 1.066067,-0.95047 5.940733,-51.07931 45.765433,-90.903954 96.844693,-96.844716 0.59091,-0.06888 1.00659,-0.599836 0.93764,-1.188081 -0.0661,-0.590891 -0.59719,-1.018199 -1.18809,-0.944044 z m 26.38184,0 c -0.58028,-0.07685 -1.12298,0.353153 -1.1945,0.944043 -0.0635,0.588246 0.35956,1.119133 0.95046,1.188082 51.07667,5.940762 90.89489,45.765407 96.83829,96.844717 0.0635,0.5485 0.53079,0.95046 1.06606,0.95046 0.0424,0 0.0861,-4.5e-4 0.12857,-0.007 0.5909,-0.0662 1.01299,-0.59984 0.94404,-1.18808 -6.05746,-52.07546 -46.65996,-92.675316 -98.73292,-98.732652 z M 95.136146,182.02882 c -0.588241,0.0689 -1.012997,0.59719 -0.944046,1.18808 6.05733,52.07297 46.65717,92.67813 98.73279,98.7328 0.0424,0.006 0.0862,0.007 0.12856,0.007 0.53794,0 0.9961,-0.40197 1.05966,-0.95047 0.0687,-0.59091 -0.34673,-1.12555 -0.93764,-1.1945 -51.07926,-5.94076 -90.90133,-45.75898 -96.844693,-96.83829 -0.06905,-0.59089 -0.593041,-0.99968 -1.1945,-0.94405 z m 221.959334,0 c -0.57499,-0.0583 -1.12299,0.35315 -1.1945,0.94404 -5.9434,51.07932 -45.76162,90.89754 -96.83829,96.8383 -0.5909,0.0689 -1.01405,0.60359 -0.95046,1.1945 0.0687,0.5485 0.53462,0.95047 1.07248,0.95047 0.0398,0 0.0796,-4.5e-4 0.12199,-0.007 52.07296,-6.05467 92.67546,-46.65983 98.73279,-98.7328 0.0691,-0.59089 -0.35314,-1.11913 -0.94405,-1.18808 z" />
    <path
       d="m 283.13366,262.72536 c -0.42032,-0.0533 -0.84788,-0.0448 -1.26794,0.0276 -1.13994,0.19661 -2.65271,1.44751 -3.58169,2.15711 -42.78684,32.68252 -101.54495,32.6825 -144.33431,-5e-5 -0.929,-0.70957 -2.44162,-1.96057 -3.58151,-2.15778 -0.4204,-0.0727 -0.84808,-0.0812 -1.26848,-0.0277 -1.1482,0.14607 -2.67801,0.14802 -3.55715,-0.62246 -4.08113,-3.57673 -7.92332,-7.41739 -11.49877,-11.49815 -0.77036,-0.87924 -0.76961,-2.40995 -0.62399,-3.55825 0.0533,-0.4207 0.0449,-0.84873 -0.0277,-1.26943 -0.19668,-1.14 -1.44636,-2.65339 -2.15593,-3.58239 -32.682556,-42.78924 -32.682556,-101.54239 0,-144.33163 0.70957,-0.928999 1.95927,-2.44238 2.15596,-3.582383 0.0725,-0.419954 0.081,-0.847151 0.0279,-1.266979 -0.1452,-1.148297 -0.14679,-2.678966 0.6234,-3.558367 3.57544,-4.082459 7.41764,-7.923158 11.49877,-11.49824 0.87931,-0.770283 2.42403,-0.79661 3.57465,-0.662977 0.4146,0.04815 0.83052,0.03855 1.23402,-0.02566 1.14261,-0.181814 2.66983,-1.409354 3.59883,-2.118927 42.78927,-32.682577 101.54248,-32.682561 144.33423,4.8e-5 0.92902,0.709547 2.44313,1.957636 3.58317,2.154598 0.41965,0.0725 0.84663,0.08146 1.26627,0.02881 1.14835,-0.144069 2.67879,-0.146178 3.55811,0.624104 4.08115,3.575082 7.92334,7.415782 11.49878,11.498242 0.77018,0.879402 0.76759,2.40958 0.62216,3.557803 -0.0532,0.419807 -0.0446,0.84699 0.0277,1.266937 0.19644,1.140088 1.44524,2.653969 2.15485,3.582942 32.68512,42.789328 32.68512,101.545058 0,144.334388 -0.70961,0.92897 -1.95858,2.4428 -2.15492,3.5829 -0.0723,0.41986 -0.0808,0.84697 -0.0275,1.26681 0.14571,1.14824 0.14766,2.67841 -0.6227,3.55765 -3.57544,4.08076 -7.41763,7.92142 -11.49878,11.49815 -0.87914,0.77048 -2.40923,0.76902 -3.55747,0.62333 z M 306.43919,90.854679 c -0.80768,-1.022611 -1.9846,-1.574892 -3.18955,-1.623799 -1.15632,-0.04693 -2.66238,-0.298619 -3.43242,-1.178144 -3.64439,-4.162525 -7.56125,-8.079379 -11.72377,-11.723752 -0.87953,-0.770044 -1.1318,-2.276228 -1.17875,-3.432558 -0.0213,-0.524907 -0.13802,-1.044405 -0.34722,-1.530393 -0.45751,-1.062775 -2.01792,-2.251346 -2.94607,-2.962034 -45.93064,-35.169319 -109.07843,-35.169318 -155.00908,10e-7 -0.92815,0.710688 -2.48851,1.899115 -2.94657,2.961658 -0.2096,0.486193 -0.32659,1.005934 -0.34792,1.531084 -0.047,1.15629 -0.29789,2.662381 -1.17726,3.432602 -4.16095,3.644478 -8.07807,7.56145 -11.72589,11.724103 -0.77044,0.879178 -2.2772,1.130759 -3.43341,1.178793 -0.52363,0.02175 -1.04197,0.138531 -1.52701,0.347285 -1.06285,0.457437 -2.25204,2.017124 -2.96271,2.945291 -35.169338,45.933054 -35.169353,109.075864 -4e-5,155.006414 0.71069,0.92815 1.94523,2.42961 3.00862,2.89688 0.46935,0.20624 0.95467,0.32405 1.44602,0.35091 1.1553,0.0631 2.66321,0.30498 3.43314,1.1846 3.65695,4.17794 7.58542,8.10835 11.76125,11.76572 0.87939,0.77021 1.13034,2.27626 1.17729,3.43253 0.0213,0.52516 0.13831,1.0449 0.34791,1.5311 0.45806,1.06257 2.01852,2.2509 2.94676,2.96147 22.37568,17.12852 48.82437,25.91317 75.3878,26.35624 1.16882,0.0195 3.0643,0.0195 4.23313,-10e-6 26.55893,-0.44326 53.01903,-9.23016 75.3879,-26.35609 0.92819,-0.71064 2.48861,-1.89916 2.94612,-2.96191 0.20921,-0.48599 0.32592,-1.0055 0.34724,-1.53041 0.047,-1.15634 0.29908,-2.66271 1.17847,-3.43292 4.17555,-3.65712 8.10361,-7.58708 11.75866,-11.76302 0.76991,-0.87964 2.28308,-1.13502 3.43551,-1.21436 1.2527,-0.0862 2.45628,-0.69646 3.15185,-1.54799 36.90048,-46.61711 36.90048,-111.73218 0,-158.349291"
       style="fill:#ebf5ee;fill-opacity:1;fill-rule:nonzero;stroke:none;stroke-width:0.264975"
       id="path302"
       sodipodi:nodetypes="cccccccccccccccccccccccccccccsccccc"
       inkscape:path-effect="#path-effect1676"
       inkscape:original-d="m 285.08747,263.48349 c -1.5183,-1.07049 -3.60896,-1.08374 -5.13258,0.12719 -43.47184,34.41501 -104.20155,34.41501 -147.67607,0 -1.5289,-1.21358 -3.61427,-1.19768 -5.13258,-0.12719 -5.22,-4.41979 -10.0664,-9.26354 -14.48355,-14.48356 1.06787,-1.51831 1.08376,-3.6063 -0.12719,-5.13522 -34.414996,-43.47451 -34.414996,-104.19892 0,-147.67343 1.21095,-1.5289 1.19506,-3.616913 0.12719,-5.132561 4.41715,-5.222664 9.26355,-10.066423 14.48355,-14.483549 1.63848,1.080881 3.73589,0.94954 5.13258,-0.12719 43.47452,-34.415001 104.19892,-34.415001 147.67607,0 1.52627,1.205624 3.61692,1.197671 5.13258,0.12719 5.22003,4.417126 10.06642,9.260885 14.48356,14.483549 -1.07051,1.515648 -1.08374,3.603661 0.1246,5.132561 34.41764,43.47451 34.41764,104.20158 0,147.67609 -1.20828,1.5289 -1.19505,3.61425 -0.1246,5.13256 -4.41714,5.22002 -9.26353,10.06377 -14.48356,14.48356 z M 306.43919,90.854679 c -1.27453,-1.613696 -3.46852,-2.056209 -5.2412,-1.197688 -4.48605,-5.302161 -9.40665,-10.222754 -14.7088,-14.708778 0.85852,-1.775334 0.41336,-3.969331 -1.19768,-5.243853 -46.61446,-36.903133 -111.73481,-36.903133 -158.34928,0 -1.61106,1.274522 -2.05886,3.468519 -1.1977,5.243853 -5.29951,4.486024 -10.22011,9.406617 -14.71144,14.708778 -1.77269,-0.858521 -3.96668,-0.4107 -5.24121,1.197688 -36.903112,46.617111 -36.903112,111.732181 0,158.346651 1.51233,1.57562 3.41163,2.00324 5.20677,1.15793 4.49929,5.31806 9.43047,10.2519 14.74588,14.75118 -0.86116,1.77533 -0.41336,3.96933 1.1977,5.24387 23.31252,18.45023 51.23827,27.67402 79.17464,27.67402 27.93104,0 55.87005,-9.22645 79.17464,-27.67402 1.61104,-1.27454 2.0562,-3.46854 1.19768,-5.24387 5.31541,-4.49928 10.2466,-9.43312 14.74324,-14.74852 1.81329,0.90742 4.12471,0.16672 5.20676,-1.15795 36.90048,-46.61711 36.90048,-111.73218 0,-158.349291" />
    <path
       id="path304"
       style="fill:#78a1bb;fill-opacity:1;fill-rule:nonzero;stroke:none;stroke-width:0.264975"
       d="m 206.11688,55.005387 c -2.30264,0 -4.16833,1.865693 -4.16833,4.168337 0,2.302643 1.86569,4.166664 4.16833,4.166664 2.29998,0 4.165,-1.864021 4.165,-4.166664 0,-2.302644 -1.86502,-4.168337 -4.165,-4.168337 z m 0,12.356667 c -56.60935,0 -102.66667,46.057336 -102.66667,102.666666 0,56.60933 46.05732,102.665 102.66667,102.665 56.60934,0 102.665,-46.05567 102.665,-102.665 0,-56.60933 -46.05566,-102.666666 -102.665,-102.666666 z m 0,4.300006 c 54.23781,0 98.36334,44.12621 98.36334,98.36666 0,54.23781 -44.12553,98.36667 -98.36334,98.36667 -54.24047,0 -98.36666,-44.12886 -98.36666,-98.36667 0,-54.24045 44.12619,-98.36666 98.36666,-98.36666 z m 0,30.41167 c -28.10859,0 -53.6607,17.66011 -63.58666,43.94833 -0.20934,0.5538 0.0702,1.17469 0.62666,1.38666 0.12454,0.0451 0.25373,0.0684 0.37833,0.0684 0.43457,0 0.8451,-0.26474 1.00667,-0.69667 9.61065,-25.45353 34.35673,-42.55832 61.575,-42.55832 27.22091,0 51.96435,17.10479 61.575,42.55832 0.20669,0.55649 0.82324,0.83768 1.385,0.62834 0.5564,-0.21197 0.83599,-0.83286 0.62667,-1.38667 -9.92599,-26.28821 -35.48074,-43.94833 -63.58667,-43.94833 z m 0,9.13332 c -24.08097,0 -44.76809,14.47656 -53.87,35.195 h 107.74 c -9.09924,-20.71844 -29.78905,-35.195 -53.87,-35.195 z m 0,7.62167 2.73167,8.415 h 8.85 l -7.16001,5.19834 2.73501,8.41666 -7.15667,-5.20166 -7.16,5.20166 2.735,-8.41666 -7.15666,-5.19834 h 8.84667 z m -24.09999,4.01834 2.23666,6.88 h 7.23167 l -5.85167,4.25166 2.235,6.88 -5.85166,-4.25333 -5.85001,4.25333 2.23334,-6.88 -5.85,-4.25166 h 7.23333 z m 48.19999,0 2.23666,6.88 h 7.23001 l -5.85,4.25166 2.23333,6.88 -5.85,-4.25333 -5.85166,4.25333 2.23499,-6.88 -5.85166,-4.25166 h 7.23167 z M 95.261883,165.86205 c -2.302626,0 -4.168346,1.86403 -4.168329,4.16667 0,2.29998 1.865703,4.16667 4.168329,4.16667 2.299998,0 4.165,-1.86669 4.165,-4.16667 0,-2.30264 -1.865002,-4.16667 -4.165,-4.16667 z m 221.709997,0 c -2.30264,0 -4.16833,1.86403 -4.16833,4.16667 0,2.29998 1.86569,4.16667 4.16833,4.16667 2.29998,0 4.165,-1.86669 4.165,-4.16667 0,-2.30264 -1.86502,-4.16667 -4.165,-4.16667 z m -173.395,26.72 c -0.13953,-0.005 -0.28155,0.016 -0.42,0.0684 -0.55638,0.20932 -0.836,0.82856 -0.62666,1.385 9.92596,26.28557 35.47807,43.94999 63.58666,43.94999 28.10593,0 53.66068,-17.66442 63.58667,-43.94999 0.20932,-0.55644 -0.0702,-1.17568 -0.62667,-1.385 -0.56441,-0.20934 -1.17831,0.0685 -1.385,0.62499 -9.61065,25.4562 -34.35409,42.55834 -61.575,42.55834 -27.21827,0 -51.96435,-17.10214 -61.575,-42.55834 -0.15701,-0.41728 -0.54642,-0.67729 -0.965,-0.69333 z m 8.67,1.07167 c 9.10191,20.71842 29.78903,35.19834 53.87,35.19834 24.08095,0 44.77076,-14.47992 53.87,-35.19834 z m 32.98001,5.39501 c 0.66244,0 1.31428,0.0811 1.95666,0.24166 0.64237,0.15056 1.20984,0.38052 1.70166,0.69167 l -0.75333,1.85166 c -0.49182,-0.28104 -0.98318,-0.48618 -1.47499,-0.61667 -0.49183,-0.14051 -0.97327,-0.21167 -1.44501,-0.21167 -0.47174,0 -0.85888,0.0562 -1.16,0.16668 -0.30111,0.1104 -0.51618,0.256 -0.64666,0.43667 -0.13049,0.17063 -0.19667,0.37081 -0.19667,0.60165 0,0.27101 0.11085,0.49271 0.33166,0.66334 0.22083,0.1606 0.512,0.28963 0.87334,0.39 0.36133,0.10038 0.7584,0.2013 1.19,0.30166 0.44163,0.10037 0.8784,0.21619 1.31,0.34667 0.44163,0.13048 0.84199,0.30585 1.20333,0.52667 0.36133,0.22082 0.65252,0.512 0.87333,0.87334 0.23086,0.36134 0.34667,0.81796 0.34667,1.37 0,0.59218 -0.16544,1.13484 -0.49666,1.62666 -0.33123,0.49182 -0.82755,0.88722 -1.49,1.18834 -0.65242,0.3011 -1.48129,0.45166 -2.485,0.45166 -0.84312,0 -1.65048,-0.11085 -2.42334,-0.33167 -0.77286,-0.23085 -1.39492,-0.52533 -1.86667,-0.88666 l 0.82667,-1.83834 c 0.45167,0.3212 0.9844,0.58756 1.59667,0.79834 0.6223,0.20075 1.24933,0.30166 1.88166,0.30166 0.48179,0 0.86892,-0.0446 1.16001,-0.135 0.30111,-0.10037 0.52114,-0.23604 0.66166,-0.40666 0.14052,-0.17063 0.21167,-0.36751 0.21167,-0.58833 0,-0.28104 -0.11086,-0.50108 -0.33166,-0.66167 -0.22083,-0.17063 -0.512,-0.30629 -0.87334,-0.40667 -0.36134,-0.11041 -0.76337,-0.21133 -1.205,-0.30166 -0.4316,-0.10037 -0.86837,-0.21948 -1.31,-0.36001 -0.43159,-0.14051 -0.827,-0.32251 -1.18834,-0.54333 -0.36133,-0.22081 -0.65747,-0.51199 -0.88833,-0.87333 -0.22081,-0.36133 -0.33166,-0.82292 -0.33166,-1.385 0,-0.60222 0.16048,-1.14818 0.48166,-1.64001 0.33122,-0.50185 0.82259,-0.89891 1.47501,-1.18999 0.66245,-0.30111 1.49132,-0.45166 2.485,-0.45166 z m 22.14666,0 c 0.78289,0 1.46618,0.13069 2.04833,0.39166 0.59219,0.25092 1.04882,0.60662 1.37,1.06833 0.33122,0.46171 0.49667,1.0143 0.49667,1.65667 0,0.34126 -0.0446,0.68207 -0.135,1.02333 -0.0803,0.33123 -0.25236,0.68363 -0.51334,1.055 -0.25092,0.37138 -0.62151,0.78663 -1.11333,1.24834 l -2.43,2.28833 h 4.53833 v 1.98833 h -7.96499 v -1.58167 l 4.065,-3.83833 c 0.32118,-0.29107 0.55777,-0.55247 0.70833,-0.78334 0.15055,-0.23085 0.24981,-0.44096 0.3,-0.63166 0.0602,-0.19071 0.09,-0.36774 0.09,-0.52833 0,-0.42156 -0.14559,-0.74251 -0.43667,-0.96334 -0.28104,-0.23085 -0.69629,-0.34499 -1.24833,-0.34499 -0.44163,0 -0.85359,0.0844 -1.235,0.25499 -0.37137,0.17063 -0.68737,0.437 -0.94834,0.79834 l -1.77666,-1.14501 c 0.40149,-0.60222 0.964,-1.07869 1.68667,-1.42999 0.72267,-0.3513 1.55484,-0.52666 2.49833,-0.52666 z m 9.78666,0 c 0.87323,0 1.64585,0.21506 2.31834,0.64666 0.68252,0.42155 1.22022,1.04032 1.61167,1.85333 0.39145,0.81301 0.58666,1.79573 0.58666,2.95 0,1.15427 -0.19521,2.13866 -0.58666,2.95167 -0.39145,0.813 -0.92915,1.43507 -1.61167,1.86667 -0.67249,0.42155 -1.44511,0.63166 -2.31834,0.63166 -0.86318,0 -1.6358,-0.21011 -2.31833,-0.63166 -0.68252,-0.4316 -1.22022,-1.05367 -1.61167,-1.86667 -0.39145,-0.81301 -0.58666,-1.7974 -0.58666,-2.95167 0,-1.15427 0.19521,-2.13699 0.58666,-2.95 0.39145,-0.81301 0.92915,-1.43178 1.61167,-1.85333 0.68253,-0.4316 1.45515,-0.64666 2.31833,-0.64666 z m 9.26,0 c 0.7829,0 1.46452,0.13069 2.04667,0.39166 0.59219,0.25092 1.04882,0.60662 1.37,1.06833 0.33122,0.46171 0.49667,1.0143 0.49667,1.65667 0,0.34126 -0.0446,0.68207 -0.135,1.02333 -0.0803,0.33123 -0.25071,0.68363 -0.51167,1.055 -0.25093,0.37138 -0.62151,0.78663 -1.11333,1.24834 l -2.43001,2.28833 h 4.53667 v 1.98833 h -7.96333 v -1.58167 l 4.065,-3.83833 c 0.32119,-0.29107 0.55611,-0.55247 0.70667,-0.78334 0.15056,-0.23085 0.25148,-0.44096 0.30166,-0.63166 0.0602,-0.19071 0.09,-0.36774 0.09,-0.52833 0,-0.42156 -0.14558,-0.74251 -0.43666,-0.96334 -0.28105,-0.23085 -0.69796,-0.34499 -1.25,-0.34499 -0.44163,0 -0.85193,0.0844 -1.23333,0.25499 -0.37138,0.17063 -0.68904,0.437 -0.95001,0.79834 l -1.77666,-1.14501 c 0.40149,-0.60222 0.964,-1.07869 1.68666,-1.42999 0.72268,-0.3513 1.55651,-0.52666 2.5,-0.52666 z m 8.88167,0 c 0.7829,0 1.46618,0.13069 2.04834,0.39166 0.59219,0.25092 1.0488,0.60662 1.37,1.06833 0.33121,0.46171 0.49666,1.0143 0.49666,1.65667 0,0.34126 -0.0447,0.68207 -0.135,1.02333 -0.0803,0.33123 -0.2507,0.68363 -0.51167,1.055 -0.25092,0.37138 -0.62317,0.78663 -1.115,1.24834 l -2.42833,2.28833 h 4.53667 v 1.98833 h -7.965 v -1.58167 l 4.06499,-3.83833 c 0.32119,-0.29107 0.55778,-0.55247 0.70834,-0.78334 0.15056,-0.23085 0.25149,-0.44096 0.30167,-0.63166 0.0602,-0.19071 0.09,-0.36774 0.09,-0.52833 0,-0.42156 -0.14559,-0.74251 -0.43667,-0.96334 -0.28104,-0.23085 -0.69796,-0.34499 -1.25,-0.34499 -0.44164,0 -0.85359,0.0844 -1.235,0.25499 -0.37137,0.17063 -0.68737,0.437 -0.94833,0.79834 l -1.77667,-1.14501 c 0.40149,-0.60222 0.964,-1.07869 1.68667,-1.42999 0.72267,-0.3513 1.55484,-0.52666 2.49833,-0.52666 z m -64.00167,0.17999 h 7.96501 v 1.95834 h -5.54167 v 2.28833 h 4.89333 v 1.89666 h -4.89333 v 2.43833 h 5.73666 v 1.95834 h -8.16 z m 18.36834,0 h 9.18333 v 1.98833 h -3.37166 v 8.55167 h -2.44001 v -8.55167 h -3.37166 z m 27.49166,1.88333 c -0.40148,0 -0.75718,0.11415 -1.06833,0.345 -0.30112,0.23086 -0.54266,0.59815 -0.72333,1.1 -0.17063,0.50186 -0.25667,1.14873 -0.25667,1.94167 0,0.79293 0.086,1.43981 0.25667,1.94166 0.18067,0.50187 0.42221,0.86915 0.72333,1.10001 0.31115,0.23085 0.66685,0.34667 1.06833,0.34667 0.41152,0 0.76723,-0.11582 1.06834,-0.34667 0.31115,-0.23086 0.5527,-0.59814 0.72333,-1.10001 0.18067,-0.50185 0.27001,-1.14873 0.27001,-1.94166 0,-0.79294 -0.0893,-1.43981 -0.27001,-1.94167 -0.17063,-0.50185 -0.41218,-0.86914 -0.72333,-1.1 -0.30111,-0.23085 -0.65682,-0.345 -1.06834,-0.345 z m -11.04333,75.605 c -2.30264,0 -4.16833,1.86502 -4.16833,4.165 0,2.30264 1.86569,4.16834 4.16833,4.16834 2.29998,0 4.165,-1.8657 4.165,-4.16834 0,-2.29998 -1.86502,-4.165 -4.165,-4.165 z" />
    <path
       id="path858"
       style="font-size:32.6879px;line-height:1.25;font-family:Montserrat;-inkscape-font-specification:'Montserrat, @wght=700';font-variation-settings:'wght' 700;text-align:center;text-anchor:middle;fill:#ebf5ee;stroke-width:2.20616"
       d="M 130.5957 440.65039 L 168.00195 526.91406 L 187.81836 526.91406 L 225.34766 440.65039 L 205.40625 440.65039 L 178.63867 502.26172 L 152.27148 440.65039 L 130.5957 440.65039 z M 232.5332 440.65039 L 232.5332 526.91406 L 299.66406 526.91406 L 299.66406 510.89258 L 252.47266 510.89258 L 252.47266 490.92969 L 292.72852 490.92969 L 292.72852 475.40234 L 252.47266 475.40234 L 252.47266 456.67188 L 298.05273 456.67188 L 298.05273 440.65039 L 232.5332 440.65039 z M 315.64062 440.65039 L 315.64062 526.91406 L 335.45898 526.91406 L 335.45898 474.55664 L 378.68555 526.91406 L 395.1582 526.91406 L 395.1582 440.65039 L 375.3418 440.65039 L 375.3418 492.98438 L 332.23828 440.65039 L 315.64062 440.65039 z M 415.71875 440.65039 L 415.71875 526.91406 L 455.10547 526.91406 C 464.51873 526.91406 472.81818 525.14593 480.00195 521.61328 C 487.18575 517.99849 492.79964 512.98814 496.8457 506.58008 C 500.89174 500.08985 502.91602 492.48961 502.91602 483.78125 C 502.91602 474.9907 500.89174 467.39241 496.8457 460.98438 C 492.79964 454.57631 487.18575 449.60491 480.00195 446.07227 C 472.81818 442.45745 464.51873 440.65039 455.10547 440.65039 L 415.71875 440.65039 z M 518.02734 440.65039 L 518.02734 526.91406 L 585.1582 526.91406 L 585.1582 510.89258 L 537.9668 510.89258 L 537.9668 490.92969 L 578.2207 490.92969 L 578.2207 475.40234 L 537.9668 475.40234 L 537.9668 456.67188 L 583.54688 456.67188 L 583.54688 440.65039 L 518.02734 440.65039 z M 591.34961 440.65039 L 591.34961 456.91797 L 619.0957 456.91797 L 619.0957 526.91406 L 639.16016 526.91406 L 639.16016 456.91797 L 666.9043 456.91797 L 666.9043 440.65039 L 591.34961 440.65039 z M 669.13281 440.65039 L 669.13281 456.91797 L 696.87891 456.91797 L 696.87891 526.91406 L 716.94336 526.91406 L 716.94336 456.91797 L 744.6875 456.91797 L 744.6875 440.65039 L 669.13281 440.65039 z M 778.37695 440.65039 L 739.73242 526.91406 L 760.29297 526.91406 L 768.01953 508.42773 L 808.20898 508.42773 L 815.90625 526.91406 L 836.96289 526.91406 L 798.19531 440.65039 L 778.37695 440.65039 z M 435.78516 457.04102 L 454.11523 457.04102 C 459.89529 457.04102 464.89034 458.14901 469.10156 460.36719 C 473.39531 462.5032 476.69968 465.5838 479.01172 469.60938 C 481.4063 473.55281 482.60352 478.2769 482.60352 483.78125 C 482.60352 489.20346 481.4063 493.92755 479.01172 497.95312 C 476.69968 501.97867 473.39531 505.10015 469.10156 507.31836 C 464.89034 509.45435 459.89529 510.52344 454.11523 510.52344 L 435.78516 510.52344 L 435.78516 457.04102 z M 788.1543 460.25586 L 801.90039 493.27148 L 774.35547 493.27148 L 788.1543 460.25586 z "
       transform="matrix(0.26458333,0,0,0.26458333,78.114547,42.02701)" />
    <g
       aria-label="WALKER DEFENSE"
       id="text31279"
       style="font-weight:bold;font-size:26px;line-height:1.25;font-family:Montserrat;-inkscape-font-specification:'Montserrat Bold';text-align:center;letter-spacing:-2px;text-anchor:middle;fill:#ebf5ee;fill-opacity:1"
       transform="matrix(0,0.85333332,-0.85333332,0,876.06357,-211.52043)">
      <path
         d="m 415.70826,868.82557 -2.67872,18.96087 -3.92069,-1.92552 2.46194,-16.75003 1.96034,0.96276 -11.96027,12.08523 -3.50062,-1.71921 2.4386,-16.7615 1.89033,0.92838 -11.86692,12.13108 -3.6173,-1.77653 13.36727,-13.71153 4.06072,1.99429 -2.1043,14.72423 -1.07352,-0.52722 10.48243,-10.60958 z"
         id="path45384"
         style="fill:#ebf5ee;fill-opacity:1" />
      <path
         d="m 397.37702,859.49151 -18.01204,8.52121 -3.1558,-2.71046 5.68473,-19.10892 3.35303,2.87986 -5.41987,16.52598 -1.26232,-1.08419 15.53813,-7.83557 z m -5.61795,0.31586 -2.93178,1.69758 -7.10054,-6.09852 1.21582,-3.17139 z"
         id="path45386"
         style="fill:#ebf5ee;fill-opacity:1" />
      <path
         d="m 382.22134,845.95853 -14.09674,11.51182 -2.66416,-3.26239 11.4385,-9.34102 -5.77235,-7.0685 2.65824,-2.1708 z"
         id="path45388"
         style="fill:#ebf5ee;fill-opacity:1" />
      <path
         d="m 368.09572,834.03573 -4.12508,2.58407 -12.26686,-3.10228 -2.29093,-4.08093 11.21203,2.71048 3.32197,0.81863 z m 5.47298,1.25103 -15.87029,8.9092 -2.04912,-3.65017 15.87029,-8.9092 z m -6.09644,-10.85982 -3.74579,9.52716 -3.95637,-0.93956 5.29667,-12.87258 z"
         id="path45390"
         style="fill:#ebf5ee;fill-opacity:1" />
      <path
         d="m 353.84179,819.91776 -2.817,-8.29681 3.10207,-1.05324 2.817,8.29681 z m 6.99014,-2.70284 -3.18479,-9.38008 3.20055,-1.08667 4.5306,13.34384 -17.23374,5.85133 -4.42194,-13.02379 3.20056,-1.08667 3.07613,9.06002 z"
         id="path45392"
         style="fill:#ebf5ee;fill-opacity:1" />
      <path
         d="m 360.53691,805.38942 -18.01214,2.60822 -1.12898,-7.79669 q -0.35025,-2.41877 0.19406,-4.28403 0.51858,-1.86153 1.84742,-3.02598 1.32884,-1.16446 3.36164,-1.45881 2.00707,-0.29063 3.61163,0.44906 1.57884,0.74341 2.60416,2.38138 1.02531,1.63797 1.37556,4.05674 l 0.79364,5.48084 -2.09522,-1.58813 6.84462,-0.99112 z m -1.65808,-11.45057 -5.88378,5.44944 -0.6446,-4.45157 5.87633,-5.50091 z m -5.32698,8.2061 -1.68733,2.13586 -0.76011,-5.24926 q -0.27945,-1.92987 -1.24072,-2.76271 -0.98701,-0.82911 -2.45371,-0.61673 -1.49244,0.21611 -2.17799,1.28742 -0.68555,1.0713 -0.40609,3.00117 l 0.7601,5.24925 -2.2496,-1.56577 z"
         id="path45394"
         style="fill:#ebf5ee;fill-opacity:1" />
      <path
         d="m 358.16882,783.0052 -18.07031,-2.16881 0.98526,-8.20909 q 0.35321,-2.94287 1.75861,-5.05243 1.37958,-2.11266 3.54495,-3.13591 2.16537,-1.02325 4.92754,-0.69174 2.73636,0.32842 4.62391,1.83811 1.86173,1.50659 2.72803,3.8888 0.84048,2.37911 0.48727,5.32199 z m -2.93143,-4.59406 0.45855,-3.82058 q 0.21688,-1.80703 -0.29629,-3.20414 -0.53589,-1.42602 -1.71406,-2.30065 -1.17507,-0.90044 -2.87884,-1.10493 -1.72959,-0.20759 -3.05854,0.39232 -1.35168,0.571 -2.18397,1.83281 -0.85502,1.2329 -1.0719,3.03993 l -0.45855,3.82058 z"
         id="path45396"
         style="fill:#ebf5ee;fill-opacity:1" />
      <path
         d="m 351.78636,756.644 2.72337,-8.32802 3.11374,1.01824 -2.72337,8.32801 z m 7.21409,2.03085 3.07895,-9.41536 3.21259,1.05056 -4.38003,13.39402 -17.29855,-5.65686 4.27497,-13.07276 3.21259,1.05056 -2.97389,9.0941 z"
         id="path45398"
         style="fill:#ebf5ee;fill-opacity:1" />
      <path
         d="m 358.90877,740.95978 4.07735,-7.72612 2.98927,1.57755 -4.07735,7.72612 z m 8.99846,4.39604 -1.96587,3.72509 -16.09607,-8.4945 6.4194,-12.16403 2.98928,1.57755 -4.45355,8.43894 z"
         id="path45400"
         style="fill:#ebf5ee;fill-opacity:1" />
      <path
         d="m 366.64978,726.52713 5.33088,-6.95373 2.59991,1.99314 -5.33088,6.95373 z m 6.13248,4.30815 6.0269,-7.86163 2.68245,2.05642 -8.5737,11.18374 -14.44395,-11.07304 8.36805,-10.9155 2.68245,2.05642 -5.82126,7.59339 z"
         id="path45402"
         style="fill:#ebf5ee;fill-opacity:1" />
      <path
         d="m 382.38958,723.95205 -12.06254,-13.62846 2.60887,-2.30912 16.72583,2.6956 -1.2655,1.12009 -8.68503,-9.8125 3.11508,-2.75715 12.06254,13.62847 -2.58941,2.29188 -16.74529,-2.67836 1.2655,-1.1201 8.68503,9.8125 z"
         id="path45404"
         style="fill:#ebf5ee;fill-opacity:1" />
      <path
         d="m 402.21072,708.87648 q -1.87699,1.11659 -3.89,1.64855 -2.0263,0.50961 -3.55506,0.32994 l -0.39274,-3.4572 q 1.43089,0.11687 3.07309,-0.22474 1.65125,-0.37726 3.05899,-1.2147 1.07256,-0.63806 1.60093,-1.22465 0.53743,-0.62224 0.62428,-1.1882 0.0869,-0.56597 -0.20559,-1.05756 -0.37219,-0.62566 -1.07647,-0.69074 -0.71757,-0.0874 -1.65492,0.16767 -0.95064,0.23274 -2.05346,0.61652 -1.09377,0.34814 -2.26305,0.62019 -1.14693,0.25876 -2.2438,0.24571 -1.09686,-0.0131 -2.08934,-0.51174 -0.97013,-0.51198 -1.71453,-1.7633 -0.79756,-1.34071 -0.73387,-2.86099 0.0727,-1.55591 1.13969,-3.06795 1.07599,-1.54767 3.28815,-2.86366 1.47477,-0.87733 3.11754,-1.37054 1.62948,-0.51557 3.13646,-0.47422 l 0.51776,3.41309 q -1.46711,0.0257 -2.73482,0.38654 -1.28101,0.33852 -2.33122,0.96328 -1.05022,0.62476 -1.57435,1.26934 -0.52413,0.64458 -0.57535,1.2196 -0.0645,0.55267 0.24123,1.06661 0.3589,0.60331 1.07647,0.69074 0.70428,0.0651 1.64163,-0.19001 0.93735,-0.25509 2.03111,-0.60323 1.11611,-0.36144 2.24976,-0.64254 1.15599,-0.2944 2.25285,-0.28135 1.09686,0.013 2.06699,0.52503 0.99248,0.49869 1.72358,1.72767 0.78428,1.31836 0.69824,2.85193 -0.086,1.53357 -1.16203,3.08125 -1.05365,1.53438 -3.28815,2.86366 z"
         id="path45406"
         style="fill:#ebf5ee;fill-opacity:1" />
      <path
         d="m 409.2602,692.79899 8.17683,-3.14834 1.17712,3.05721 -8.17683,3.14834 z m 2.98173,6.87581 9.24443,-3.55941 1.2145,3.15427 -13.15087,5.06351 -6.53959,-16.98451 12.83544,-4.94206 1.2145,3.15426 -8.92901,3.43796 z"
         id="path45408"
         style="fill:#ebf5ee;fill-opacity:1" />
    </g>
    <g
       aria-label="DEEP SPACE CORPS                                               "
       id="text31279-2"
       style="font-weight:bold;font-size:26px;line-height:1.25;font-family:Montserrat;-inkscape-font-specification:'Montserrat Bold';text-align:center;text-anchor:middle;fill:#ebf5ee;fill-opacity:1;stroke:none;stroke-opacity:1"
       transform="matrix(0.85308095,-0.0207521,0.0207521,0.85308095,-156.64828,-583.22924)">
      <path
         d="m 299.90935,922.16127 16.90719,-6.73698 3.06051,7.6807 q 1.09717,2.75346 0.87174,5.27825 -0.20128,2.51516 -1.61364,4.44936 -1.41235,1.93419 -3.99674,2.96399 -2.56023,1.02017 -4.93991,0.59698 -2.35554,-0.43281 -4.25558,-2.11067 -1.8759,-1.68748 -2.97306,-4.44094 z m 4.77149,2.63278 1.42439,3.57466 q 0.6737,1.69072 1.79252,2.6723 1.15259,0.99611 2.60557,1.20081 1.46261,0.22885 3.05672,-0.40635 1.61826,-0.64482 2.4985,-1.80723 0.91403,-1.14787 1.04155,-2.65407 0.1613,-1.49166 -0.5124,-3.18238 l -1.42439,-3.57466 z"
         id="path40111"
         style="fill:#ebf5ee;fill-opacity:1;stroke:none;stroke-opacity:1" />
      <path
         d="m 319.66054,939.42413 4.64479,7.42957 -2.77782,1.73663 -4.64479,-7.42957 z m -6.18392,4.234 5.25124,8.3996 -2.866,1.79176 -7.47027,-11.94904 15.43234,-9.64795 7.29109,11.66244 -2.866,1.79177 -5.07207,-8.11301 z"
         id="path40113"
         style="fill:#ebf5ee;fill-opacity:1;stroke:none;stroke-opacity:1" />
      <path
         d="m 328.67123,952.27813 5.76832,6.59539 -2.46593,2.1567 -5.76832,-6.59539 z m -5.43102,5.16446 6.52145,7.4565 -2.54421,2.22517 -9.27724,-10.60742 13.69963,-11.98167 9.05471,10.353 -2.54421,2.22517 -6.29894,-7.20209 z"
         id="path40115"
         style="fill:#ebf5ee;fill-opacity:1;stroke:none;stroke-opacity:1" />
      <path
         d="m 329.65966,969.46768 11.52094,-14.08929 6.09865,4.98692 q 1.89199,1.54709 2.75045,3.29023 0.87492,1.723 0.6815,3.47923 -0.19341,1.75624 -1.49363,3.34631 -1.28376,1.56995 -2.96661,2.10826 -1.68286,0.53831 -3.56174,0.0431 -1.86243,-0.51534 -3.75442,-2.06244 l -4.28717,-3.50566 2.65065,-0.2843 -4.37795,5.35393 z m 7.34237,-2.32536 -0.18188,-2.73484 4.10602,3.35753 q 1.50957,1.23439 2.78096,1.19927 1.27139,-0.0351 2.20952,-1.18239 0.95459,-1.16739 0.73654,-2.42044 -0.21804,-1.25305 -1.72761,-2.48743 l -4.10602,-3.35753 2.71648,-0.36481 z"
         id="path40117"
         style="fill:#ebf5ee;fill-opacity:1;stroke:none;stroke-opacity:1" />
      <path
         d="m 356.21993,987.88963 q -1.96256,-0.95823 -3.51061,-2.35062 -1.53664,-1.41575 -2.22407,-2.793 l 2.67674,-2.22297 q 0.68633,1.26098 1.87196,2.44748 1.2204,1.17455 2.69232,1.89322 1.12147,0.54757 1.90168,0.66811 0.81499,0.10859 1.33602,-0.12889 0.52102,-0.23748 0.77198,-0.75148 0.31942,-0.65419 -0.0121,-1.27897 -0.32007,-0.64815 -1.04709,-1.29246 -0.71562,-0.66768 -1.64096,-1.37989 -0.89056,-0.72416 -1.75886,-1.55319 -0.84494,-0.81762 -1.43507,-1.74229 -0.59013,-0.92468 -0.71683,-2.02815 -0.10333,-1.09206 0.53549,-2.40044 0.68446,-1.40182 1.99107,-2.18161 1.34139,-0.79174 3.19085,-0.7278 1.88424,0.052 4.19726,1.18134 1.54201,0.7529 2.85477,1.8568 1.32417,1.08054 2.11536,2.36379 l -2.57132,2.30337 q -0.82541,-1.21315 -1.82194,-2.07585 -0.98512,-0.88607 -2.08322,-1.42222 -1.0981,-0.53616 -1.9245,-0.62139 -0.82639,-0.0852 -1.33546,0.18703 -0.49766,0.24889 -0.76003,0.78625 -0.30801,0.63083 0.0121,1.27898 0.33148,0.62478 1.0585,1.26909 0.72702,0.64432 1.61759,1.36848 0.91393,0.73557 1.77028,1.52983 0.87971,0.80566 1.46984,1.73033 0.59013,0.92468 0.69346,2.01674 0.12669,1.10347 -0.50072,2.38848 -0.67305,1.37847 -2.00303,2.14684 -1.32997,0.76838 -3.21421,0.7164 -1.86087,-0.0406 -4.19725,-1.18134 z"
         id="path40119"
         style="fill:#ebf5ee;fill-opacity:1;stroke:none;stroke-opacity:1" />
      <path
         d="m 366.02986,992.00544 5.28815,-17.41481 7.53812,2.28902 q 2.33856,0.71012 3.7961,1.99505 1.46509,1.26005 1.95498,2.95763 0.48989,1.69758 -0.10692,3.66297 -0.58925,1.94051 -1.94035,3.07905 -1.3511,1.13855 -3.27702,1.39607 -1.91835,0.23264 -4.25691,-0.47748 l -5.29908,-1.60911 2.34271,-1.27219 -2.00949,6.61763 z m 5.9038,-4.94599 -1.20954,-2.45955 5.07517,1.54112 q 1.86588,0.56658 3.02812,0.05 1.16224,-0.51659 1.59284,-1.93465 0.43816,-1.44294 -0.24059,-2.51856 -0.67875,-1.07562 -2.54462,-1.64221 l -5.07518,-1.54112 2.37294,-1.3717 z"
         id="path40121"
         style="fill:#ebf5ee;fill-opacity:1;stroke:none;stroke-opacity:1" />
      <path
         d="m 380.85464,996.62176 10.25968,-17.08167 4.12929,0.50459 5.87033,19.05272 -4.38736,-0.53612 -4.65788,-16.75671 1.65171,0.20184 -8.58164,15.13886 z m 4.49911,-3.37923 1.49764,-3.03878 9.29089,1.13533 0.74765,3.31315 z"
         id="path40123"
         style="fill:#ebf5ee;fill-opacity:1;stroke:none;stroke-opacity:1" />
      <path
         d="m 411.51872,998.72358 q -2.10286,0.11504 -3.95706,-0.46054 -1.82967,-0.60296 -3.22328,-1.80263 -1.39361,-1.19967 -2.24021,-2.87193 -0.82064,-1.67367 -0.93284,-3.7246 -0.11219,-2.05094 0.52099,-3.80414 0.65915,-1.75462 1.91358,-3.09915 1.28039,-1.34595 3.03479,-2.11893 1.75298,-0.79894 3.8818,-0.91539 2.36246,-0.12924 4.30308,0.59785 1.96515,0.6997 3.34984,2.21233 l -2.56363,2.63997 q -0.99283,-1.01329 -2.16353,-1.47002 -1.17211,-0.4827 -2.52209,-0.40885 -1.2721,0.0696 -2.31379,0.54319 -1.04168,0.47361 -1.77791,1.29505 -0.73623,0.82144 -1.11935,1.90999 -0.35715,1.08713 -0.28614,2.38519 0.071,1.29806 0.54461,2.33974 0.49957,1.04027 1.32101,1.7765 0.82144,0.73623 1.90857,1.09338 1.08713,0.35716 2.35923,0.28757 1.34998,-0.0738 2.46387,-0.65556 1.11247,-0.60767 1.98742,-1.74917 l 2.8363,2.34458 q -1.21143,1.65464 -3.08711,2.59049 -1.84972,0.93443 -4.23815,1.06508 z"
         id="path40125"
         style="fill:#ebf5ee;fill-opacity:1;stroke:none;stroke-opacity:1" />
      <path
         d="m 423.20089,985.96802 8.54642,-1.93167 0.72222,3.19539 -8.54642,1.93168 z m 1.95512,7.23498 9.66228,-2.18388 0.74515,3.29684 -13.74528,3.10672 -4.01237,-17.7522 13.41559,-3.03221 0.74516,3.29684 -9.33259,2.10936 z"
         id="path40127"
         style="fill:#ebf5ee;fill-opacity:1;stroke:none;stroke-opacity:1" />
      <path
         d="m 453.64096,987.12278 q -1.88942,0.93023 -3.82084,1.12765 -1.91959,0.16261 -3.67195,-0.39467 -1.75237,-0.55728 -3.18679,-1.76376 -1.4111,-1.21797 -2.31836,-3.06074 -0.90726,-1.84277 -1.0121,-3.70386 -0.0815,-1.87257 0.5454,-3.60125 0.65023,-1.74017 1.96114,-3.13907 1.29943,-1.42222 3.21218,-2.36394 2.12268,-1.04507 4.19299,-1.13699 2.08215,-0.12672 3.949,0.72196 l -1.32342,3.43368 q -1.3106,-0.54294 -2.56664,-0.50415 -1.26752,0.0155 -2.48048,0.61264 -1.14299,0.56273 -1.91561,1.40681 -0.77262,0.84408 -1.12788,1.88839 -0.35526,1.04432 -0.28094,2.19592 0.0976,1.14012 0.67185,2.30643 0.57422,1.16631 1.41829,1.93894 0.8674,0.76114 1.91172,1.11639 1.04431,0.35526 2.18444,0.25762 1.14012,-0.0976 2.2831,-0.66037 1.21296,-0.59719 2.00963,-1.56902 0.78518,-0.99516 1.14258,-2.38829 l 3.52842,1.04494 q -0.46577,1.99711 -1.82441,3.59339 -1.33531,1.58479 -3.48132,2.64135 z"
         id="path40129"
         style="fill:#ebf5ee;fill-opacity:1;stroke:none;stroke-opacity:1" />
      <path
         d="m 469.61051,977.13834 q -1.72551,1.29599 -3.62314,1.84329 -1.87683,0.53169 -3.72297,0.32496 -1.82536,-0.22235 -3.45879,-1.14163 -1.61264,-0.93489 -2.83056,-2.55645 -1.21791,-1.62157 -1.66635,-3.43086 -0.42766,-1.8249 -0.11171,-3.65552 0.31594,-1.83062 1.3496,-3.48493 1.03367,-1.65431 2.73839,-2.93468 1.72551,-1.29599 3.58155,-1.81206 1.87684,-0.53169 3.70219,-0.30935 1.84614,0.20674 3.47958,1.12601 1.61781,0.89849 2.85134,2.54085 1.21792,1.62156 1.66118,3.46726 0.42766,1.8249 0.11172,3.65552 -0.31077,1.79421 -1.34444,3.44852 -1.01287,1.6387 -2.71759,2.91907 z m -2.17556,-2.8533 q 0.97709,-0.73388 1.53805,-1.67546 0.58174,-0.9572 0.73699,-2.04931 0.15525,-1.0921 -0.15231,-2.19429 -0.28677,-1.11781 -1.06748,-2.15727 -0.78071,-1.03946 -1.77432,-1.62638 -0.97281,-0.60253 -2.06492,-0.75778 -1.07132,-0.17087 -2.15272,0.12107 -1.0814,0.29195 -2.05849,1.02582 -0.9771,0.73387 -1.55884,1.69107 -0.56095,0.94159 -0.7162,2.03369 -0.15525,1.09211 0.13152,2.20991 0.30755,1.10219 1.08827,2.14166 0.7651,1.01867 1.75352,1.64199 0.99361,0.58692 2.06493,0.75778 1.0921,0.15525 2.1735,-0.13669 1.0814,-0.29194 2.0585,-1.02581 z"
         id="path40131"
         style="fill:#ebf5ee;fill-opacity:1;stroke:none;stroke-opacity:1" />
      <path
         d="m 479.58325,968.58028 -13.45402,-12.25682 5.30545,-5.82366 q 1.64592,-1.80669 3.4324,-2.57085 1.76726,-0.78167 3.51066,-0.49475 1.7434,0.28691 3.26179,1.67018 1.49916,1.36576 1.94684,3.07495 0.42846,1.69169 -0.1856,3.52394 -0.61406,1.83226 -2.25998,3.63894 l -3.72957,4.09387 -0.10392,-2.62704 5.11253,4.65759 z m 7.79183,-8.55292 -7.94609,-1.08396 3.02919,-3.32507 7.9811,1.04553 z m -9.72182,1.09686 -2.72142,0.0531 3.57198,-3.92088 q 1.31323,-1.44151 1.34605,-2.71296 0.0136,-1.28896 -1.08194,-2.28702 -1.11476,-1.01556 -2.37766,-0.86473 -1.2629,0.15083 -2.57613,1.59233 l -3.57199,3.92089 -0.21924,-2.73209 z"
         id="path40133"
         style="fill:#ebf5ee;fill-opacity:1;stroke:none;stroke-opacity:1" />
      <path
         d="m 492.1819,954.18586 -15.37973,-9.73158 4.21238,-6.65723 q 1.30682,-2.06528 2.93327,-3.12834 1.60449,-1.07696 3.37122,-1.09746 1.76673,-0.0205 3.50245,1.07778 1.71374,1.08437 2.45171,2.68973 0.73796,1.60536 0.47371,3.53036 -0.28622,1.9111 -1.59303,3.97638 l -2.96119,4.67983 -0.60292,-2.59678 5.8443,3.698 z m -3.19665,-7.00707 -2.69274,0.51144 2.83607,-4.48209 q 1.04267,-1.64783 0.85398,-2.90563 -0.18869,-1.2578 -1.44104,-2.05023 -1.27432,-0.80633 -2.49178,-0.43828 -1.21746,0.36806 -2.26013,2.01589 l -2.83606,4.48209 -0.69081,-2.65239 z"
         id="path40135"
         style="fill:#ebf5ee;fill-opacity:1;stroke:none;stroke-opacity:1" />
      <path
         d="m 504.59265,932.47151 q -0.8504,2.01163 -2.15678,3.63291 -1.33034,1.61116 -2.66829,2.37226 l -2.36485,-2.55224 q 1.2219,-0.7537 2.34236,-2.00194 1.10664,-1.2823 1.74443,-2.79103 0.48594,-1.14951 0.564,-1.93511 0.0642,-0.81968 -0.20115,-1.32706 -0.26539,-0.50738 -0.79225,-0.7301 -0.67054,-0.28346 -1.27643,0.0814 -0.62984,0.35476 -1.23378,1.11565 -0.62788,0.75077 -1.28886,1.71337 -0.6748,0.92853 -1.45552,1.84051 -0.77059,0.88803 -1.66191,1.52744 -0.89131,0.63941 -1.98629,0.82576 -1.08485,0.1624 -2.42594,-0.40453 -1.43688,-0.60742 -2.28638,-1.86982 -0.86332,-1.29648 -0.89977,-3.14669 -0.0503,-1.88428 0.95198,-4.25514 0.66817,-1.58058 1.69926,-2.95127 1.00714,-1.38082 2.24559,-2.24044 l 2.43942,2.44262 q -1.1666,0.88999 -1.97399,1.93184 -0.83134,1.03172 -1.30716,2.15728 -0.47581,1.12556 -0.5161,1.95536 -0.0403,0.82981 0.25918,1.32336 0.2755,0.48343 0.82631,0.71627 0.6466,0.27335 1.27644,-0.0814 0.60589,-0.36487 1.20982,-1.12577 0.60394,-0.76089 1.27874,-1.68942 0.68493,-0.95248 1.43157,-1.85063 0.75677,-0.92211 1.64809,-1.56152 0.89131,-0.63941 1.97616,-0.80181 1.09498,-0.18635 2.41212,0.37046 1.41294,0.5973 2.25231,1.88365 0.83937,1.28635 0.88964,3.17063 0.0604,1.86034 -0.95197,4.25515 z"
         id="path40137"
         style="fill:#ebf5ee;fill-opacity:1;stroke:none;stroke-opacity:1" />
    </g>
  </g>
</svg>
