<?xml version="1.0" encoding="UTF-8" standalone="no"?>
<!-- Created with Inkscape (http://www.inkscape.org/) -->

<svg
   width="1169.7109"
   height="143.2661"
   viewBox="0 0 309.48602 37.905822"
   version="1.1"
   id="svg5"
   inkscape:version="1.1 (c68e22c387, 2021-05-23)"
   sodipodi:docname="DSS Defender - Logo.svg"
   xmlns:inkscape="http://www.inkscape.org/namespaces/inkscape"
   xmlns:sodipodi="http://sodipodi.sourceforge.net/DTD/sodipodi-0.dtd"
   xmlns="http://www.w3.org/2000/svg"
   xmlns:svg="http://www.w3.org/2000/svg">
  <sodipodi:namedview
     id="namedview7"
     pagecolor="#505050"
     bordercolor="#ffffff"
     borderopacity="1"
     inkscape:pageshadow="0"
     inkscape:pageopacity="0"
     inkscape:pagecheckerboard="1"
     inkscape:document-units="px"
     showgrid="false"
     inkscape:zoom="1.2518"
     inkscape:cx="579.56543"
     inkscape:cy="58.71545"
     inkscape:window-width="1920"
     inkscape:window-height="1137"
     inkscape:window-x="-8"
     inkscape:window-y="-8"
     inkscape:window-maximized="1"
     inkscape:current-layer="layer1" />
  <defs
     id="defs2" />
  <g
     inkscape:label="Layer 1"
     inkscape:groupmode="layer"
     id="layer1"
     transform="translate(-168.03531,-170.75218)">
    <path
       d="m 170.43772,208.50983 -2.40241,-7.40831 h 2.159 l 2.02141,6.41348 h -1.09008 l 2.12724,-6.41348 h 1.92616 l 2.01083,6.41348 h -1.04775 l 2.08491,-6.41348 h 2.00025 l -2.40241,7.40831 h -2.24366 l -1.7145,-5.4504 h 0.60325 l -1.78858,5.4504 z"
       id="path8160"
       style="font-weight:800;font-size:10.5833px;line-height:1.25;font-family:Montserrat;-inkscape-font-specification:'Montserrat Ultra-Bold';stroke-width:0.264583" />
    <path
       d="m 179.83493,208.50983 3.27024,-7.40831 h 2.06374 l 3.28083,7.40831 h -2.18016 l -2.56116,-6.38173 h 0.8255 l -2.56116,6.38173 z m 1.78858,-1.43933 0.53975,-1.54516 h 3.61949 l 0.53974,1.54516 z"
       id="path8162"
       style="font-weight:800;font-size:10.5833px;line-height:1.25;font-family:Montserrat;-inkscape-font-specification:'Montserrat Ultra-Bold';stroke-width:0.264583" />
    <path
       d="m 189.04239,208.50983 v -7.40831 h 2.0955 v 5.74673 h 3.53482 v 1.66158 z"
       id="path8164"
       style="font-weight:800;font-size:10.5833px;line-height:1.25;font-family:Montserrat;-inkscape-font-specification:'Montserrat Ultra-Bold';stroke-width:0.264583" />
    <path
       d="m 197.37144,206.86942 -0.11642,-2.3495 3.18557,-3.4184 h 2.30716 l -3.17499,3.43957 -1.16416,1.21708 z m -1.87325,1.64041 v -7.40831 h 2.07433 v 7.40831 z m 4.97415,0 -2.41299,-3.05858 1.36525,-1.46049 3.4819,4.51907 z"
       id="path8166"
       style="font-weight:800;font-size:10.5833px;line-height:1.25;font-family:Montserrat;-inkscape-font-specification:'Montserrat Ultra-Bold';stroke-width:0.264583" />
    <path
       d="m 205.38298,203.96959 h 3.43958 v 1.56633 h -3.43958 z m 0.14817,2.92099 h 3.87349 v 1.61925 h -5.94782 v -7.40831 h 5.81023 v 1.61924 h -3.7359 z"
       id="path8168"
       style="font-weight:800;font-size:10.5833px;line-height:1.25;font-family:Montserrat;-inkscape-font-specification:'Montserrat Ultra-Bold';stroke-width:0.264583" />
    <path
       d="m 210.56879,208.50983 v -7.40831 h 3.38666 q 1.01599,0 1.74624,0.32808 0.74083,0.32808 1.143,0.9525 0.40216,0.61383 0.40216,1.46049 0,0.83608 -0.40216,1.44991 -0.40217,0.60325 -1.143,0.93133 -0.73025,0.3175 -1.74624,0.3175 h -2.2225 l 0.93134,-0.87841 v 2.84691 z m 4.58257,0 -1.84149,-2.69874 h 2.23307 l 1.85208,2.69874 z m -2.48707,-2.62466 -0.93134,-0.96308 h 2.0955 q 0.65616,0 0.97366,-0.28575 0.32808,-0.28575 0.32808,-0.79375 0,-0.51858 -0.32808,-0.80433 -0.3175,-0.28575 -0.97366,-0.28575 h -2.0955 l 0.93134,-0.96308 z"
       id="path8170"
       style="font-weight:800;font-size:10.5833px;line-height:1.25;font-family:Montserrat;-inkscape-font-specification:'Montserrat Ultra-Bold';stroke-width:0.264583" />
    <path
       d="m 221.48015,208.50983 v -7.40831 h 3.50308 q 1.22766,0 2.15899,0.45508 0.93133,0.45508 1.44991,1.28058 0.52917,0.8255 0.52917,1.96849 0,1.13241 -0.52917,1.9685 -0.51858,0.82549 -1.44991,1.28057 -0.93133,0.45509 -2.15899,0.45509 z m 2.0955,-1.67216 h 1.32291 q 0.635,0 1.10066,-0.23284 0.47625,-0.24341 0.74083,-0.6985 0.26459,-0.46566 0.26459,-1.10066 0,-0.64558 -0.26459,-1.10066 -0.26458,-0.45508 -0.74083,-0.68792 -0.46566,-0.24341 -1.10066,-0.24341 h -1.32291 z"
       id="path8172"
       style="font-weight:800;font-size:10.5833px;line-height:1.25;font-family:Montserrat;-inkscape-font-specification:'Montserrat Ultra-Bold';stroke-width:0.264583" />
    <path
       d="m 232.1481,203.96959 h 3.43957 v 1.56633 h -3.43957 z m 0.14817,2.92099 h 3.87348 v 1.61925 h -5.94781 v -7.40831 h 5.81023 v 1.61924 h -3.7359 z"
       id="path8174"
       style="font-weight:800;font-size:10.5833px;line-height:1.25;font-family:Montserrat;-inkscape-font-specification:'Montserrat Ultra-Bold';stroke-width:0.264583" />
    <path
       d="m 239.28124,204.35059 h 3.4184 v 1.61924 h -3.4184 z m 0.14816,4.15924 h -2.09549 v -7.40831 h 5.81023 v 1.61924 h -3.71474 z"
       id="path8176"
       style="font-weight:800;font-size:10.5833px;line-height:1.25;font-family:Montserrat;-inkscape-font-specification:'Montserrat Ultra-Bold';stroke-width:0.264583" />
    <path
       d="m 246.05453,203.96959 h 3.43957 v 1.56633 h -3.43957 z m 0.14816,2.92099 h 3.87349 v 1.61925 h -5.94781 v -7.40831 h 5.81023 v 1.61924 h -3.73591 z"
       id="path8178"
       style="font-weight:800;font-size:10.5833px;line-height:1.25;font-family:Montserrat;-inkscape-font-specification:'Montserrat Ultra-Bold';stroke-width:0.264583" />
    <path
       d="m 251.24034,208.50983 v -7.40831 h 1.72507 l 4.08516,4.93181 h -0.81492 v -4.93181 h 2.05316 v 7.40831 h -1.72508 l -4.08515,-4.93182 h 0.81492 v 4.93182 z"
       id="path8180"
       style="font-weight:800;font-size:10.5833px;line-height:1.25;font-family:Montserrat;-inkscape-font-specification:'Montserrat Ultra-Bold';stroke-width:0.264583" />
    <path
       d="m 262.37396,208.65799 q -0.91016,0 -1.75682,-0.22225 -0.83609,-0.23283 -1.36525,-0.59266 l 0.68791,-1.54516 q 0.49742,0.3175 1.143,0.52916 0.65616,0.20108 1.30175,0.20108 0.43391,0 0.69849,-0.0741 0.26459,-0.0847 0.381,-0.21166 0.127,-0.13759 0.127,-0.3175 0,-0.254 -0.23283,-0.40217 -0.23283,-0.14816 -0.60325,-0.24341 -0.37041,-0.0952 -0.8255,-0.1905 -0.44449,-0.0952 -0.89958,-0.24342 -0.44449,-0.14817 -0.81491,-0.381 -0.37042,-0.24341 -0.60325,-0.62441 -0.23283,-0.39159 -0.23283,-0.98425 0,-0.66675 0.35983,-1.2065 0.37042,-0.53974 1.10066,-0.86783 0.73025,-0.32808 1.82033,-0.32808 0.73025,0 1.42875,0.16933 0.70908,0.15875 1.25941,0.47625 l -0.64558,1.55575 q -0.52917,-0.28575 -1.04775,-0.42333 -0.51858,-0.14817 -1.00541,-0.14817 -0.43392,0 -0.6985,0.0952 -0.26458,0.0847 -0.381,0.23283 -0.11641,0.14817 -0.11641,0.33867 0,0.24341 0.22225,0.39158 0.23283,0.13758 0.60324,0.23283 0.381,0.0847 0.8255,0.17992 0.45508,0.0952 0.89958,0.24341 0.45508,0.13759 0.8255,0.381 0.37041,0.23283 0.59266,0.62442 0.23284,0.381 0.23284,0.96308 0,0.64558 -0.37042,1.19591 -0.35983,0.53975 -1.09008,0.86783 -0.71966,0.32808 -1.82033,0.32808 z"
       id="path8182"
       style="font-weight:800;font-size:10.5833px;line-height:1.25;font-family:Montserrat;-inkscape-font-specification:'Montserrat Ultra-Bold';stroke-width:0.264583" />
    <path
       d="m 268.54402,203.96959 h 3.43957 v 1.56633 h -3.43957 z m 0.14817,2.92099 h 3.87348 v 1.61925 h -5.94781 v -7.40831 h 5.81023 v 1.61924 h -3.7359 z"
       id="path8184"
       style="font-weight:800;font-size:10.5833px;line-height:1.25;font-family:Montserrat;-inkscape-font-specification:'Montserrat Ultra-Bold';stroke-width:0.264583" />
    <path
       d="m 283.21242,208.50981 v -7.40829 h 3.50307 c 0.81844,0 1.5381,0.15169 2.15899,0.45508 0.62089,0.30339 1.10419,0.73025 1.44992,1.28058 0.35277,0.55033 0.52916,1.2065 0.52916,1.96849 0,0.75494 -0.17639,1.41111 -0.52916,1.9685 -0.34573,0.55033 -0.82903,0.97718 -1.44992,1.28057 -0.62089,0.30339 -1.34055,0.45509 -2.15899,0.45509 z m 2.09549,-1.67214 h 1.32291 c 0.42333,0 0.79022,-0.0776 1.10067,-0.23284 0.3175,-0.16227 0.56444,-0.39511 0.74083,-0.6985 0.17639,-0.31044 0.26458,-0.67733 0.26458,-1.10066 0,-0.43039 -0.0882,-0.79727 -0.26458,-1.10066 -0.17639,-0.30339 -0.42333,-0.53269 -0.74083,-0.68792 -0.31045,-0.16227 -0.67734,-0.24341 -1.10067,-0.24341 h -1.32291 z"
       id="path8188"
       sodipodi:nodetypes="ccsscscssccsccsscscc"
       style="font-weight:800;font-size:10.5833px;line-height:1.25;font-family:Montserrat;-inkscape-font-specification:'Montserrat Ultra-Bold';stroke-width:0.264583" />
    <path
       d="m 293.88037,203.96959 h 3.43957 v 1.56633 h -3.43957 z m 0.14817,2.92099 h 3.87348 v 1.61925 h -5.94781 v -7.40831 h 5.81023 v 1.61924 h -3.7359 z"
       id="path8190"
       style="font-weight:800;font-size:10.5833px;line-height:1.25;font-family:Montserrat;-inkscape-font-specification:'Montserrat Ultra-Bold';stroke-width:0.264583" />
    <path
       d="m 300.99234,203.96959 h 3.43957 v 1.56633 h -3.43957 z m 0.14817,2.92099 h 3.87348 v 1.61925 h -5.94781 v -7.40831 h 5.81023 v 1.61924 h -3.7359 z"
       id="path8192"
       style="font-weight:800;font-size:10.5833px;line-height:1.25;font-family:Montserrat;-inkscape-font-specification:'Montserrat Ultra-Bold';stroke-width:0.264583" />
    <path
       d="m 306.17815,208.50983 v -7.40831 h 3.38665 q 1.016,0 1.74625,0.32808 0.74083,0.32808 1.14299,0.9525 0.40217,0.61383 0.40217,1.46049 0,0.83608 -0.40217,1.44991 -0.40216,0.61383 -1.14299,0.9525 -0.73025,0.32808 -1.74625,0.32808 h -2.22249 l 0.93133,-0.91016 v 2.84691 z m 2.09549,-2.62466 -0.93133,-0.96308 h 2.09549 q 0.65617,0 0.97367,-0.28575 0.32808,-0.28575 0.32808,-0.79375 0,-0.51858 -0.32808,-0.80433 -0.3175,-0.28575 -0.97367,-0.28575 h -2.09549 l 0.93133,-0.96308 z"
       id="path8194"
       style="font-weight:800;font-size:10.5833px;line-height:1.25;font-family:Montserrat;-inkscape-font-specification:'Montserrat Ultra-Bold';stroke-width:0.264583" />
    <path
       d="m 319.66125,208.65799 q -0.91017,0 -1.75683,-0.22225 -0.83608,-0.23283 -1.36525,-0.59266 l 0.68792,-1.54516 q 0.49741,0.3175 1.143,0.52916 0.65616,0.20108 1.30174,0.20108 0.43392,0 0.6985,-0.0741 0.26458,-0.0847 0.381,-0.21166 0.127,-0.13759 0.127,-0.3175 0,-0.254 -0.23284,-0.40217 -0.23283,-0.14816 -0.60324,-0.24341 -0.37042,-0.0952 -0.8255,-0.1905 -0.4445,-0.0952 -0.89958,-0.24342 -0.4445,-0.14817 -0.81492,-0.381 -0.37041,-0.24341 -0.60324,-0.62441 -0.23284,-0.39159 -0.23284,-0.98425 0,-0.66675 0.35984,-1.2065 0.37041,-0.53974 1.10066,-0.86783 0.73025,-0.32808 1.82033,-0.32808 0.73024,0 1.42874,0.16933 0.70908,0.15875 1.25941,0.47625 l -0.64558,1.55575 q -0.52916,-0.28575 -1.04774,-0.42333 -0.51858,-0.14817 -1.00542,-0.14817 -0.43391,0 -0.69849,0.0952 -0.26459,0.0847 -0.381,0.23283 -0.11642,0.14817 -0.11642,0.33867 0,0.24341 0.22225,0.39158 0.23283,0.13758 0.60325,0.23283 0.381,0.0847 0.8255,0.17992 0.45508,0.0952 0.89958,0.24341 0.45508,0.13759 0.82549,0.381 0.37042,0.23283 0.59267,0.62442 0.23283,0.381 0.23283,0.96308 0,0.64558 -0.37041,1.19591 -0.35984,0.53975 -1.09008,0.86783 -0.71967,0.32808 -1.82033,0.32808 z"
       id="path8196"
       style="font-weight:800;font-size:10.5833px;line-height:1.25;font-family:Montserrat;-inkscape-font-specification:'Montserrat Ultra-Bold';stroke-width:0.264583" />
    <path
       d="m 323.90514,208.50983 v -7.40831 h 3.38665 q 1.016,0 1.74625,0.32808 0.74083,0.32808 1.14299,0.9525 0.40217,0.61383 0.40217,1.46049 0,0.83608 -0.40217,1.44991 -0.40216,0.61383 -1.14299,0.9525 -0.73025,0.32808 -1.74625,0.32808 h -2.22249 l 0.93133,-0.91016 v 2.84691 z m 2.09549,-2.62466 -0.93133,-0.96308 h 2.09549 q 0.65617,0 0.97367,-0.28575 0.32808,-0.28575 0.32808,-0.79375 0,-0.51858 -0.32808,-0.80433 -0.3175,-0.28575 -0.97367,-0.28575 h -2.09549 l 0.93133,-0.96308 z"
       id="path8198"
       style="font-weight:800;font-size:10.5833px;line-height:1.25;font-family:Montserrat;-inkscape-font-specification:'Montserrat Ultra-Bold';stroke-width:0.264583" />
    <path
       d="m 330.33978,208.50983 3.27024,-7.40831 h 2.06374 l 3.28083,7.40831 h -2.18016 l -2.56116,-6.38173 h 0.82549 l -2.56115,6.38173 z m 1.78858,-1.43933 0.53975,-1.54516 h 3.61948 l 0.53975,1.54516 z"
       id="path8200"
       style="font-weight:800;font-size:10.5833px;line-height:1.25;font-family:Montserrat;-inkscape-font-specification:'Montserrat Ultra-Bold';stroke-width:0.264583" />
    <path
       d="m 343.13498,208.65799 q -0.87841,0 -1.62983,-0.27516 -0.74083,-0.28575 -1.29116,-0.80433 -0.53975,-0.51859 -0.84667,-1.21708 -0.30691,-0.70908 -0.30691,-1.55575 0,-0.84666 0.30691,-1.54516 0.30692,-0.70908 0.84667,-1.22766 0.55033,-0.51858 1.29116,-0.79375 0.75142,-0.28575 1.62983,-0.28575 1.02658,0 1.83091,0.35983 0.81491,0.35984 1.35466,1.03717 l -1.33349,1.20649 q -0.35984,-0.42333 -0.79375,-0.64558 -0.42333,-0.22225 -0.9525,-0.22225 -0.45508,0 -0.83608,0.14817 -0.381,0.14816 -0.65616,0.43391 -0.26459,0.27517 -0.42333,0.66675 -0.14817,0.39158 -0.14817,0.86783 0,0.47625 0.14817,0.86783 0.15874,0.39158 0.42333,0.67733 0.27516,0.27517 0.65616,0.42334 0.381,0.14816 0.83608,0.14816 0.52917,0 0.9525,-0.22225 0.43391,-0.22225 0.79375,-0.64558 l 1.33349,1.2065 q -0.53975,0.66675 -1.35466,1.03716 -0.80433,0.35983 -1.83091,0.35983 z"
       id="path8202"
       style="font-weight:800;font-size:10.5833px;line-height:1.25;font-family:Montserrat;-inkscape-font-specification:'Montserrat Ultra-Bold';stroke-width:0.264583" />
    <path
       d="m 349.17804,203.96959 h 3.43957 v 1.56633 h -3.43957 z m 0.14817,2.92099 h 3.87348 v 1.61925 h -5.94781 v -7.40831 h 5.81023 v 1.61924 h -3.7359 z"
       id="path8204"
       style="font-weight:800;font-size:10.5833px;line-height:1.25;font-family:Montserrat;-inkscape-font-specification:'Montserrat Ultra-Bold';stroke-width:0.264583" />
    <path
       d="m 361.13713,208.65799 q -0.87841,0 -1.62983,-0.27516 -0.74083,-0.28575 -1.29116,-0.80433 -0.53975,-0.51859 -0.84666,-1.21708 -0.30692,-0.70908 -0.30692,-1.55575 0,-0.84666 0.30692,-1.54516 0.30691,-0.70908 0.84666,-1.22766 0.55033,-0.51858 1.29116,-0.79375 0.75142,-0.28575 1.62983,-0.28575 1.02658,0 1.83091,0.35983 0.81492,0.35984 1.35466,1.03717 l -1.33349,1.20649 q -0.35983,-0.42333 -0.79375,-0.64558 -0.42333,-0.22225 -0.9525,-0.22225 -0.45508,0 -0.83608,0.14817 -0.381,0.14816 -0.65616,0.43391 -0.26458,0.27517 -0.42333,0.66675 -0.14817,0.39158 -0.14817,0.86783 0,0.47625 0.14817,0.86783 0.15875,0.39158 0.42333,0.67733 0.27516,0.27517 0.65616,0.42334 0.381,0.14816 0.83608,0.14816 0.52917,0 0.9525,-0.22225 0.43392,-0.22225 0.79375,-0.64558 l 1.33349,1.2065 q -0.53974,0.66675 -1.35466,1.03716 -0.80433,0.35983 -1.83091,0.35983 z"
       id="path8206"
       style="font-weight:800;font-size:10.5833px;line-height:1.25;font-family:Montserrat;-inkscape-font-specification:'Montserrat Ultra-Bold';stroke-width:0.264583" />
    <path
       d="m 368.83117,208.65799 q -0.889,0 -1.64041,-0.28575 -0.75142,-0.28575 -1.31233,-0.80433 -0.55034,-0.52916 -0.85725,-1.22766 -0.30692,-0.6985 -0.30692,-1.53458 0,-0.83608 0.30692,-1.53458 0.30691,-0.69849 0.85725,-1.21708 0.56091,-0.52916 1.31233,-0.81491 0.75141,-0.28575 1.64041,-0.28575 0.89958,0 1.64041,0.28575 0.75141,0.28575 1.30174,0.81491 0.55034,0.51859 0.85725,1.21708 0.3175,0.6985 0.3175,1.53458 0,0.83608 -0.3175,1.54516 -0.30691,0.6985 -0.85725,1.21708 -0.55033,0.51858 -1.30174,0.80433 -0.74083,0.28575 -1.64041,0.28575 z m 0,-1.73566 q 0.42333,0 0.78316,-0.14816 0.37042,-0.14817 0.635,-0.42334 0.27516,-0.28575 0.42333,-0.67733 0.15875,-0.39158 0.15875,-0.86783 0,-0.48683 -0.15875,-0.86783 -0.14817,-0.39158 -0.42333,-0.66675 -0.26458,-0.28575 -0.635,-0.43391 -0.35983,-0.14817 -0.78316,-0.14817 -0.42334,0 -0.79375,0.14817 -0.35983,0.14816 -0.635,0.43391 -0.26458,0.27517 -0.42333,0.66675 -0.14817,0.381 -0.14817,0.86783 0,0.47625 0.14817,0.86783 0.15875,0.39158 0.42333,0.67733 0.27517,0.27517 0.635,0.42334 0.37041,0.14816 0.79375,0.14816 z"
       id="path8208"
       style="font-weight:800;font-size:10.5833px;line-height:1.25;font-family:Montserrat;-inkscape-font-specification:'Montserrat Ultra-Bold';stroke-width:0.264583" />
    <path
       d="m 374.04872,208.50983 v -7.40831 h 3.38666 q 1.016,0 1.74624,0.32808 0.74083,0.32808 1.143,0.9525 0.40216,0.61383 0.40216,1.46049 0,0.83608 -0.40216,1.44991 -0.40217,0.60325 -1.143,0.93133 -0.73024,0.3175 -1.74624,0.3175 h -2.22249 l 0.93133,-0.87841 v 2.84691 z m 4.58257,0 -1.84149,-2.69874 h 2.23307 l 1.85208,2.69874 z m -2.48707,-2.62466 -0.93133,-0.96308 h 2.09549 q 0.65616,0 0.97366,-0.28575 0.32808,-0.28575 0.32808,-0.79375 0,-0.51858 -0.32808,-0.80433 -0.3175,-0.28575 -0.97366,-0.28575 h -2.09549 l 0.93133,-0.96308 z"
       id="path8210"
       style="font-weight:800;font-size:10.5833px;line-height:1.25;font-family:Montserrat;-inkscape-font-specification:'Montserrat Ultra-Bold';stroke-width:0.264583" />
    <path
       d="m 381.88036,208.50983 v -7.40831 h 3.38665 q 1.016,0 1.74625,0.32808 0.74083,0.32808 1.14299,0.9525 0.40217,0.61383 0.40217,1.46049 0,0.83608 -0.40217,1.44991 -0.40216,0.61383 -1.14299,0.9525 -0.73025,0.32808 -1.74625,0.32808 h -2.22249 l 0.93133,-0.91016 v 2.84691 z m 2.09549,-2.62466 -0.93133,-0.96308 h 2.09549 q 0.65617,0 0.97367,-0.28575 0.32808,-0.28575 0.32808,-0.79375 0,-0.51858 -0.32808,-0.80433 -0.3175,-0.28575 -0.97367,-0.28575 h -2.09549 l 0.93133,-0.96308 z"
       id="path8212"
       style="font-weight:800;font-size:10.5833px;line-height:1.25;font-family:Montserrat;-inkscape-font-specification:'Montserrat Ultra-Bold';stroke-width:0.264583" />
    <path
       d="m 392.28375,208.65799 q -0.91017,0 -1.75683,-0.22225 -0.83608,-0.23283 -1.36525,-0.59266 l 0.68792,-1.54516 q 0.49741,0.3175 1.14299,0.52916 0.65617,0.20108 1.30175,0.20108 0.43391,0 0.6985,-0.0741 0.26458,-0.0847 0.381,-0.21166 0.12699,-0.13759 0.12699,-0.3175 0,-0.254 -0.23283,-0.40217 -0.23283,-0.14816 -0.60325,-0.24341 -0.37041,-0.0952 -0.82549,-0.1905 -0.4445,-0.0952 -0.89958,-0.24342 -0.4445,-0.14817 -0.81492,-0.381 -0.37041,-0.24341 -0.60325,-0.62441 -0.23283,-0.39159 -0.23283,-0.98425 0,-0.66675 0.35983,-1.2065 0.37042,-0.53974 1.10067,-0.86783 0.73024,-0.32808 1.82032,-0.32808 0.73025,0 1.42875,0.16933 0.70908,0.15875 1.25941,0.47625 l -0.64558,1.55575 q -0.52916,-0.28575 -1.04775,-0.42333 -0.51858,-0.14817 -1.00541,-0.14817 -0.43391,0 -0.6985,0.0952 -0.26458,0.0847 -0.381,0.23283 -0.11641,0.14817 -0.11641,0.33867 0,0.24341 0.22225,0.39158 0.23283,0.13758 0.60325,0.23283 0.38099,0.0847 0.82549,0.17992 0.45508,0.0952 0.89958,0.24341 0.45509,0.13759 0.8255,0.381 0.37042,0.23283 0.59267,0.62442 0.23283,0.381 0.23283,0.96308 0,0.64558 -0.37042,1.19591 -0.35983,0.53975 -1.09008,0.86783 -0.71966,0.32808 -1.82032,0.32808 z"
       id="path8214"
       style="font-weight:800;font-size:10.5833px;line-height:1.25;font-family:Montserrat;-inkscape-font-specification:'Montserrat Ultra-Bold';stroke-width:0.264583" />
    <path
       d="m 276.80955,208.658 v -7.70467 h 1.84149 v 7.70467 z"
       id="path8186-3"
       sodipodi:nodetypes="ccccc"
       style="font-weight:800;font-size:10.5833px;line-height:1.25;font-family:Montserrat;-inkscape-font-specification:'Montserrat Ultra-Bold';stroke-width:0.262076" />
    <path
       id="path2534"
       style="font-weight:bold;font-size:38.1px;line-height:1.25;font-family:Montserrat;-inkscape-font-specification:'Montserrat Bold';stroke-width:0.999999"
       d="m 156.38281,0 c -9.504,0 -17.42376,1.4403125 -23.75976,4.3203125 -6.24,2.784 -10.94333,6.5749995 -14.11133,11.3749995 -3.072,4.704001 -4.60742,9.937266 -4.60742,15.697266 0,5.376 1.05597,9.792047 3.16797,13.248047 2.208,3.456 5.04009,6.239562 8.49609,8.351563 3.456,2.112 7.247,3.839593 11.375,5.183593 4.224,1.344 8.4013,2.497031 12.5293,3.457031 4.224,0.864001 8.06353,1.822907 11.51953,2.878907 3.456,0.96 6.23956,2.256672 8.35156,3.888672 2.112,1.536 3.16797,3.647937 3.16797,6.335937 0,2.112 -0.67163,3.983234 -2.01563,5.615234 -1.344,1.632001 -3.45593,2.928672 -6.33593,3.888672 -2.784,0.864 -6.47989,1.294922 -11.08789,1.294922 -6.048,0 -12.048,-0.958906 -18,-2.878906 -5.856,-2.016 -10.94368,-4.560812 -15.26368,-7.632812 l -7.91992,17.568359 c 4.512,3.456 10.46347,6.288094 17.85547,8.496093 7.392,2.112 15.11959,3.16797 23.18359,3.16797 9.6,0 17.51977,-1.44031 23.75977,-4.320313 6.336,-2.88 11.08786,-6.671 14.25586,-11.375 3.168,-4.704 4.75195,-9.888734 4.75195,-15.552735 0,-5.28 -1.1045,-9.647515 -3.3125,-13.103515 -2.112,-3.456 -4.89556,-6.239563 -8.35156,-8.351563 -3.456,-2.112 -7.29553,-3.793015 -11.51953,-5.041015 -4.128,-1.248 -8.30334,-2.3525 -12.52734,-3.3125 -4.12801,-0.96 -7.92096,-1.918906 -11.37696,-2.878907 -3.456,-0.96 -6.23956,-2.20814 -8.35156,-3.74414 -2.112,-1.632 -3.16797,-3.743938 -3.16797,-6.335938 0,-2.208 0.62309,-4.127765 1.87109,-5.759765 1.248,-1.728 3.31336,-3.119781 6.19336,-4.175781 2.88,-1.056001 6.57589,-1.583985 11.08789,-1.583985 4.512,0 9.12022,0.671625 13.82422,2.015625 4.704,1.248 9.40733,3.216297 14.11133,5.904297 L 191.375,8.9277344 C 186.671,5.9517344 181.24752,3.7446875 175.10352,2.3046875 168.95952,0.7686875 162.71881,0 156.38281,0 Z m 91.87305,0 c -9.504,0 -17.42377,1.4403125 -23.75977,4.3203125 -6.24,2.784 -10.94528,6.5749995 -14.11328,11.3749995 -3.072,4.704001 -4.60742,9.937266 -4.60742,15.697266 0,5.376 1.05597,9.792047 3.16797,13.248047 2.208,3.456 5.04009,6.239562 8.49609,8.351563 3.456,2.112 7.24896,3.839593 11.37696,5.183593 4.224,1.344 8.39934,2.497031 12.52734,3.457031 4.224,0.864001 8.06353,1.822907 11.51953,2.878907 3.456,0.96 6.23956,2.256672 8.35156,3.888672 2.112,1.536 3.16797,3.647937 3.16797,6.335937 0,2.112 -0.67162,3.983234 -2.01562,5.615234 -1.344,1.632001 -3.45594,2.928672 -6.33594,3.888672 -2.784,0.864 -6.47989,1.294922 -11.08789,1.294922 -6.048,0 -12.048,-0.958906 -18,-2.878906 -5.856,-2.016 -10.94367,-4.560812 -15.26367,-7.632812 l -7.91992,17.568359 c 4.512,3.456 10.46346,6.288094 17.85546,8.496093 7.392,2.112 15.1196,3.16797 23.1836,3.16797 9.6,0 17.51976,-1.44031 23.75976,-4.320313 6.336,-2.88 11.08982,-6.671 14.25782,-11.375 3.168,-4.704 4.75195,-9.888734 4.75195,-15.552735 0,-5.28 -1.1045,-9.647515 -3.3125,-13.103515 -2.112,-3.456 -4.89556,-6.239563 -8.35156,-8.351563 -3.456,-2.112 -7.29749,-3.793015 -11.52149,-5.041015 -4.128,-1.248 -8.30334,-2.3525 -12.52734,-3.3125 -4.128,-0.96 -7.919,-1.918906 -11.375,-2.878907 -3.456,-0.96 -6.24152,-2.20814 -8.35352,-3.74414 -2.112,-1.632 -3.16797,-3.743938 -3.16797,-6.335938 0,-2.208 0.62505,-4.127765 1.87305,-5.759765 1.248,-1.728 3.31141,-3.119781 6.19141,-4.175781 2.88,-1.056001 6.57589,-1.583985 11.08789,-1.583985 4.512,0 9.12022,0.671625 13.82422,2.015625 4.704,1.248 9.40732,3.216297 14.11133,5.904297 l 7.20117,-17.7128906 c -4.704,-2.976 -10.12944,-5.1830469 -16.27344,-6.6230469 C 260.83061,0.7686875 254.59186,0 248.25586,0 Z M 0.86328125,1.7285156 V 102.52734 H 46.65625 c 10.944,0 20.591359,-2.0634 28.943359,-6.191402 8.352,-4.224001 14.879985,-10.08036 19.583985,-17.56836 4.704,-7.584 7.056636,-16.462672 7.056636,-26.638672 0,-10.272 -2.352636,-19.152625 -7.056636,-26.640625 -4.704,-7.488 -11.231985,-13.295828 -19.583985,-17.4238279 -8.352,-4.224 -17.999359,-6.3359375 -28.943359,-6.3359375 z m 343.43944875,0 V 102.52734 h 45.79297 c 10.944,0 20.59136,-2.0634 28.94336,-6.191402 8.352,-4.224001 14.87999,-10.08036 19.58399,-17.56836 4.704,-7.584 7.05664,-16.462672 7.05664,-26.638672 0,-10.272 -2.35264,-19.152625 -7.05664,-26.640625 -4.704,-7.488 -11.23199,-13.295828 -19.58399,-17.4238279 -8.352,-4.224 -17.99936,-6.3359375 -28.94336,-6.3359375 z m 118.94336,0 V 102.52734 h 78.04883 V 83.808594 H 486.43164 V 60.480469 h 46.79883 V 42.335938 H 486.43164 V 20.447266 h 52.99219 V 1.7285156 Z m 96.625,0 V 102.52734 h 23.32813 V 65.808594 h 46.65625 V 47.087891 H 583.19922 V 20.447266 h 52.84766 V 1.7285156 Z m 92.01563,0 V 102.52734 h 78.04883 V 83.808594 H 675.07031 V 60.480469 h 46.80078 V 42.335938 H 675.07031 V 20.447266 H 728.0625 V 1.7285156 Z m 96.625,0 V 102.52734 h 23.03906 V 41.345703 l 50.25586,61.181637 h 19.15234 V 1.7285156 H 817.91797 V 62.880859 L 767.80664,1.7285156 Z m 116.35156,0 V 102.52734 h 45.79102 c 10.944,0 20.59136,-2.0634 28.94336,-6.191402 8.352,-4.224001 14.87998,-10.08036 19.58398,-17.56836 4.704,-7.584 7.05664,-16.462672 7.05664,-26.638672 0,-10.272 -2.35264,-19.152625 -7.05664,-26.640625 -4.704,-7.488 -11.23198,-13.295828 -19.58398,-17.4238279 -8.352,-4.224 -17.99936,-6.3359375 -28.94336,-6.3359375 z m 118.94336,0 V 102.52734 h 78.04686 V 83.808594 h -54.8633 V 60.480469 h 46.8008 V 42.335938 h -46.8008 V 20.447266 h 52.9922 V 1.7285156 Z m 96.62306,0 V 102.52734 h 23.3281 V 74.447266 h 20.3047 c 0.3677,0 0.7302,-0.005 1.0937,-0.0098 l 19.3536,28.089844 h 25.2011 l -22.5195,-32.314453 c 0.066,-0.02867 0.1336,-0.05502 0.1992,-0.08398 6.528,-2.88 11.5672,-7.008765 15.1192,-12.384765 3.552,-5.472 5.3281,-11.951453 5.3281,-19.439453 0,-7.584001 -1.7761,-14.111985 -5.3281,-19.583985 -3.552,-5.472 -8.5912,-9.6492967 -15.1192,-12.5292968 -6.528,-2.976 -14.3041,-4.4628906 -23.3281,-4.4628906 z m 23.3281,19.0078124 h 19.0078 c 7.2,0 12.5769,1.535422 16.1289,4.607422 3.552,3.072 5.3282,7.392937 5.3282,12.960938 0,5.472 -1.7762,9.790984 -5.3282,12.958984 -3.552,3.072 -8.9289,4.607422 -16.1289,4.607422 h -19.0078 z M 24.191406,20.880859 h 21.3125 c 6.72,0 12.527828,1.294719 17.423828,3.886719 4.992,2.496 8.831532,6.096781 11.519532,10.800781 2.784,4.608 4.175781,10.128547 4.175781,16.560547 0,6.336 -1.391781,11.854594 -4.175781,16.558594 -2.688,4.704 -6.527532,8.353312 -11.519532,10.945312 -4.896,2.496001 -10.703828,3.744141 -17.423828,3.744141 h -21.3125 z m 343.439454,0 h 21.3125 c 6.72,0 12.52783,1.294719 17.42383,3.886719 4.992,2.496 8.83153,6.096781 11.51953,10.800781 2.784,4.608 4.17578,10.128547 4.17578,16.560547 0,6.336 -1.39178,11.854594 -4.17578,16.558594 -2.688,4.704 -6.52753,8.353312 -11.51953,10.945312 -4.896,2.496001 -10.70383,3.744141 -17.42383,3.744141 h -21.3125 z m 520.56055,0 h 21.31054 c 6.72,0 12.52783,1.294719 17.42383,3.886719 4.992,2.496 8.83349,6.096781 11.52149,10.800781 2.784,4.608 4.17578,10.128547 4.17578,16.560547 0,6.336 -1.39178,11.854594 -4.17578,16.558594 -2.688,4.704 -6.52949,8.353312 -11.52149,10.945312 -4.896,2.496001 -10.70383,3.744141 -17.42383,3.744141 h -21.31054 z"
       transform="matrix(0.26458333,0,0,0.26458333,168.03531,170.75218)" />
  </g>
</svg>
